<svg xmlns="http://www.w3.org/2000/svg" xmlns:xlink="http://www.w3.org/1999/xlink" width="370" zoomAndPan="magnify" viewBox="0 0 277.5 284.999983" height="380" preserveAspectRatio="xMidYMid meet" version="1.0"><defs><clipPath id="39f5cbbbf0"><path d="M 21 7.375 L 255.894531 7.375 L 255.894531 277 L 21 277 Z M 21 7.375 " clip-rule="nonzero"/></clipPath><clipPath id="f628ed1f7f"><path d="M 39 205 L 238 205 L 238 277.636719 L 39 277.636719 Z M 39 205 " clip-rule="nonzero"/></clipPath><clipPath id="ee65d6518f"><path d="M 21 7.375 L 255.894531 7.375 L 255.894531 277.636719 L 21 277.636719 Z M 21 7.375 " clip-rule="nonzero"/></clipPath></defs><g clip-path="url(#39f5cbbbf0)"><path fill="#ffffff" d="M 237.398438 221.835938 L 236.789062 222.8125 L 236.847656 222.8125 C 217.027344 253.980469 184.675781 273.566406 148.039062 276.566406 C 148.039062 276.566406 147.210938 276.632812 146.890625 276.65625 C 146.226562 276.703125 145.566406 276.746094 144.902344 276.78125 C 144.417969 276.808594 143.929688 276.828125 143.441406 276.851562 L 143.179688 276.863281 C 142.652344 276.882812 142.125 276.90625 141.59375 276.921875 C 141.121094 276.933594 140.644531 276.941406 140.171875 276.945312 L 139.253906 276.960938 C 138.960938 276.96875 138.667969 276.972656 138.375 276.972656 C 138.078125 276.972656 137.785156 276.964844 137.492188 276.960938 L 136.574219 276.945312 C 136.101562 276.941406 135.628906 276.933594 135.15625 276.921875 C 134.582031 276.90625 134.011719 276.882812 133.4375 276.855469 L 133.300781 276.851562 C 132.816406 276.828125 132.335938 276.808594 131.855469 276.78125 C 131.183594 276.746094 130.515625 276.703125 129.847656 276.652344 C 129.535156 276.632812 128.734375 276.566406 128.734375 276.566406 C 92.03125 273.570312 59.640625 253.9375 39.832031 222.6875 L 39.351562 221.835938 C 27.820312 203.339844 21.722656 182.015625 21.722656 160.171875 C 21.722656 134.265625 30.0625 109.707031 45.835938 89.152344 L 46.152344 88.738281 L 45.8125 88.347656 C 43.328125 85.449219 36.726562 77.753906 37.480469 76.125 C 37.601562 75.859375 37.808594 75.695312 38.113281 75.628906 C 38.210938 75.609375 38.324219 75.597656 38.445312 75.597656 C 40.246094 75.597656 44.0625 77.792969 48.925781 81.625 L 49.890625 80.835938 C 48.300781 77.679688 43.019531 67.148438 41.863281 64.015625 C 41.105469 61.972656 41.773438 61.3125 42.097656 61.125 C 42.28125 61.015625 42.503906 60.960938 42.75 60.960938 C 43.621094 60.960938 44.683594 61.585938 45.527344 62.589844 C 46.300781 63.511719 48.082031 65.929688 50.679688 69.59375 L 51.796875 68.996094 C 50.261719 64.9375 48.289062 59.6875 47.597656 57.722656 C 46.96875 55.917969 47.824219 54.761719 48.746094 54.320312 C 49.074219 54.164062 49.445312 54.082031 49.824219 54.082031 C 50.433594 54.082031 51.585938 54.296875 52.488281 55.753906 C 53.925781 58.078125 59 66.183594 62.011719 70.992188 L 62.40625 71.617188 L 63.542969 70.648438 L 63.433594 70.253906 C 60.492188 59.6875 58.808594 52.621094 58.933594 51.34375 C 59.027344 50.367188 59.730469 49.628906 60.679688 49.507812 C 60.765625 49.5 60.851562 49.492188 60.941406 49.492188 C 61.511719 49.492188 63.472656 49.773438 64.78125 53.355469 C 65.347656 54.902344 66.546875 57.671875 68.34375 61.578125 L 68.988281 62.976562 L 69.523438 61.53125 C 70.777344 58.152344 73.5625 55.460938 76.972656 54.339844 L 77.542969 54.152344 L 77.390625 53.570312 C 77.132812 52.566406 77.003906 51.5625 77.003906 50.589844 C 77.003906 43.996094 82.363281 38.628906 88.949219 38.628906 L 89.679688 38.640625 L 89.683594 37.917969 C 89.617188 37.371094 89.585938 36.910156 89.585938 36.46875 C 89.585938 29.875 94.945312 24.507812 101.53125 24.507812 C 101.742188 24.507812 101.945312 24.523438 102.152344 24.539062 L 102.921875 24.589844 L 102.992188 23.984375 C 103.695312 17.96875 108.792969 13.433594 114.847656 13.433594 C 116.582031 13.433594 118.269531 13.808594 119.867188 14.550781 L 120.410156 14.804688 L 120.699219 14.273438 C 122.789062 10.398438 126.816406 7.988281 131.214844 7.988281 C 134.625 7.988281 137.882812 9.464844 140.15625 12.042969 L 140.503906 12.4375 L 140.960938 12.171875 C 142.792969 11.097656 144.871094 10.53125 146.976562 10.53125 C 151.9375 10.53125 156.433594 13.664062 158.164062 18.332031 L 158.4375 19.070312 L 159.101562 18.648438 C 161.019531 17.433594 163.222656 16.792969 165.472656 16.792969 C 170.996094 16.792969 175.761719 20.546875 177.066406 25.925781 L 177.113281 26.117188 L 177.261719 26.25 C 177.429688 26.398438 177.59375 26.550781 177.761719 26.703125 L 177.96875 26.902344 L 178.253906 26.875 C 178.609375 26.84375 178.96875 26.820312 179.328125 26.820312 C 185.914062 26.820312 191.273438 32.1875 191.273438 38.78125 C 191.273438 41.019531 190.640625 43.214844 189.441406 45.125 L 188.914062 45.964844 L 189.894531 46.097656 C 195.789062 46.898438 200.230469 51.984375 200.230469 57.9375 C 200.230469 58.785156 200.132812 59.652344 199.945312 60.511719 L 199.851562 60.953125 L 200.230469 61.191406 C 234.542969 82.765625 255.027344 119.765625 255.027344 160.171875 C 255.027344 182.015625 248.933594 203.335938 237.398438 221.835938 Z M 237.398438 221.835938 " fill-opacity="1" fill-rule="nonzero"/></g><path fill="#3dad79" d="M 223.355469 222.632812 L 189.621094 222.632812 L 179.398438 205.53125 L 125.300781 205.53125 L 125.300781 215.210938 L 144.757812 247.75 L 139.585938 247.75 L 139.585938 257.429688 L 120.128906 224.890625 L 120.128906 222.628906 L 110.070312 222.628906 C 100.628906 233.921875 81.023438 233.136719 69.105469 222.628906 C 68.363281 221.976562 67.652344 221.289062 66.972656 220.5625 C 58.480469 211.433594 55.832031 142.460938 55.832031 135.109375 C 55.832031 133.148438 58.488281 130.710938 62.40625 128.28125 C 65.570312 126.316406 69.558594 124.359375 73.65625 122.667969 C 79.960938 120.058594 86.503906 118.082031 90.648438 117.660156 C 91.632812 117.5625 92.476562 117.554688 93.15625 117.640625 C 105.285156 113.074219 116.332031 110.339844 120.769531 94.125 C 121.871094 95.390625 123.074219 96.558594 124.367188 97.605469 L 124.367188 121.695312 L 139.082031 138.234375 L 152.386719 121.695312 L 152.386719 99.992188 C 153.964844 99.125 155.472656 98.109375 156.882812 96.957031 C 164.371094 117.871094 184.695312 113.109375 201.671875 127.578125 C 216.707031 140.398438 221.960938 201.316406 223.355469 222.632812 Z M 117.582031 227.445312 C 117.242188 226.875 116.636719 226.554688 116.015625 226.554688 C 115.699219 226.554688 115.375 226.640625 115.082031 226.816406 C 114.21875 227.335938 113.9375 228.457031 114.453125 229.324219 L 132.601562 259.691406 L 136.410156 262.488281 L 135.734375 257.816406 Z M 117.582031 227.445312 " fill-opacity="1" fill-rule="nonzero"/><g clip-path="url(#f628ed1f7f)"><path fill="#959bff" d="M 237.171875 222.632812 L 189.621094 222.632812 L 179.398438 205.53125 L 125.300781 205.53125 L 125.300781 215.210938 L 144.757812 247.75 L 144.757812 238.066406 L 198.851562 238.066406 L 198.851562 247.75 L 193.683594 247.75 L 193.683594 257.429688 L 139.585938 257.429688 L 120.128906 224.890625 L 120.128906 222.628906 L 110.070312 222.628906 C 100.628906 233.921875 81.023438 233.136719 69.105469 222.628906 L 39.578125 222.628906 C 39.582031 222.632812 39.582031 222.632812 39.582031 222.632812 C 40.855469 224.648438 42.191406 226.621094 43.582031 228.550781 C 43.640625 228.632812 43.699219 228.714844 43.757812 228.796875 C 44.382812 229.65625 45.019531 230.507812 45.664062 231.351562 C 45.75 231.460938 45.832031 231.570312 45.914062 231.679688 C 47.34375 233.527344 48.824219 235.335938 50.359375 237.09375 C 50.410156 237.152344 50.464844 237.210938 50.515625 237.269531 C 51.203125 238.054688 51.90625 238.832031 52.613281 239.597656 C 52.757812 239.753906 52.902344 239.910156 53.046875 240.0625 C 53.722656 240.789062 54.410156 241.507812 55.105469 242.214844 C 55.210938 242.320312 55.308594 242.425781 55.410156 242.527344 C 57.007812 244.140625 58.65625 245.707031 60.34375 247.226562 C 60.53125 247.394531 60.722656 247.5625 60.910156 247.730469 C 61.574219 248.316406 62.242188 248.898438 62.917969 249.46875 C 63.125 249.644531 63.332031 249.820312 63.539062 249.996094 C 64.339844 250.667969 65.148438 251.328125 65.96875 251.976562 C 66.019531 252.015625 66.070312 252.058594 66.121094 252.101562 C 67 252.792969 67.894531 253.472656 68.792969 254.144531 C 69.007812 254.304688 69.226562 254.457031 69.441406 254.617188 C 70.117188 255.113281 70.800781 255.605469 71.488281 256.085938 C 71.773438 256.285156 72.058594 256.484375 72.34375 256.679688 C 73.019531 257.144531 73.699219 257.601562 74.386719 258.050781 C 74.636719 258.214844 74.882812 258.382812 75.132812 258.542969 C 76.046875 259.132812 76.96875 259.710938 77.898438 260.277344 C 78.101562 260.398438 78.304688 260.515625 78.507812 260.636719 C 79.246094 261.078125 79.988281 261.511719 80.734375 261.9375 C 81.078125 262.136719 81.425781 262.328125 81.769531 262.519531 C 82.402344 262.871094 83.039062 263.214844 83.679688 263.554688 C 84.035156 263.746094 84.394531 263.9375 84.753906 264.121094 C 85.503906 264.511719 86.257812 264.890625 87.019531 265.265625 C 87.25 265.378906 87.480469 265.496094 87.714844 265.609375 C 88.660156 266.066406 89.621094 266.511719 90.582031 266.941406 C 90.96875 267.117188 91.355469 267.28125 91.742188 267.449219 C 92.367188 267.722656 92.996094 267.992188 93.628906 268.253906 C 94.058594 268.433594 94.488281 268.609375 94.921875 268.785156 C 95.550781 269.035156 96.183594 269.28125 96.816406 269.523438 C 97.222656 269.679688 97.628906 269.835938 98.035156 269.988281 C 99.007812 270.34375 99.984375 270.691406 100.964844 271.023438 C 101.371094 271.160156 101.785156 271.289062 102.195312 271.421875 C 102.835938 271.632812 103.476562 271.839844 104.125 272.035156 C 104.605469 272.183594 105.09375 272.328125 105.578125 272.46875 C 106.167969 272.644531 106.761719 272.808594 107.355469 272.972656 C 107.847656 273.109375 108.339844 273.246094 108.835938 273.375 C 109.507812 273.550781 110.1875 273.714844 110.867188 273.878906 C 111.542969 274.042969 112.21875 274.199219 112.894531 274.351562 C 113.628906 274.515625 114.359375 274.675781 115.097656 274.824219 C 115.613281 274.929688 116.136719 275.027344 116.660156 275.125 C 117.242188 275.234375 117.828125 275.34375 118.414062 275.441406 C 118.957031 275.535156 119.5 275.628906 120.046875 275.714844 C 120.640625 275.808594 121.238281 275.894531 121.835938 275.980469 C 122.359375 276.054688 122.882812 276.132812 123.40625 276.199219 C 124.425781 276.328125 125.453125 276.449219 126.480469 276.550781 C 127.011719 276.605469 127.542969 276.644531 128.078125 276.695312 C 128.679688 276.746094 129.285156 276.796875 129.890625 276.84375 C 130.457031 276.882812 131.027344 276.917969 131.597656 276.949219 C 132.1875 276.984375 132.773438 277.011719 133.363281 277.039062 C 133.929688 277.0625 134.496094 277.085938 135.0625 277.101562 C 135.746094 277.121094 136.433594 277.128906 137.121094 277.136719 C 137.539062 277.140625 137.957031 277.15625 138.375 277.15625 C 138.792969 277.15625 139.207031 277.140625 139.621094 277.136719 C 140.3125 277.128906 141 277.121094 141.691406 277.101562 C 142.253906 277.085938 142.816406 277.0625 143.378906 277.039062 C 143.972656 277.011719 144.566406 276.984375 145.160156 276.949219 C 145.722656 276.917969 146.289062 276.882812 146.851562 276.84375 C 147.46875 276.796875 148.082031 276.746094 148.695312 276.691406 C 149.21875 276.644531 149.742188 276.605469 150.265625 276.550781 C 151.296875 276.449219 152.328125 276.328125 153.351562 276.199219 C 153.863281 276.132812 154.371094 276.054688 154.882812 275.984375 C 155.496094 275.898438 156.109375 275.808594 156.71875 275.710938 C 157.253906 275.628906 157.785156 275.539062 158.316406 275.445312 C 158.921875 275.34375 159.523438 275.234375 160.121094 275.121094 C 160.628906 275.023438 161.136719 274.929688 161.636719 274.828125 C 162.421875 274.671875 163.199219 274.5 163.972656 274.328125 C 164.582031 274.191406 165.1875 274.050781 165.789062 273.90625 C 166.507812 273.730469 167.222656 273.558594 167.9375 273.371094 C 168.410156 273.246094 168.882812 273.117188 169.355469 272.984375 C 169.972656 272.816406 170.589844 272.640625 171.203125 272.460938 C 171.671875 272.324219 172.136719 272.1875 172.601562 272.046875 C 173.28125 271.835938 173.957031 271.621094 174.628906 271.402344 C 175.007812 271.277344 175.390625 271.160156 175.765625 271.03125 C 176.761719 270.695312 177.75 270.34375 178.734375 269.980469 C 179.113281 269.839844 179.492188 269.695312 179.871094 269.550781 C 180.535156 269.296875 181.199219 269.039062 181.859375 268.773438 C 182.269531 268.609375 182.679688 268.441406 183.089844 268.269531 C 183.75 267.996094 184.40625 267.71875 185.054688 267.433594 C 185.421875 267.273438 185.785156 267.117188 186.148438 266.953125 C 187.121094 266.515625 188.09375 266.066406 189.054688 265.605469 C 189.25 265.507812 189.445312 265.40625 189.644531 265.308594 C 190.441406 264.921875 191.230469 264.523438 192.015625 264.117188 C 192.359375 263.9375 192.699219 263.753906 193.042969 263.574219 C 193.699219 263.222656 194.355469 262.871094 195.003906 262.507812 C 195.335938 262.324219 195.667969 262.136719 196 261.949219 C 196.765625 261.515625 197.527344 261.070312 198.28125 260.617188 C 198.46875 260.503906 198.65625 260.398438 198.84375 260.285156 C 199.777344 259.714844 200.703125 259.136719 201.621094 258.542969 C 201.867188 258.382812 202.109375 258.21875 202.355469 258.058594 C 203.042969 257.605469 203.726562 257.148438 204.40625 256.683594 C 204.695312 256.484375 204.980469 256.285156 205.265625 256.085938 C 205.945312 255.609375 206.621094 255.125 207.292969 254.632812 C 207.515625 254.46875 207.746094 254.304688 207.96875 254.140625 C 208.859375 253.476562 209.746094 252.800781 210.617188 252.113281 C 210.699219 252.050781 210.777344 251.984375 210.855469 251.921875 C 211.640625 251.300781 212.417969 250.667969 213.183594 250.023438 C 213.417969 249.828125 213.652344 249.628906 213.886719 249.429688 C 214.523438 248.890625 215.152344 248.34375 215.777344 247.789062 C 216.003906 247.589844 216.226562 247.394531 216.449219 247.191406 C 217.21875 246.503906 217.976562 245.804688 218.726562 245.09375 C 218.777344 245.046875 218.828125 245 218.875 244.953125 C 219.691406 244.175781 220.492188 243.386719 221.285156 242.589844 C 221.457031 242.417969 221.625 242.238281 221.792969 242.066406 C 222.40625 241.441406 223.011719 240.8125 223.609375 240.171875 C 223.820312 239.949219 224.027344 239.722656 224.238281 239.496094 C 224.839844 238.84375 225.433594 238.183594 226.015625 237.519531 C 226.167969 237.347656 226.324219 237.179688 226.472656 237.003906 C 227.210938 236.160156 227.9375 235.304688 228.648438 234.4375 C 228.730469 234.339844 228.808594 234.238281 228.886719 234.140625 C 229.503906 233.386719 230.109375 232.621094 230.710938 231.847656 C 230.902344 231.601562 231.09375 231.351562 231.28125 231.101562 C 231.78125 230.445312 232.273438 229.785156 232.761719 229.121094 C 232.945312 228.867188 233.128906 228.613281 233.3125 228.359375 C 233.914062 227.523438 234.503906 226.683594 235.082031 225.832031 C 235.125 225.769531 235.167969 225.707031 235.210938 225.644531 C 235.828125 224.730469 236.429688 223.808594 237.019531 222.875 C 237.074219 222.792969 237.128906 222.714844 237.179688 222.632812 Z M 132.601562 259.691406 L 114.453125 229.320312 C 113.9375 228.457031 114.21875 227.335938 115.082031 226.816406 C 115.375 226.640625 115.699219 226.554688 116.015625 226.554688 C 116.636719 226.554688 117.242188 226.871094 117.582031 227.445312 L 135.734375 257.816406 L 136.410156 262.488281 Z M 132.601562 259.691406 " fill-opacity="1" fill-rule="nonzero"/></g><path fill="#bc5331" d="M 170.789062 61.335938 C 171.109375 56.199219 170.574219 51.382812 168.789062 47.203125 C 165.683594 39.933594 158.773438 34.609375 145.894531 32.960938 C 130.449219 30.980469 121.988281 36.28125 117.636719 45.03125 C 116.273438 47.769531 115.308594 50.84375 114.667969 54.144531 C 110.980469 52.058594 105.214844 53.878906 104.46875 59.742188 C 103.636719 66.238281 107.46875 73.660156 112.648438 74.257812 C 113.175781 81.53125 116.066406 88.726562 120.769531 94.128906 C 121.871094 95.394531 123.074219 96.5625 124.367188 97.609375 L 124.367188 121.695312 L 139.078125 138.234375 L 152.386719 121.695312 L 152.386719 99.992188 C 153.964844 99.125 155.46875 98.109375 156.882812 96.957031 C 161.804688 92.957031 165.625 87.394531 167.6875 81.308594 C 172.847656 82.039062 178.425781 75.820312 179.253906 69.320312 C 180.003906 63.460938 174.882812 60.246094 170.789062 61.335938 Z M 137.503906 91.609375 C 129.5 90.40625 127.957031 82.925781 127.957031 82.925781 C 127.957031 82.925781 131.367188 85.632812 138.792969 86.585938 C 146.222656 87.535156 150.207031 85.773438 150.207031 85.773438 C 150.207031 85.773438 146.976562 93.027344 137.503906 91.609375 Z M 85.058594 92.5625 C 85.058594 92.5625 87.785156 104.542969 90.648438 117.664062 C 86.503906 118.082031 79.960938 120.0625 73.652344 122.667969 C 69.558594 124.363281 65.570312 126.320312 62.40625 128.28125 C 61.894531 117.617188 61.632812 108.703125 60.042969 105.621094 C 58.683594 102.996094 51.75 95.53125 45.878906 88.710938 C 40.863281 82.886719 36.628906 77.527344 37.316406 76.046875 C 38.804688 72.835938 50.691406 82.824219 50.691406 82.824219 C 50.691406 82.824219 43.117188 67.929688 41.691406 64.082031 C 40.269531 60.234375 43.433594 59.820312 45.667969 62.472656 C 46.867188 63.898438 50.132812 68.484375 52.902344 72.429688 C 51.160156 67.839844 48.285156 60.230469 47.425781 57.785156 C 46.171875 54.199219 50.546875 52.269531 52.640625 55.660156 C 54.109375 58.03125 59.3125 66.335938 62.300781 71.105469 C 62.421875 71.09375 62.542969 71.09375 62.664062 71.085938 C 62.917969 71.070312 63.175781 71.046875 63.4375 71.046875 C 63.449219 71.046875 63.457031 71.050781 63.46875 71.050781 C 63.421875 70.878906 63.375 70.707031 63.324219 70.527344 C 61.609375 64.378906 58.574219 53.152344 58.753906 51.332031 C 59.003906 48.800781 62.972656 47.855469 64.957031 53.296875 C 65.808594 55.636719 68 60.445312 70.214844 65.160156 C 73.144531 71.394531 76.117188 77.46875 76.117188 77.46875 C 76.117188 77.46875 79.09375 60.277344 85.046875 60.78125 C 85.046875 60.78125 88.011719 74.929688 85.058594 92.5625 Z M 85.058594 92.5625 " fill-opacity="1" fill-rule="nonzero"/><g clip-path="url(#ee65d6518f)"><path fill="#000000" d="M 255.667969 160.171875 C 255.667969 118.273438 233.636719 81.4375 200.570312 60.648438 C 200.761719 59.777344 200.867188 58.871094 200.867188 57.9375 C 200.867188 51.558594 196.125 46.296875 189.980469 45.464844 C 191.199219 43.527344 191.914062 41.242188 191.914062 38.78125 C 191.914062 31.824219 186.277344 26.183594 179.328125 26.183594 C 178.945312 26.183594 178.570312 26.207031 178.199219 26.238281 C 178.027344 26.082031 177.859375 25.925781 177.6875 25.773438 C 176.347656 20.257812 171.394531 16.15625 165.472656 16.15625 C 163.003906 16.15625 160.707031 16.878906 158.761719 18.109375 C 156.984375 13.3125 152.382812 9.890625 146.976562 9.890625 C 144.660156 9.890625 142.5 10.527344 140.636719 11.621094 C 138.332031 9.007812 134.96875 7.351562 131.214844 7.351562 C 126.425781 7.351562 122.261719 10.027344 120.136719 13.972656 C 118.527344 13.222656 116.738281 12.792969 114.847656 12.792969 C 108.398438 12.792969 103.09375 17.652344 102.359375 23.910156 C 102.082031 23.894531 101.808594 23.871094 101.53125 23.871094 C 94.582031 23.871094 88.949219 29.511719 88.949219 36.46875 C 88.949219 36.988281 88.988281 37.496094 89.050781 37.996094 C 89.015625 37.996094 88.980469 37.992188 88.949219 37.992188 C 81.996094 37.992188 76.363281 43.632812 76.363281 50.589844 C 76.363281 51.679688 76.515625 52.726562 76.773438 53.730469 C 73.144531 54.929688 70.25 57.738281 68.925781 61.3125 C 67.363281 57.921875 66.003906 54.851562 65.378906 53.136719 C 64.128906 49.707031 62.089844 48.6875 60.601562 48.875 C 59.347656 49.035156 58.421875 50 58.296875 51.285156 C 58.113281 53.164062 61.085938 64.199219 62.820312 70.425781 C 62.730469 70.5 62.640625 70.578125 62.554688 70.652344 C 59.542969 65.847656 54.46875 57.742188 53.03125 55.417969 C 51.765625 53.375 49.78125 53.117188 48.472656 53.742188 C 47.21875 54.34375 46.273438 55.871094 46.996094 57.9375 C 47.660156 59.839844 49.566406 64.90625 51.199219 69.226562 C 49.03125 66.171875 46.9375 63.273438 46.015625 62.179688 C 44.679688 60.59375 42.898438 59.917969 41.777344 60.574219 C 41.3125 60.84375 40.335938 61.742188 41.261719 64.242188 C 42.386719 67.28125 47.222656 76.96875 49.320312 81.125 C 46.355469 78.789062 40.445312 74.453125 37.972656 75.007812 C 37.476562 75.117188 37.105469 75.410156 36.898438 75.855469 C 36.144531 77.488281 39.539062 82.019531 45.328125 88.765625 C 30.132812 108.566406 21.085938 133.328125 21.085938 160.171875 C 21.085938 182.917969 27.585938 204.167969 38.808594 222.175781 L 38.75 222.175781 L 39.195312 222.875 C 59.105469 254.394531 92.058594 274.214844 128.683594 277.207031 C 129.054688 277.234375 129.425781 277.265625 129.800781 277.292969 C 130.472656 277.34375 131.144531 277.382812 131.820312 277.421875 C 132.304688 277.449219 132.789062 277.46875 133.273438 277.492188 C 133.894531 277.515625 134.515625 277.546875 135.140625 277.5625 C 135.722656 277.578125 136.308594 277.582031 136.894531 277.589844 C 137.386719 277.59375 137.878906 277.613281 138.375 277.613281 C 138.867188 277.613281 139.355469 277.59375 139.847656 277.589844 C 140.4375 277.582031 141.027344 277.578125 141.613281 277.5625 C 142.234375 277.542969 142.851562 277.515625 143.46875 277.492188 C 143.957031 277.46875 144.449219 277.449219 144.9375 277.421875 C 145.605469 277.382812 146.273438 277.339844 146.9375 277.292969 C 147.324219 277.265625 147.707031 277.234375 148.089844 277.203125 C 184.703125 274.207031 217.648438 254.386719 237.566406 222.875 L 238.007812 222.175781 L 237.941406 222.175781 C 249.167969 204.167969 255.667969 182.917969 255.667969 160.171875 Z M 118.710938 74.253906 C 118.710938 72.730469 118.390625 71.308594 117.84375 70.097656 C 117.84375 70.097656 117.847656 70.097656 117.847656 70.097656 C 120.136719 70.097656 122.230469 69.199219 123.859375 67.707031 C 124.304688 68.871094 125.453125 69.789062 126.910156 69.976562 C 128.925781 70.234375 130.742188 69 130.96875 67.222656 C 130.996094 67.035156 131.101562 66.203125 131.164062 65.703125 C 131.542969 65.957031 131.898438 66.238281 132.210938 66.550781 C 133.339844 67.683594 133.867188 69.054688 133.691406 70.410156 L 134.597656 70.527344 C 134.808594 68.882812 134.1875 67.242188 132.855469 65.90625 C 131.554688 64.601562 129.71875 63.738281 127.683594 63.476562 C 127.328125 63.433594 126.976562 63.414062 126.625 63.40625 C 126.96875 62.394531 127.171875 61.304688 127.207031 60.167969 C 132.636719 60.789062 136.902344 63.277344 136.902344 63.277344 L 137.503906 58.574219 C 135.363281 57.644531 133.425781 57.015625 131.679688 56.601562 C 134.359375 54.367188 136.0625 51.007812 136.0625 47.25 C 136.0625 46.519531 135.988281 45.808594 135.867188 45.117188 C 141.695312 44.832031 146.488281 40.59375 147.59375 35.007812 C 148.894531 40.324219 153.667969 44.269531 159.378906 44.269531 C 159.828125 44.269531 160.269531 44.242188 160.707031 44.195312 C 160.453125 45.171875 160.304688 46.191406 160.304688 47.25 C 160.304688 52.054688 163.097656 56.199219 167.140625 58.175781 C 166.550781 59.695312 166.074219 61.511719 165.792969 63.5 C 165.015625 68.972656 165.980469 73.65625 167.949219 74.265625 L 167.453125 76.628906 L 168.347656 76.816406 L 168.886719 74.25 C 170.570312 73.714844 172.28125 70.558594 173.160156 66.367188 C 174.449219 66.832031 175.46875 68.074219 175.207031 70.132812 L 176.109375 70.25 C 176.449219 67.609375 175.019531 66.007812 173.335938 65.457031 C 173.382812 65.171875 173.433594 64.882812 173.472656 64.589844 C 173.613281 63.609375 173.691406 62.660156 173.722656 61.746094 C 175.078125 62.035156 176.363281 62.738281 177.28125 63.78125 C 178.167969 64.792969 179.152344 66.5625 178.804688 69.265625 C 177.980469 75.703125 172.582031 81.542969 167.753906 80.859375 L 167.378906 80.804688 L 167.257812 81.164062 C 162.9375 93.902344 151.75 102.800781 140.050781 102.800781 C 139.035156 102.800781 138.007812 102.734375 136.996094 102.601562 C 125.425781 101.121094 117.675781 91.976562 114.5625 81.878906 C 116.964844 80.875 118.710938 77.84375 118.710938 74.253906 Z M 151.929688 117.238281 L 151.929688 121.535156 L 139.0625 137.527344 L 124.824219 121.519531 L 124.824219 98.59375 C 126.949219 100.1875 129.328125 101.472656 131.941406 102.363281 Z M 104.917969 59.800781 C 105.375 56.226562 107.734375 54.351562 110.195312 53.886719 C 109.304688 55.269531 108.710938 56.902344 108.535156 58.671875 C 107.988281 59.226562 107.449219 60.089844 107.28125 61.429688 L 108.183594 61.542969 C 108.238281 61.121094 108.355469 60.746094 108.5 60.398438 C 108.625 62.828125 109.515625 65.03125 110.914062 66.722656 C 109.515625 67.378906 108.355469 68.722656 107.660156 70.46875 C 105.53125 67.589844 104.453125 63.449219 104.917969 59.800781 Z M 107 132.691406 C 113.421875 132.121094 118.460938 126.726562 118.460938 120.148438 C 118.460938 119.507812 118.394531 118.878906 118.304688 118.261719 C 120.46875 117.640625 122.394531 116.460938 123.910156 114.878906 L 123.910156 121.871094 L 139.097656 138.941406 L 152.839844 121.855469 L 152.839844 104.785156 C 154.011719 106.675781 155.660156 108.238281 157.628906 109.285156 C 157.441406 110.15625 157.332031 111.058594 157.332031 111.984375 C 157.332031 118.941406 162.96875 124.582031 169.917969 124.582031 C 169.9375 124.582031 169.957031 124.578125 169.980469 124.578125 C 170.59375 130.964844 175.960938 135.957031 182.5 135.957031 C 183.84375 135.957031 185.132812 135.742188 186.34375 135.355469 C 188.246094 136.507812 190.464844 137.179688 192.847656 137.179688 C 197.605469 137.179688 201.742188 134.535156 203.882812 130.636719 C 216.691406 147.425781 221.484375 201.742188 222.859375 222.175781 L 193.859375 222.175781 L 193.859375 202.523438 C 195.199219 201.007812 206.417969 187.410156 198.707031 165.289062 L 197.847656 165.589844 C 205.800781 188.417969 193.203125 201.898438 193.074219 202.03125 L 192.945312 202.164062 L 192.945312 222.175781 L 189.882812 222.175781 L 179.789062 205.296875 L 179.398438 205.074219 L 125.300781 205.074219 L 124.847656 205.53125 L 124.847656 214.753906 L 120.128906 214.753906 L 119.671875 215.210938 L 119.671875 222.175781 L 111.011719 222.175781 C 114.863281 217.117188 116.507812 210.28125 115.769531 202.25 C 113.90625 182.050781 108.054688 155.753906 102.777344 137.847656 C 104.609375 136.546875 106.078125 134.769531 107 132.691406 Z M 120.933594 215.667969 L 125.042969 215.667969 L 143.953125 247.292969 L 139.84375 247.292969 Z M 139.128906 247.875 L 139.128906 255.777344 L 120.585938 224.765625 L 120.585938 216.863281 Z M 125.757812 215.085938 L 125.757812 207.183594 L 144.300781 238.195312 L 144.300781 246.097656 Z M 140.039062 248.207031 L 193.226562 248.207031 L 193.226562 256.972656 L 140.039062 256.972656 Z M 192.875 247.292969 L 145.210938 247.292969 L 145.210938 238.523438 L 198.398438 238.523438 L 198.398438 247.292969 Z M 145.015625 237.613281 L 126.105469 205.988281 L 179.140625 205.988281 L 198.050781 237.613281 Z M 94.222656 118.449219 C 98.566406 121.609375 111.941406 170.640625 114.859375 202.335938 C 115.648438 210.886719 113.671875 218.03125 109.152344 222.992188 C 104.828125 227.742188 98.355469 230.355469 90.925781 230.355469 C 90.921875 230.355469 90.921875 230.355469 90.921875 230.355469 C 82.019531 230.355469 73.191406 226.578125 67.308594 220.25 C 59.324219 211.667969 56.285156 145.984375 56.289062 135.113281 C 56.289062 132.257812 63.339844 127.425781 73.828125 123.089844 C 81.261719 120.019531 88.445312 118.035156 92.140625 118.035156 C 93.386719 118.035156 93.960938 118.261719 94.222656 118.449219 Z M 73.816406 72.730469 Z M 47.855469 57.632812 C 47.285156 56 48.042969 54.960938 48.863281 54.566406 C 49.851562 54.097656 51.28125 54.324219 52.253906 55.898438 C 54.109375 58.898438 62.03125 71.535156 63.738281 74.261719 L 57.4375 78.136719 C 56.824219 77.25 55.183594 74.882812 53.308594 72.210938 C 51.5625 67.613281 48.703125 60.050781 47.855469 57.632812 Z M 62.820312 71.078125 C 62.878906 71.074219 62.9375 71.074219 63 71.070312 C 63.050781 71.25 63.097656 71.425781 63.148438 71.597656 C 63.042969 71.429688 62.933594 71.257812 62.820312 71.078125 Z M 42.117188 63.921875 C 41.644531 62.636719 41.6875 61.679688 42.234375 61.363281 C 42.859375 60.996094 44.1875 61.421875 45.316406 62.765625 C 47.296875 65.121094 55.09375 76.351562 56.660156 78.613281 L 50.871094 82.171875 C 49.609375 79.675781 43.378906 67.328125 42.117188 63.921875 Z M 37.726562 76.238281 C 37.816406 76.050781 37.953125 75.945312 38.171875 75.894531 C 40.472656 75.375 47.78125 80.972656 50.398438 83.171875 L 50.738281 82.902344 L 50.925781 83.210938 L 70.085938 71.433594 L 69.609375 70.65625 L 64.683594 73.679688 C 62.914062 67.480469 59.019531 53.296875 59.207031 51.371094 C 59.289062 50.523438 59.894531 49.886719 60.714844 49.78125 C 61.859375 49.636719 63.457031 50.523438 64.523438 53.449219 C 65.847656 57.070312 70.382812 66.640625 73.253906 72.609375 C 71.578125 74.085938 63.171875 82.296875 68.210938 94.425781 L 69.054688 94.078125 C 64.339844 82.722656 71.730469 75.179688 73.664062 73.460938 C 74.855469 75.929688 75.679688 77.613281 75.707031 77.667969 L 76.566406 77.546875 C 77.351562 72.996094 80.3125 61.445312 84.667969 61.226562 C 85.089844 63.527344 87.257812 76.664062 84.609375 92.484375 L 84.613281 92.660156 C 84.664062 92.875 87.300781 104.46875 90.09375 117.269531 C 86.027344 117.785156 79.832031 119.621094 73.480469 122.246094 C 69.785156 123.773438 65.984375 125.597656 62.824219 127.496094 C 62.789062 126.757812 62.753906 126.019531 62.722656 125.300781 C 62.28125 115.796875 61.933594 108.292969 60.445312 105.410156 C 59.4375 103.457031 55.609375 99.109375 51.175781 94.078125 C 45.507812 87.644531 36.945312 77.925781 37.726562 76.238281 Z M 21.996094 160.171875 C 21.996094 133.605469 30.929688 109.09375 45.933594 89.472656 C 47.332031 91.089844 48.859375 92.828125 50.492188 94.683594 C 54.699219 99.460938 58.679688 103.976562 59.636719 105.832031 C 61.03125 108.535156 61.390625 116.324219 61.808594 125.34375 C 61.851562 126.226562 61.894531 127.128906 61.9375 128.039062 C 58.078125 130.46875 55.375 132.980469 55.375 135.113281 C 55.375 142.285156 57.972656 211.558594 66.640625 220.875 C 67.054688 221.320312 67.488281 221.753906 67.929688 222.175781 L 39.886719 222.175781 C 28.5625 204.207031 21.996094 182.945312 21.996094 160.171875 Z M 138.375 276.699219 C 98.515625 276.699219 61.957031 256.675781 40.410156 223.089844 L 68.933594 223.089844 C 74.863281 228.253906 82.863281 231.269531 90.921875 231.269531 C 98.613281 231.269531 105.328125 228.546875 109.824219 223.609375 C 109.980469 223.441406 110.125 223.261719 110.273438 223.089844 L 119.671875 223.089844 L 119.671875 227.632812 L 119.738281 227.867188 L 139.191406 260.40625 L 139.585938 260.628906 L 193.679688 260.628906 L 194.136719 260.171875 L 194.136719 248.207031 L 198.855469 248.207031 L 199.308594 247.75 L 199.308594 238.070312 L 199.246094 237.835938 L 190.429688 223.089844 L 236.347656 223.089844 C 214.792969 256.675781 178.230469 276.699219 138.375 276.699219 Z M 236.867188 222.175781 L 223.792969 222.175781 C 222.453125 201.515625 217.703125 146.542969 204.328125 129.722656 C 205.03125 128.148438 205.429688 126.414062 205.429688 124.582031 C 205.429688 122.703125 205.007812 120.925781 204.273438 119.324219 C 207.585938 117.054688 209.765625 113.246094 209.765625 108.921875 C 209.765625 104.984375 207.960938 101.472656 205.132812 99.160156 C 206.71875 97.054688 207.667969 94.441406 207.667969 91.601562 C 207.667969 88.070312 206.210938 84.878906 203.867188 82.589844 C 204.863281 80.789062 205.429688 78.71875 205.429688 76.515625 C 205.429688 71.59375 202.609375 67.347656 198.503906 65.269531 C 199.300781 64.160156 199.925781 62.917969 200.332031 61.578125 C 233.003906 82.234375 254.753906 118.703125 254.753906 160.171875 C 254.753906 182.945312 248.191406 204.207031 236.867188 222.175781 Z M 136.425781 265.683594 L 136.425781 265.511719 L 136.429688 265.683594 Z M 137.4375 92.058594 C 138.277344 92.183594 139.101562 92.25 139.894531 92.25 C 147.734375 92.25 150.59375 86.023438 150.625 85.960938 L 151.101562 84.882812 L 150.023438 85.355469 C 150 85.367188 147.566406 86.410156 143.0625 86.410156 C 141.710938 86.410156 140.292969 86.316406 138.851562 86.128906 C 131.664062 85.210938 128.273438 82.589844 128.238281 82.566406 L 127.257812 81.789062 L 127.507812 83.015625 C 127.523438 83.09375 129.214844 90.824219 137.4375 92.058594 Z M 138.734375 87.035156 C 140.214844 87.226562 141.671875 87.324219 143.058594 87.324219 C 145.964844 87.324219 148.03125 86.910156 149.214844 86.585938 C 148.113281 88.234375 145.316406 91.335938 139.890625 91.335938 C 139.144531 91.335938 138.367188 91.273438 137.570312 91.15625 C 131.78125 90.289062 129.523438 86.066406 128.753906 83.984375 C 130.304688 84.875 133.550781 86.375 138.734375 87.035156 Z M 136.015625 80.675781 C 135.550781 79.683594 135.746094 78.382812 136.554688 77.105469 L 140.667969 70.609375 L 141.441406 71.097656 L 137.324219 77.59375 C 136.6875 78.601562 136.511719 79.585938 136.84375 80.289062 C 137.089844 80.816406 137.605469 81.144531 138.335938 81.238281 L 142.113281 81.722656 L 142 82.628906 L 138.21875 82.144531 C 137.179688 82.011719 136.398438 81.488281 136.015625 80.675781 Z M 146.976562 64.566406 L 147.574219 59.863281 C 161.164062 57.753906 165.472656 63.707031 165.472656 63.707031 L 165.046875 67.027344 C 157.5 61.609375 146.976562 64.566406 146.976562 64.566406 Z M 162.761719 74.132812 L 161.855469 74.019531 C 162.085938 72.214844 161.0625 70.464844 159.328125 69.308594 C 159.265625 69.804688 159.160156 70.640625 159.132812 70.832031 C 158.90625 72.609375 157.089844 73.839844 155.074219 73.582031 C 153.058594 73.324219 151.609375 71.671875 151.835938 69.894531 C 151.863281 69.699219 151.976562 68.808594 152.039062 68.320312 C 151.5625 68.476562 151.109375 68.671875 150.695312 68.917969 C 149.316406 69.730469 148.460938 70.925781 148.289062 72.28125 L 147.382812 72.164062 C 147.59375 70.523438 148.605469 69.089844 150.230469 68.132812 C 151.820312 67.195312 153.8125 66.824219 155.847656 67.085938 C 160.089844 67.628906 163.1875 70.789062 162.761719 74.132812 Z M 142.785156 250.519531 L 190.480469 250.519531 L 190.480469 251.433594 L 142.785156 251.433594 Z M 142.785156 253.746094 L 190.480469 253.746094 L 190.480469 254.660156 L 142.785156 254.660156 Z M 147.957031 240.839844 L 195.652344 240.839844 L 195.652344 241.753906 L 147.960938 241.753906 L 147.960938 240.839844 Z M 147.957031 244.066406 L 195.652344 244.066406 L 195.652344 244.980469 L 147.960938 244.980469 L 147.960938 244.066406 Z M 136.179688 257.746094 L 136.121094 257.578125 L 117.972656 227.207031 C 117.351562 226.167969 115.886719 225.796875 114.84375 226.421875 C 114.324219 226.734375 113.953125 227.234375 113.804688 227.824219 C 113.65625 228.417969 113.746094 229.03125 114.058594 229.554688 L 114.183594 229.761719 C 114.007812 230 113.878906 230.269531 113.804688 230.566406 C 113.65625 231.15625 113.746094 231.773438 114.058594 232.296875 L 132.207031 262.664062 L 136.140625 265.597656 L 136.425781 265.425781 L 136.425781 265.511719 L 136.425781 265.421875 L 136.859375 265.160156 L 136.496094 262.640625 L 136.859375 262.421875 Z M 132.546875 258.714844 L 114.84375 229.085938 C 114.65625 228.773438 114.601562 228.40625 114.691406 228.050781 C 114.777344 227.695312 115 227.394531 115.316406 227.207031 C 115.949219 226.828125 116.816406 227.050781 117.191406 227.679688 L 134.847656 257.226562 C 134.0625 257.371094 133.121094 257.796875 132.546875 258.714844 Z M 133.15625 259.535156 C 133.628906 258.382812 134.769531 258.136719 135.308594 258.089844 L 135.800781 261.476562 Z M 179.074219 222.953125 L 183.480469 230.324219 L 154.191406 230.324219 L 149.785156 222.953125 Z M 179.074219 222.953125 " fill-opacity="1" fill-rule="nonzero"/></g></svg>