<svg xmlns="http://www.w3.org/2000/svg" xmlns:xlink="http://www.w3.org/1999/xlink" width="370" zoomAndPan="magnify" viewBox="0 0 277.5 284.999983" height="380" preserveAspectRatio="xMidYMid meet" version="1.0"><defs><clipPath id="f1faa11266"><path d="M 19 4.320312 L 254.496094 4.320312 L 254.496094 276.828125 L 19 276.828125 Z M 19 4.320312 " clip-rule="nonzero"/></clipPath><clipPath id="741c53f388"><path d="M 19 41 L 254 41 L 254 276.828125 L 19 276.828125 Z M 19 41 " clip-rule="nonzero"/></clipPath><clipPath id="7a468fe708"><path d="M 19 4.320312 L 254.496094 4.320312 L 254.496094 276.828125 L 19 276.828125 Z M 19 4.320312 " clip-rule="nonzero"/></clipPath></defs><g clip-path="url(#f1faa11266)"><path fill="#ffffff" d="M 254.140625 276.53125 L 254.140625 41.800781 L 164.15625 41.800781 L 164.0625 41.546875 C 158.785156 26.808594 144.429688 16.816406 128.347656 16.679688 L 128.070312 16.679688 L 127.988281 16.417969 C 125.753906 9.492188 119.363281 4.839844 112.085938 4.839844 C 105.652344 4.839844 99.71875 8.601562 96.96875 14.425781 L 96.847656 14.679688 L 96.570312 14.640625 C 95.644531 14.511719 94.71875 14.445312 93.824219 14.445312 C 83.074219 14.445312 74.328125 23.191406 74.328125 33.9375 C 74.328125 36.46875 74.8125 38.9375 75.761719 41.273438 L 75.976562 41.800781 L 19.410156 41.800781 L 19.410156 276.53125 Z M 254.140625 276.53125 " fill-opacity="1" fill-rule="nonzero"/></g><path fill="#d6525d" d="M 111.980469 106.566406 C 110.671875 106.566406 109.320312 106.332031 107.960938 105.898438 C 71.078125 126.957031 64.917969 175.816406 64.027344 185.933594 L 92.964844 185.933594 L 92.964844 192.371094 L 99.820312 192.371094 C 110.960938 192.371094 120.027344 201.433594 120.027344 212.578125 C 120.027344 212.921875 120.015625 213.261719 120 213.601562 L 170.230469 204.113281 L 170.230469 196.84375 L 219.839844 189.316406 L 229.6875 187.785156 C 229.6875 187.785156 226.855469 100.0625 145.90625 96.449219 C 145.90625 103.007812 145.90625 109.300781 145.90625 110.652344 C 145.90625 118.390625 139.632812 124.660156 131.898438 124.660156 C 124.160156 124.660156 117.886719 118.390625 117.886719 110.652344 C 117.886719 110.050781 117.886719 108.339844 117.886719 106.023438 C 115.703125 106.382812 113.695312 106.570312 111.980469 106.566406 Z M 92.964844 199.015625 L 99.820312 199.015625 C 106.941406 199.015625 112.792969 204.53125 113.335938 211.511719 C 109.179688 208.757812 101.804688 204.65625 92.964844 203.125 Z M 92.964844 199.015625 " fill-opacity="1" fill-rule="nonzero"/><path fill="#e8b099" d="M 170.230469 196.84375 L 219.839844 189.316406 L 220.195312 189.261719 C 220.195312 189.261719 218.796875 206.828125 214.671875 220.546875 C 212.753906 226.921875 210.246094 232.464844 207.019531 235.023438 C 193.753906 245.546875 113.308594 246.839844 113.308594 246.839844 C 101.449219 250.210938 78.554688 256.246094 64.519531 245.546875 C 62.339844 243.882812 60.777344 241.015625 61.308594 239.222656 C 61.492188 238.601562 61.925781 238.109375 62.671875 237.84375 C 59.359375 234.160156 56.453125 229.820312 58.199219 228.269531 C 58.765625 227.765625 59.539062 227.636719 60.445312 227.761719 C 58.246094 224.863281 56.867188 222.054688 58.199219 220.871094 C 59.847656 219.40625 63.25 221.074219 66.519531 223.109375 C 62.84375 220.136719 59.199219 216.597656 61.09375 214.917969 C 63.820312 212.492188 70.9375 216.570312 74.714844 218.773438 C 78.84375 221.183594 92.714844 218.929688 92.746094 218.925781 C 92.730469 218.917969 88.488281 216.195312 80.464844 213.351562 C 72.425781 210.503906 71.382812 205.746094 72.292969 204.230469 C 73.199219 202.714844 79.511719 201.738281 89.714844 202.683594 C 90.816406 202.789062 91.902344 202.9375 92.964844 203.125 C 101.804688 204.652344 109.179688 208.757812 113.335938 211.511719 C 115.664062 213.054688 116.988281 214.171875 116.988281 214.171875 L 120 213.601562 L 170.230469 204.113281 Z M 163.804688 61.429688 C 165.125 62.90625 165.984375 64.949219 165.984375 67.519531 C 165.984375 75.457031 160.230469 83.792969 153.90625 83.71875 C 152.769531 87.664062 149.816406 91.226562 145.90625 94.300781 C 145.90625 95.015625 145.90625 95.734375 145.90625 96.449219 C 145.90625 103.007812 145.90625 109.300781 145.90625 110.652344 C 145.90625 118.390625 139.632812 124.660156 131.898438 124.660156 C 124.160156 124.660156 117.886719 118.390625 117.886719 110.652344 C 117.886719 110.050781 117.886719 108.34375 117.886719 106.023438 C 115.703125 106.382812 113.695312 106.570312 111.980469 106.566406 C 110.671875 106.566406 109.320312 106.332031 107.960938 105.898438 C 100.09375 103.394531 91.863281 94.164062 89.703125 83.980469 C 87.621094 74.160156 91.863281 73.695312 90.734375 66.621094 C 90.613281 65.867188 90.367188 63.6875 90.164062 61.429688 C 90.007812 59.679688 89.875 57.886719 89.847656 56.667969 C 89.722656 51.023438 90.527344 46.109375 92.222656 41.972656 C 96.351562 31.914062 105.789062 26.476562 120.238281 26.476562 C 136.75 26.476562 145.714844 32.890625 150.332031 41.972656 C 152.941406 47.097656 154.167969 53.070312 154.570312 59.226562 C 157.621094 57.976562 161.449219 58.796875 163.804688 61.429688 Z M 122.246094 85.996094 L 101.835938 85.914062 C 105.941406 96.710938 117.339844 94.3125 122.246094 85.996094 Z M 122.246094 85.996094 " fill-opacity="1" fill-rule="nonzero"/><g clip-path="url(#741c53f388)"><path fill="#fef08a" d="M 19.582031 41.972656 L 19.582031 61.429688 L 90.164062 61.429688 C 90.007812 59.679688 89.875 57.886719 89.847656 56.667969 C 89.722656 51.023438 90.527344 46.109375 92.222656 41.972656 Z M 154.570312 59.226562 C 154.167969 53.070312 152.941406 47.097656 150.332031 41.972656 L 253.96875 41.972656 L 253.96875 61.429688 L 163.804688 61.429688 C 161.449219 58.796875 157.621094 57.976562 154.570312 59.226562 Z M 43.863281 231.257812 C 43.863281 235.65625 47.425781 239.222656 51.824219 239.222656 L 61.308594 239.222656 C 60.777344 241.015625 62.34375 243.882812 64.523438 245.546875 C 78.554688 256.246094 101.449219 250.210938 113.308594 246.839844 C 113.308594 246.839844 193.753906 245.546875 207.019531 235.023438 C 210.25 232.464844 212.753906 226.921875 214.671875 220.546875 L 253.96875 220.546875 L 253.96875 276.363281 L 19.582031 276.363281 L 19.582031 220.546875 L 43.863281 220.546875 Z M 43.863281 231.257812 " fill-opacity="1" fill-rule="nonzero"/></g><g clip-path="url(#7a468fe708)"><path fill="#000000" d="M 75.410156 41.417969 C 74.46875 39.109375 73.949219 36.585938 73.949219 33.9375 C 73.949219 22.960938 82.847656 14.0625 93.824219 14.0625 C 94.773438 14.0625 95.707031 14.132812 96.625 14.261719 C 99.359375 8.46875 105.253906 4.460938 112.085938 4.460938 C 119.691406 4.460938 126.132812 9.429688 128.351562 16.296875 C 145.058594 16.441406 159.21875 26.890625 164.421875 41.417969 L 254.523438 41.417969 L 254.523438 276.914062 L 19.027344 276.914062 L 19.027344 41.417969 Z M 157.585938 59.207031 C 157.496094 60.585938 157.371094 61.886719 157.226562 63.089844 C 159.308594 63.515625 161.230469 65.214844 161.230469 68.40625 L 160.125 68.40625 C 160.125 65.890625 158.710938 64.550781 157.085938 64.1875 C 156.550781 68.128906 155.878906 70.726562 155.878906 70.726562 L 145.082031 70.726562 C 145.082031 70.726562 145.90625 61.429688 144.253906 53.8125 C 142.597656 46.199219 136.777344 41.003906 127.550781 36.019531 C 126.234375 35.308594 125.042969 34.578125 123.953125 33.84375 C 121.117188 36.582031 117.335938 38.347656 113.144531 38.605469 C 111.042969 47.328125 103.191406 53.8125 93.824219 53.8125 C 92.667969 53.8125 91.535156 53.707031 90.433594 53.519531 C 90.390625 54.539062 90.375 55.582031 90.398438 56.65625 C 90.402344 56.851562 90.410156 57.0625 90.421875 57.285156 C 94.175781 56.386719 99.5625 55.847656 104.992188 57.597656 C 107.75 58.539062 107.496094 63.765625 103.765625 63.089844 C 99.269531 62.285156 94.554688 62.242188 90.8125 62.429688 C 90.988281 64.226562 91.171875 65.828125 91.273438 66.488281 C 95.355469 62.183594 101.679688 63.351562 105.835938 67.277344 C 106.105469 66.71875 106.347656 66.105469 106.550781 65.417969 L 107.613281 65.730469 C 106.792969 68.53125 105.386719 70.191406 104.144531 71.65625 C 102.808594 73.234375 101.75 74.480469 101.75 76.722656 C 101.75 78.804688 103.664062 80.035156 107.777344 80.589844 L 107.628906 81.6875 C 105.898438 81.453125 100.644531 80.742188 100.644531 76.71875 C 100.644531 74.078125 101.933594 72.554688 103.300781 70.941406 C 103.972656 70.144531 104.699219 69.277344 105.335938 68.199219 C 105.242188 68.183594 105.144531 68.148438 105.058594 68.066406 C 103.347656 66.445312 101.238281 65.335938 99.101562 64.980469 C 99.488281 65.679688 99.710938 66.503906 99.710938 67.375 C 99.710938 69.964844 97.785156 72.058594 95.402344 72.058594 C 93.648438 72.058594 92.144531 70.921875 91.476562 69.285156 C 91.429688 71.027344 91.027344 72.347656 90.605469 73.71875 C 89.875 76.101562 89.121094 78.566406 90.246094 83.867188 C 92.660156 95.25 103.222656 106.011719 111.980469 106.011719 L 112.003906 106.566406 L 112.003906 106.011719 C 124.261719 106.011719 149.570312 96.753906 153.375 83.5625 L 153.578125 83.164062 L 153.996094 83.164062 C 159.765625 83.164062 165.433594 75.414062 165.433594 67.519531 C 165.433594 62.136719 161.398438 59.226562 157.585938 59.207031 Z M 185.804688 208.886719 L 170.191406 204.683594 L 117.09375 214.714844 L 116.835938 214.765625 L 116.632812 214.59375 C 116.515625 214.496094 104.71875 204.632812 89.664062 203.234375 C 79.121094 202.257812 73.4375 203.394531 72.769531 204.511719 C 72.558594 204.863281 72.445312 205.644531 72.824219 206.691406 C 73.242188 207.851562 74.835938 210.773438 80.648438 212.828125 C 88.660156 215.667969 92.871094 218.347656 93.046875 218.460938 L 92.75 218.925781 L 92.835938 219.472656 C 92.261719 219.570312 78.695312 221.742188 74.4375 219.253906 C 71.296875 217.421875 63.941406 213.132812 61.460938 215.332031 C 61.222656 215.542969 61.117188 215.789062 61.132812 216.101562 C 61.226562 218.5 67.207031 223.003906 70.417969 225.421875 L 71.265625 226.0625 C 74.859375 228.792969 92.5625 228.675781 92.742188 228.675781 L 92.753906 229.785156 C 92.6875 229.785156 92.488281 229.785156 92.175781 229.785156 C 91.675781 229.785156 90.878906 229.785156 89.886719 229.765625 C 89.832031 229.765625 89.773438 229.765625 89.714844 229.761719 C 84.355469 229.667969 73.550781 229.191406 70.59375 226.945312 L 69.75 226.304688 C 68.554688 225.40625 67.367188 224.496094 66.253906 223.597656 C 63.230469 221.722656 59.9375 220.066406 58.570312 221.285156 C 58.324219 221.5 58.214844 221.816406 58.230469 222.25 C 58.351562 225.351562 64.792969 232.363281 68.234375 234.976562 C 71.828125 237.707031 89.527344 237.589844 89.710938 237.589844 L 89.71875 238.699219 C 89.652344 238.699219 89.453125 238.703125 89.144531 238.703125 C 85.960938 238.703125 71.105469 238.554688 67.5625 235.859375 C 65.890625 234.589844 62.578125 231.460938 60.132812 228.289062 C 59.492188 228.238281 58.953125 228.34375 58.566406 228.6875 C 58.324219 228.902344 58.214844 229.214844 58.230469 229.648438 C 58.351562 232.753906 64.789062 239.761719 68.230469 242.378906 C 71.824219 245.105469 89.527344 244.992188 89.710938 244.992188 L 89.71875 246.097656 C 89.652344 246.097656 89.453125 246.101562 89.140625 246.101562 C 85.960938 246.101562 71.105469 245.953125 67.558594 243.257812 C 66.398438 242.375 64.441406 240.589844 62.535156 238.519531 C 62.269531 238.671875 62.0625 238.871094 61.933594 239.125 C 61.234375 240.519531 62.652344 243.429688 64.855469 245.105469 C 79.113281 255.976562 102.972656 249.203125 113.15625 246.308594 L 113.300781 246.289062 C 114.101562 246.277344 193.707031 244.878906 206.675781 234.59375 C 215.792969 227.359375 219.105469 195.085938 219.582031 189.914062 L 170.78125 197.320312 L 170.78125 203.699219 L 186.089844 207.820312 Z M 112.648438 210.421875 C 111.617188 204.269531 106.257812 199.566406 99.820312 199.566406 L 93.519531 199.566406 L 93.519531 202.660156 C 101.550781 204.144531 108.382812 207.726562 112.648438 210.421875 Z M 61.777344 237.679688 C 59.359375 234.925781 57.207031 231.828125 57.125 229.691406 C 57.09375 228.917969 57.332031 228.300781 57.832031 227.855469 C 58.253906 227.480469 58.761719 227.273438 59.332031 227.199219 C 58.066406 225.398438 57.175781 223.648438 57.125 222.289062 C 57.09375 221.519531 57.332031 220.902344 57.832031 220.457031 C 58.976562 219.4375 60.71875 219.644531 62.679688 220.4375 C 61.109375 218.855469 60.074219 217.382812 60.023438 216.144531 C 60 215.503906 60.242188 214.933594 60.726562 214.503906 C 63.808594 211.769531 71.367188 216.175781 74.996094 218.296875 C 78.113281 220.121094 87.382812 219.105469 91.09375 218.609375 C 89.261719 217.601562 85.601562 215.757812 80.277344 213.875 C 74.246094 211.738281 72.363281 208.691406 71.78125 207.066406 C 71.347656 205.867188 71.363281 204.703125 71.816406 203.941406 C 73 201.972656 80.210938 201.246094 89.765625 202.132812 C 90.660156 202.214844 91.542969 202.328125 92.414062 202.464844 L 92.414062 198.460938 L 99.820312 198.460938 C 107.144531 198.460938 113.179688 204.066406 113.867188 211.214844 C 115.5625 212.339844 116.699219 213.226562 117.140625 213.582031 L 119.457031 213.144531 C 119.464844 212.953125 119.472656 212.765625 119.472656 212.578125 C 119.472656 201.742188 110.65625 192.925781 99.820312 192.925781 L 92.414062 192.925781 L 92.414062 186.488281 L 44.414062 186.488281 L 44.414062 231.257812 C 44.414062 235.34375 47.738281 238.667969 51.824219 238.667969 L 60.929688 238.667969 C 60.9375 238.65625 60.941406 238.640625 60.949219 238.628906 C 61.121094 238.285156 61.382812 237.953125 61.777344 237.679688 Z M 85.40625 185.378906 L 88.9375 154.445312 L 90.039062 154.570312 L 86.523438 185.378906 L 93.519531 185.378906 L 93.519531 191.820312 L 99.820312 191.820312 C 111.269531 191.820312 120.582031 201.128906 120.582031 212.578125 C 120.582031 212.695312 120.574219 212.816406 120.570312 212.933594 L 169.675781 203.65625 L 169.675781 197.671875 L 163.347656 198.65625 L 162.746094 198.746094 L 160.121094 154.519531 L 161.226562 154.453125 L 163.777344 197.46875 L 169.675781 196.550781 L 169.675781 196.367188 L 220.636719 188.636719 L 229.109375 187.320312 C 228.917969 183.882812 227.347656 162.949219 216.945312 142.277344 C 206.992188 122.492188 186.75 99.078125 146.457031 97.035156 L 146.457031 110.652344 C 146.457031 118.683594 139.925781 125.21875 131.894531 125.21875 C 123.867188 125.21875 117.332031 118.683594 117.332031 110.652344 L 117.332031 106.683594 C 115.378906 106.972656 113.578125 107.121094 112.003906 107.121094 L 111.980469 107.121094 C 110.710938 107.121094 109.410156 106.914062 108.109375 106.535156 C 91.753906 115.972656 81.773438 130.699219 75.789062 143.667969 C 67.597656 161.421875 65.246094 179.070312 64.636719 185.378906 Z M 145.351562 110.652344 L 145.351562 97.609375 L 122.390625 120.167969 C 124.824219 122.601562 128.1875 124.109375 131.894531 124.109375 C 139.316406 124.109375 145.351562 118.074219 145.351562 110.652344 Z M 253.414062 42.527344 L 164.808594 42.527344 C 165.949219 46.058594 166.5625 49.8125 166.5625 53.707031 C 166.5625 56.160156 166.3125 58.554688 165.847656 60.875 L 253.414062 60.875 Z M 253.414062 61.984375 L 165.605469 61.984375 C 165.542969 62.253906 165.480469 62.523438 165.414062 62.789062 C 166.117188 64.105469 166.539062 65.683594 166.539062 67.519531 C 166.539062 75.789062 160.59375 83.910156 154.320312 84.257812 C 153.085938 88.132812 150.21875 91.613281 146.457031 94.625 L 146.457031 95.925781 C 187.332031 97.972656 207.859375 121.734375 217.953125 141.8125 C 229.367188 164.523438 230.234375 187.539062 230.242188 187.769531 L 230.257812 188.257812 L 220.710938 189.742188 C 220.464844 192.613281 219.039062 207.636719 215.425781 219.992188 L 253.414062 219.992188 Z M 20.136719 275.808594 L 253.414062 275.808594 L 253.414062 221.101562 L 215.871094 221.101562 C 213.503906 229.859375 210.644531 235.621094 207.367188 238.222656 C 194.195312 248.679688 117.609375 250.09375 113.394531 250.164062 C 107.890625 251.726562 96.539062 254.929688 85.625 254.929688 C 76.777344 254.929688 69.5625 252.851562 64.1875 248.753906 C 62.070312 247.144531 60.226562 244.164062 60.738281 241.996094 L 51.824219 241.996094 C 47.128906 241.996094 43.308594 238.171875 43.308594 233.46875 L 43.308594 231.28125 C 43.308594 231.273438 43.308594 231.265625 43.308594 231.257812 L 43.308594 221.101562 L 20.136719 221.101562 Z M 20.136719 219.992188 L 43.308594 219.992188 L 43.308594 185.378906 L 63.527344 185.378906 C 64.128906 179.078125 66.480469 161.210938 74.769531 143.234375 C 80.730469 130.304688 90.613281 115.652344 106.707031 106.066406 C 98.875 103.042969 91.25 93.929688 89.164062 84.097656 C 87.980469 78.515625 88.816406 75.796875 89.550781 73.398438 C 90.125 71.515625 90.671875 69.738281 90.1875 66.707031 C 90.074219 65.980469 89.851562 64.058594 89.660156 61.984375 L 20.136719 61.984375 Z M 20.136719 60.875 L 89.558594 60.875 C 89.425781 59.316406 89.320312 57.773438 89.292969 56.683594 C 89.269531 55.523438 89.285156 54.398438 89.335938 53.300781 C 83.394531 51.925781 78.472656 47.898438 75.894531 42.527344 L 20.132812 42.527344 L 20.132812 60.875 Z M 49.3125 51.703125 C 49.3125 50.535156 48.367188 49.585938 47.199219 49.585938 C 46.03125 49.585938 45.085938 50.535156 45.085938 51.703125 C 45.085938 52.867188 46.03125 53.816406 47.199219 53.816406 C 48.367188 53.816406 49.3125 52.867188 49.3125 51.703125 Z M 40.65625 51.703125 C 40.65625 50.535156 39.710938 49.585938 38.542969 49.585938 C 37.378906 49.585938 36.429688 50.535156 36.429688 51.703125 C 36.429688 52.867188 37.375 53.816406 38.542969 53.816406 C 39.710938 53.816406 40.65625 52.867188 40.65625 51.703125 Z M 32.003906 51.703125 C 32.003906 50.535156 31.058594 49.585938 29.890625 49.585938 C 28.722656 49.585938 27.777344 50.535156 27.777344 51.703125 C 27.777344 52.867188 28.722656 53.816406 29.890625 53.816406 C 31.058594 53.816406 32.003906 52.867188 32.003906 51.703125 Z M 89.714844 235.796875 C 89.738281 235.796875 89.761719 235.792969 89.773438 235.792969 L 89.714844 235.230469 Z M 122.722656 86.277344 C 120.0625 90.789062 115.472656 93.703125 111.027344 93.703125 C 106.691406 93.703125 103.152344 90.9375 101.316406 86.109375 L 101.03125 85.355469 L 123.210938 85.449219 Z M 102.660156 86.46875 C 104.402344 90.425781 107.347656 92.59375 111.027344 92.59375 C 114.8125 92.59375 118.730469 90.25 121.242188 86.546875 Z M 138.132812 63.136719 C 138.132812 63.136719 138.132812 59.824219 135.796875 58.757812 C 133.53125 57.722656 125.191406 54.871094 116.71875 57.601562 C 113.960938 58.539062 114.21875 63.761719 117.949219 63.09375 C 127.546875 61.371094 138.132812 63.136719 138.132812 63.136719 Z M 123.328125 72.058594 C 125.917969 72.058594 128.011719 69.964844 128.011719 67.375 C 128.011719 66.507812 127.769531 65.691406 127.351562 64.992188 C 129.699219 65.367188 132.023438 66.472656 133.851562 68.066406 C 134.386719 68.53125 135.175781 67.753906 134.636719 67.285156 C 129.585938 62.886719 121.382812 61.941406 117.433594 68.238281 C 117.054688 68.84375 118.011719 69.398438 118.390625 68.796875 C 118.507812 68.609375 118.628906 68.433594 118.75 68.261719 C 119.160156 70.429688 121.050781 72.058594 123.328125 72.058594 Z M 123.328125 72.058594 " fill-opacity="1" fill-rule="nonzero"/></g></svg>