<svg xmlns="http://www.w3.org/2000/svg" xmlns:xlink="http://www.w3.org/1999/xlink" width="370" zoomAndPan="magnify" viewBox="0 0 277.5 284.999983" height="380" preserveAspectRatio="xMidYMid meet" version="1.0"><defs><clipPath id="d92cc4c002"><path d="M 23.101562 20 L 253.6875 20 L 253.6875 271 L 23.101562 271 Z M 23.101562 20 " clip-rule="nonzero"/></clipPath><clipPath id="5d45dddf2c"><path d="M 23.101562 19 L 253.6875 19 L 253.6875 271.296875 L 23.101562 271.296875 Z M 23.101562 19 " clip-rule="nonzero"/></clipPath></defs><g clip-path="url(#d92cc4c002)"><path fill="#ffffff" d="M 138.488281 270.621094 C 137.171875 270.621094 135.78125 270.589844 134.113281 270.527344 L 133.214844 270.492188 C 131.875 270.433594 130.5625 270.351562 129.316406 270.25 C 128.859375 270.214844 128.410156 270.171875 127.957031 270.132812 L 127.707031 270.109375 C 126.976562 270.039062 126.25 269.964844 125.527344 269.882812 C 124.144531 269.726562 122.691406 269.539062 121.210938 269.316406 L 121.003906 269.289062 C 101.164062 266.285156 83.066406 258.371094 67.214844 245.773438 C 58.195312 238.601562 50.285156 230.0625 43.703125 220.386719 C 43.511719 220.105469 43.019531 219.367188 43.019531 219.367188 C 42.386719 218.414062 41.761719 217.449219 41.15625 216.472656 C 40.8125 215.917969 40.46875 215.367188 40.132812 214.808594 C 39.804688 214.261719 39.476562 213.710938 39.15625 213.160156 C 38.617188 212.222656 38.089844 211.28125 37.578125 210.328125 C 37.308594 209.832031 37.046875 209.332031 36.785156 208.828125 C 36.355469 208.003906 35.933594 207.175781 35.527344 206.34375 C 35.230469 205.742188 34.941406 205.136719 34.65625 204.53125 C 34.289062 203.746094 33.929688 202.960938 33.582031 202.167969 L 33.445312 201.859375 C 33.269531 201.46875 33.09375 201.074219 32.925781 200.675781 C 32.492188 199.660156 32.078125 198.632812 31.675781 197.605469 C 31.460938 197.050781 31.25 196.496094 31.042969 195.941406 C 30.730469 195.105469 30.429688 194.269531 30.136719 193.425781 C 29.886719 192.699219 29.644531 191.96875 29.40625 191.238281 C 29.167969 190.503906 28.9375 189.765625 28.714844 189.023438 L 28.589844 188.613281 C 28.464844 188.207031 28.34375 187.796875 28.226562 187.382812 C 27.910156 186.28125 27.617188 185.171875 27.335938 184.058594 C 27.308594 183.941406 27.195312 183.539062 27.171875 183.457031 L 27.03125 182.804688 C 24.921875 174.046875 23.851562 165.023438 23.851562 155.984375 C 23.851562 109.8125 51.386719 68.34375 94 50.332031 L 94.175781 50.257812 L 94.28125 50.097656 C 97.269531 45.550781 101.785156 40.5 108.101562 33.832031 C 116.351562 25.113281 122.648438 23.28125 126.480469 23.28125 C 129.746094 23.28125 131.535156 24.609375 131.554688 24.625 L 131.996094 24.960938 L 132.386719 24.5625 C 132.429688 24.515625 136.875 20.039062 144.902344 20.039062 C 149.488281 20.039062 154.371094 21.480469 159.410156 24.320312 C 169.175781 29.820312 176.765625 38.375 181.976562 49.738281 L 182.082031 49.964844 L 182.308594 50.058594 C 225.328125 67.921875 253.128906 109.5 253.128906 155.984375 C 253.128906 165.019531 252.058594 174.042969 249.949219 182.804688 L 249.765625 183.578125 L 249.773438 183.578125 C 249.761719 183.617188 249.652344 184.019531 249.652344 184.019531 C 249.367188 185.15625 249.066406 186.289062 248.746094 187.414062 C 248.628906 187.820312 248.507812 188.222656 248.386719 188.628906 L 248.285156 188.964844 C 248.046875 189.75 247.800781 190.535156 247.546875 191.3125 C 247.335938 191.972656 247.117188 192.628906 246.890625 193.285156 C 246.578125 194.191406 246.253906 195.089844 245.921875 195.984375 C 245.722656 196.511719 245.523438 197.042969 245.316406 197.570312 C 244.90625 198.625 244.484375 199.667969 244.042969 200.703125 C 243.878906 201.089844 243.707031 201.472656 243.539062 201.855469 L 243.421875 202.121094 C 243.054688 202.957031 242.675781 203.785156 242.289062 204.605469 C 242.03125 205.15625 241.769531 205.703125 241.503906 206.246094 C 241.070312 207.125 240.628906 208 240.175781 208.871094 C 239.925781 209.347656 239.675781 209.828125 239.417969 210.304688 C 238.894531 211.273438 238.359375 212.234375 237.804688 213.1875 C 237.5 213.714844 237.1875 214.242188 236.871094 214.765625 C 236.511719 215.367188 236.144531 215.960938 235.777344 216.546875 C 235.199219 217.476562 234.605469 218.394531 234.003906 219.304688 C 233.75 219.683594 233.503906 220.054688 233.25 220.425781 C 226.675781 230.085938 218.773438 238.613281 209.765625 245.773438 C 193.910156 258.375 175.8125 266.285156 155.976562 269.289062 L 155.839844 269.308594 C 154.308594 269.539062 152.859375 269.726562 151.453125 269.882812 C 150.726562 269.964844 150 270.042969 149.269531 270.109375 L 149.019531 270.132812 C 148.566406 270.175781 148.117188 270.21875 147.664062 270.253906 C 146.417969 270.351562 145.105469 270.433594 143.757812 270.496094 L 142.886719 270.53125 C 141.195312 270.589844 139.804688 270.621094 138.488281 270.621094 Z M 138.488281 270.621094 " fill-opacity="1" fill-rule="nonzero"/></g><path fill="#fef08a" d="M 250.003906 183.398438 L 234.0625 183.398438 C 234.128906 184.121094 234.167969 184.855469 234.167969 185.59375 C 234.167969 196.636719 226.371094 205.859375 215.984375 208.058594 L 215.984375 209.328125 L 61.007812 209.328125 L 61.007812 190.367188 C 55.945312 189.507812 51.449219 186.992188 48.09375 183.398438 L 26.972656 183.398438 C 26.988281 183.449219 27 183.5 27.011719 183.550781 C 27.183594 184.242188 27.359375 184.925781 27.539062 185.609375 C 27.574219 185.730469 27.605469 185.851562 27.636719 185.96875 C 27.824219 186.667969 28.019531 187.359375 28.21875 188.050781 C 28.226562 188.074219 28.230469 188.09375 28.238281 188.117188 C 28.882812 190.335938 29.59375 192.527344 30.367188 194.691406 C 30.398438 194.777344 30.429688 194.863281 30.460938 194.953125 C 30.671875 195.539062 30.890625 196.121094 31.113281 196.703125 C 31.199219 196.925781 31.28125 197.152344 31.367188 197.375 C 31.578125 197.914062 31.789062 198.449219 32.003906 198.984375 C 32.109375 199.242188 32.214844 199.503906 32.324219 199.761719 C 32.535156 200.28125 32.753906 200.796875 32.972656 201.308594 C 33.089844 201.574219 33.207031 201.839844 33.320312 202.101562 C 33.546875 202.613281 33.773438 203.128906 34.003906 203.636719 C 34.105469 203.859375 34.210938 204.078125 34.3125 204.300781 C 34.867188 205.492188 35.4375 206.675781 36.035156 207.847656 C 36.058594 207.898438 36.085938 207.953125 36.109375 208.003906 C 36.34375 208.457031 36.582031 208.90625 36.816406 209.359375 C 36.980469 209.667969 37.144531 209.980469 37.3125 210.292969 C 37.539062 210.714844 37.769531 211.132812 38 211.550781 C 38.1875 211.882812 38.371094 212.21875 38.558594 212.550781 C 38.789062 212.953125 39.019531 213.355469 39.253906 213.753906 C 39.457031 214.101562 39.660156 214.445312 39.867188 214.789062 C 40.097656 215.175781 40.328125 215.558594 40.5625 215.941406 C 40.78125 216.304688 41.007812 216.664062 41.234375 217.023438 C 41.460938 217.382812 41.6875 217.746094 41.917969 218.105469 C 42.195312 218.535156 42.480469 218.960938 42.761719 219.386719 C 43.09375 219.882812 43.425781 220.375 43.761719 220.867188 C 44.074219 221.324219 44.390625 221.78125 44.710938 222.238281 C 44.933594 222.550781 45.160156 222.859375 45.382812 223.171875 C 45.660156 223.554688 45.941406 223.941406 46.222656 224.320312 C 46.457031 224.640625 46.699219 224.953125 46.9375 225.269531 C 47.21875 225.640625 47.503906 226.011719 47.789062 226.382812 C 48.03125 226.691406 48.273438 227.003906 48.519531 227.308594 C 48.8125 227.683594 49.113281 228.050781 49.414062 228.421875 C 49.652344 228.714844 49.894531 229.011719 50.136719 229.304688 C 50.46875 229.707031 50.808594 230.105469 51.148438 230.5 C 51.363281 230.753906 51.574219 231.007812 51.792969 231.253906 C 52.335938 231.882812 52.886719 232.503906 53.445312 233.121094 C 53.605469 233.296875 53.769531 233.46875 53.933594 233.644531 C 54.351562 234.101562 54.769531 234.554688 55.195312 235 C 55.429688 235.25 55.664062 235.492188 55.902344 235.734375 C 56.261719 236.109375 56.625 236.480469 56.988281 236.851562 C 57.246094 237.105469 57.5 237.359375 57.757812 237.613281 C 58.117188 237.96875 58.476562 238.320312 58.839844 238.671875 C 59.097656 238.921875 59.359375 239.167969 59.621094 239.417969 C 60 239.773438 60.378906 240.128906 60.765625 240.480469 C 61.011719 240.710938 61.257812 240.941406 61.507812 241.167969 C 61.960938 241.574219 62.414062 241.976562 62.871094 242.375 C 63.058594 242.539062 63.242188 242.707031 63.433594 242.867188 C 64.070312 243.417969 64.710938 243.964844 65.363281 244.5 C 65.566406 244.667969 65.773438 244.832031 65.976562 245 C 66.433594 245.375 66.894531 245.746094 67.359375 246.113281 C 67.628906 246.324219 67.898438 246.53125 68.164062 246.742188 C 68.578125 247.058594 68.988281 247.378906 69.40625 247.691406 C 69.691406 247.90625 69.976562 248.121094 70.265625 248.335938 C 70.675781 248.636719 71.089844 248.9375 71.503906 249.238281 C 71.792969 249.445312 72.082031 249.652344 72.371094 249.855469 C 72.808594 250.164062 73.246094 250.46875 73.6875 250.769531 C 73.957031 250.953125 74.226562 251.140625 74.496094 251.324219 C 75.054688 251.699219 75.617188 252.066406 76.183594 252.433594 C 76.339844 252.535156 76.496094 252.640625 76.652344 252.738281 C 77.359375 253.195312 78.074219 253.640625 78.792969 254.078125 C 79.0625 254.242188 79.332031 254.398438 79.601562 254.5625 C 80.070312 254.839844 80.542969 255.121094 81.011719 255.394531 C 81.324219 255.574219 81.640625 255.753906 81.953125 255.929688 C 82.394531 256.179688 82.832031 256.425781 83.277344 256.671875 C 83.601562 256.851562 83.929688 257.027344 84.257812 257.203125 C 84.699219 257.4375 85.140625 257.671875 85.585938 257.902344 C 85.914062 258.074219 86.242188 258.246094 86.570312 258.414062 C 87.042969 258.652344 87.515625 258.886719 87.988281 259.117188 C 88.292969 259.265625 88.59375 259.417969 88.898438 259.5625 C 89.601562 259.902344 90.308594 260.230469 91.019531 260.554688 C 91.292969 260.679688 91.566406 260.796875 91.839844 260.921875 C 92.410156 261.171875 92.980469 261.425781 93.554688 261.667969 C 93.890625 261.8125 94.226562 261.949219 94.566406 262.089844 C 95.03125 262.28125 95.496094 262.472656 95.964844 262.660156 C 96.328125 262.804688 96.691406 262.949219 97.058594 263.089844 C 97.507812 263.261719 97.957031 263.433594 98.40625 263.601562 C 98.78125 263.742188 99.15625 263.878906 99.53125 264.015625 C 99.984375 264.179688 100.441406 264.335938 100.898438 264.496094 C 101.269531 264.625 101.640625 264.753906 102.015625 264.878906 C 102.503906 265.042969 102.996094 265.199219 103.492188 265.359375 C 103.832031 265.46875 104.171875 265.582031 104.511719 265.6875 C 105.3125 265.933594 106.113281 266.171875 106.917969 266.402344 C 107.257812 266.5 107.597656 266.585938 107.9375 266.679688 C 108.445312 266.820312 108.949219 266.960938 109.457031 267.09375 C 109.851562 267.195312 110.246094 267.292969 110.640625 267.390625 C 111.101562 267.503906 111.5625 267.617188 112.027344 267.726562 C 112.4375 267.824219 112.847656 267.917969 113.261719 268.011719 C 113.710938 268.113281 114.164062 268.210938 114.617188 268.308594 C 115.035156 268.394531 115.453125 268.484375 115.875 268.566406 C 116.335938 268.660156 116.796875 268.746094 117.261719 268.832031 C 117.671875 268.910156 118.082031 268.988281 118.496094 269.0625 C 119.011719 269.152344 119.527344 269.234375 120.042969 269.316406 C 120.460938 269.386719 120.882812 269.453125 121.300781 269.519531 C 122.082031 269.636719 122.863281 269.746094 123.648438 269.847656 C 124.050781 269.898438 124.460938 269.945312 124.867188 269.992188 C 125.351562 270.050781 125.835938 270.105469 126.324219 270.15625 C 126.757812 270.203125 127.191406 270.242188 127.628906 270.285156 C 128.089844 270.328125 128.554688 270.371094 129.019531 270.410156 C 129.460938 270.445312 129.90625 270.476562 130.351562 270.507812 C 130.816406 270.542969 131.28125 270.570312 131.746094 270.597656 C 132.191406 270.621094 132.632812 270.648438 133.078125 270.667969 C 133.558594 270.691406 134.039062 270.707031 134.515625 270.722656 C 134.949219 270.738281 135.382812 270.757812 135.820312 270.765625 C 136.386719 270.777344 136.957031 270.785156 137.523438 270.789062 C 137.847656 270.789062 138.167969 270.796875 138.492188 270.796875 C 138.8125 270.796875 139.132812 270.789062 139.457031 270.789062 C 140.027344 270.785156 140.59375 270.777344 141.160156 270.765625 C 141.597656 270.757812 142.03125 270.738281 142.464844 270.722656 C 142.945312 270.707031 143.421875 270.691406 143.902344 270.667969 C 144.347656 270.648438 144.789062 270.621094 145.234375 270.597656 C 145.699219 270.570312 146.164062 270.542969 146.628906 270.507812 C 147.074219 270.476562 147.519531 270.445312 147.964844 270.410156 C 148.429688 270.371094 148.890625 270.328125 149.355469 270.285156 C 149.789062 270.246094 150.222656 270.203125 150.65625 270.15625 C 151.144531 270.105469 151.628906 270.050781 152.113281 269.992188 C 152.519531 269.941406 152.929688 269.898438 153.335938 269.847656 C 154.117188 269.746094 154.902344 269.636719 155.679688 269.519531 C 156.101562 269.453125 156.519531 269.386719 156.9375 269.316406 C 157.453125 269.234375 157.972656 269.152344 158.484375 269.0625 C 158.898438 268.988281 159.308594 268.910156 159.722656 268.832031 C 160.183594 268.746094 160.644531 268.660156 161.105469 268.566406 C 161.527344 268.484375 161.945312 268.394531 162.363281 268.308594 C 162.816406 268.210938 163.269531 268.113281 163.71875 268.011719 C 164.132812 267.917969 164.542969 267.824219 164.957031 267.726562 C 165.417969 267.617188 165.878906 267.503906 166.339844 267.390625 C 166.734375 267.292969 167.128906 267.195312 167.523438 267.09375 C 168.03125 266.960938 168.535156 266.820312 169.042969 266.679688 C 169.382812 266.585938 169.722656 266.5 170.0625 266.402344 C 170.867188 266.171875 171.667969 265.933594 172.46875 265.6875 C 172.808594 265.582031 173.148438 265.46875 173.488281 265.359375 C 173.984375 265.199219 174.476562 265.042969 174.96875 264.878906 C 175.339844 264.753906 175.710938 264.625 176.082031 264.496094 C 176.539062 264.335938 176.996094 264.179688 177.449219 264.015625 C 177.824219 263.878906 178.199219 263.742188 178.574219 263.601562 C 179.027344 263.433594 179.476562 263.261719 179.925781 263.089844 C 180.289062 262.945312 180.652344 262.804688 181.015625 262.660156 C 181.484375 262.472656 181.949219 262.28125 182.414062 262.089844 C 182.75 261.949219 183.089844 261.8125 183.429688 261.667969 C 184 261.425781 184.570312 261.171875 185.136719 260.921875 C 185.414062 260.796875 185.691406 260.675781 185.964844 260.550781 C 186.675781 260.230469 187.378906 259.898438 188.082031 259.5625 C 188.386719 259.417969 188.691406 259.265625 188.996094 259.113281 C 189.46875 258.882812 189.941406 258.652344 190.410156 258.414062 C 190.738281 258.246094 191.066406 258.074219 191.398438 257.902344 C 191.839844 257.671875 192.285156 257.4375 192.722656 257.203125 C 193.050781 257.027344 193.378906 256.847656 193.707031 256.667969 C 194.148438 256.425781 194.585938 256.179688 195.027344 255.929688 C 195.339844 255.753906 195.65625 255.574219 195.96875 255.394531 C 196.441406 255.121094 196.910156 254.839844 197.378906 254.5625 C 197.648438 254.398438 197.917969 254.242188 198.1875 254.078125 C 198.90625 253.640625 199.621094 253.195312 200.328125 252.738281 C 200.488281 252.636719 200.644531 252.53125 200.800781 252.429688 C 201.367188 252.066406 201.925781 251.699219 202.484375 251.324219 C 202.757812 251.140625 203.027344 250.953125 203.296875 250.765625 C 203.738281 250.464844 204.175781 250.164062 204.609375 249.855469 C 204.902344 249.652344 205.1875 249.445312 205.476562 249.238281 C 205.890625 248.9375 206.304688 248.636719 206.714844 248.335938 C 207.003906 248.121094 207.289062 247.90625 207.574219 247.691406 C 207.992188 247.378906 208.402344 247.0625 208.816406 246.742188 C 209.082031 246.535156 209.355469 246.324219 209.621094 246.113281 C 210.085938 245.75 210.542969 245.375 211 245.003906 C 211.207031 244.835938 211.417969 244.667969 211.621094 244.5 C 212.269531 243.964844 212.914062 243.421875 213.546875 242.871094 C 213.738281 242.703125 213.925781 242.535156 214.117188 242.367188 C 214.570312 241.972656 215.023438 241.574219 215.472656 241.167969 C 215.722656 240.941406 215.972656 240.707031 216.222656 240.480469 C 216.601562 240.128906 216.984375 239.773438 217.359375 239.417969 C 217.621094 239.171875 217.882812 238.921875 218.144531 238.671875 C 218.503906 238.320312 218.863281 237.96875 219.222656 237.617188 C 219.480469 237.363281 219.738281 237.105469 219.992188 236.847656 C 220.355469 236.484375 220.714844 236.113281 221.074219 235.742188 C 221.3125 235.496094 221.550781 235.25 221.789062 235 C 222.210938 234.558594 222.625 234.109375 223.039062 233.660156 C 223.203125 233.480469 223.371094 233.300781 223.535156 233.121094 C 224.09375 232.503906 224.644531 231.882812 225.191406 231.257812 C 225.40625 231.007812 225.617188 230.757812 225.832031 230.507812 C 226.171875 230.105469 226.511719 229.707031 226.847656 229.304688 C 227.089844 229.011719 227.328125 228.71875 227.566406 228.425781 C 227.867188 228.054688 228.167969 227.683594 228.464844 227.3125 C 228.707031 227.003906 228.953125 226.691406 229.191406 226.382812 C 229.480469 226.011719 229.761719 225.644531 230.042969 225.273438 C 230.28125 224.957031 230.523438 224.640625 230.757812 224.324219 C 231.039062 223.941406 231.316406 223.558594 231.59375 223.175781 C 231.820312 222.863281 232.046875 222.550781 232.273438 222.234375 C 232.585938 221.789062 232.898438 221.339844 233.207031 220.886719 C 233.550781 220.386719 233.894531 219.878906 234.230469 219.367188 C 234.507812 218.949219 234.789062 218.53125 235.0625 218.109375 C 235.292969 217.746094 235.519531 217.382812 235.75 217.019531 C 235.972656 216.660156 236.199219 216.304688 236.417969 215.945312 C 236.65625 215.5625 236.886719 215.175781 237.117188 214.789062 C 237.320312 214.445312 237.527344 214.105469 237.726562 213.761719 C 237.960938 213.359375 238.191406 212.957031 238.421875 212.550781 C 238.609375 212.21875 238.796875 211.886719 238.980469 211.550781 C 239.214844 211.132812 239.445312 210.714844 239.671875 210.292969 C 239.835938 209.984375 240 209.671875 240.164062 209.363281 C 240.398438 208.910156 240.640625 208.460938 240.871094 208.003906 C 240.898438 207.953125 240.921875 207.902344 240.949219 207.851562 C 241.542969 206.679688 242.113281 205.496094 242.667969 204.300781 C 242.769531 204.078125 242.875 203.859375 242.976562 203.640625 C 243.210938 203.128906 243.4375 202.613281 243.664062 202.097656 C 243.777344 201.835938 243.894531 201.578125 244.003906 201.316406 C 244.226562 200.800781 244.445312 200.28125 244.660156 199.761719 C 244.765625 199.503906 244.871094 199.246094 244.976562 198.988281 C 245.191406 198.453125 245.40625 197.914062 245.613281 197.375 C 245.699219 197.152344 245.785156 196.929688 245.871094 196.703125 C 246.089844 196.121094 246.308594 195.539062 246.519531 194.953125 C 246.550781 194.867188 246.582031 194.777344 246.613281 194.691406 C 247.386719 192.53125 248.097656 190.339844 248.742188 188.121094 C 248.75 188.097656 248.757812 188.074219 248.761719 188.054688 C 248.964844 187.363281 249.15625 186.667969 249.34375 185.972656 C 249.375 185.851562 249.410156 185.734375 249.441406 185.613281 C 249.621094 184.929688 249.796875 184.242188 249.96875 183.554688 C 249.980469 183.503906 249.996094 183.453125 250.007812 183.402344 L 250.003906 183.402344 Z M 185.679688 227.128906 L 144.445312 227.167969 L 144.445312 227.160156 L 130.898438 227.167969 L 124.804688 225.378906 L 130.894531 223.582031 L 183.046875 223.546875 L 185.675781 223.542969 C 186.667969 223.542969 187.472656 224.34375 187.472656 225.335938 C 187.472656 226.324219 186.667969 227.128906 185.679688 227.128906 Z M 82.878906 140.414062 C 82.878906 131.730469 89.917969 124.691406 98.601562 124.691406 C 103.917969 124.691406 108.609375 127.335938 111.457031 131.375 L 105.351562 131.375 L 105.351562 140.414062 L 114.328125 140.414062 C 114.328125 149.097656 107.289062 156.136719 98.601562 156.136719 C 89.917969 156.136719 82.878906 149.097656 82.878906 140.414062 Z M 194.113281 155.046875 L 136.148438 155.046875 L 136.148438 146.007812 L 194.113281 146.007812 Z M 119.785156 183.710938 L 119.785156 172.316406 L 109.136719 172.316406 L 109.136719 160.921875 L 131.929688 160.921875 L 131.929688 183.710938 Z M 119.785156 183.710938 " fill-opacity="1" fill-rule="nonzero"/><path fill="#959bff" d="M 234.167969 185.59375 C 234.167969 196.640625 226.371094 205.859375 215.984375 208.058594 L 215.984375 200.867188 C 218.78125 200.621094 221.304688 200.257812 222.648438 199.753906 C 227.394531 197.976562 229.371094 186.394531 225.863281 179.035156 C 223.246094 173.542969 220.25 171.953125 218.898438 171.5 L 218.898438 171.011719 L 215.984375 169.824219 L 215.984375 131.671875 C 224.78125 143.886719 230.105469 158.417969 231.105469 174.140625 C 232.707031 176.914062 233.746094 180.050781 234.0625 183.398438 C 234.128906 184.121094 234.167969 184.855469 234.167969 185.59375 Z M 151.90625 95.871094 C 151.746094 101.371094 150.78125 107.84375 144.898438 110.46875 L 193.699219 110.46875 C 181.988281 102.808594 167.953125 97.625 152.210938 95.710938 C 152.109375 95.765625 152.007812 95.820312 151.90625 95.871094 Z M 125.074219 95.871094 C 124.902344 95.785156 124.734375 95.691406 124.5625 95.601562 C 106.957031 97.433594 92.050781 102.726562 80.066406 110.46875 L 132.078125 110.46875 C 126.199219 107.84375 125.230469 101.371094 125.074219 95.871094 Z M 185.675781 223.542969 L 183.046875 223.546875 L 130.894531 223.582031 L 124.800781 225.378906 L 130.894531 227.167969 L 144.445312 227.160156 L 144.445312 227.167969 L 185.679688 227.128906 C 186.667969 227.128906 187.472656 226.324219 187.46875 225.335938 C 187.472656 224.34375 186.667969 223.542969 185.675781 223.542969 Z M 41.914062 167.734375 C 41.914062 173.789062 44.265625 179.296875 48.09375 183.398438 C 51.453125 186.996094 55.945312 189.507812 61.007812 190.367188 L 61.007812 182.109375 C 58.203125 181.867188 55.675781 181.5 54.328125 180.996094 C 49.582031 179.21875 47.605469 167.636719 51.113281 160.277344 C 53.546875 155.179688 56.300781 153.441406 57.765625 152.855469 L 57.765625 152.480469 L 61.007812 151.15625 L 61.007812 127.675781 C 55.226562 134.976562 50.964844 143.164062 48.28125 151.875 C 44.339844 155.996094 41.914062 161.582031 41.914062 167.734375 Z M 178.105469 187.78125 L 163.050781 161.710938 L 148 187.78125 Z M 181.996094 131.375 L 105.347656 131.375 L 105.347656 140.414062 L 181.996094 140.414062 Z M 96.996094 172.316406 L 96.996094 195.109375 L 119.785156 195.109375 L 119.785156 172.316406 Z M 96.996094 172.316406 " fill-opacity="1" fill-rule="nonzero"/><path fill="#e8b099" d="M 166.289062 59.324219 C 165.945312 54.042969 164.851562 48.507812 162.472656 43.683594 C 158.628906 35.886719 151.410156 29.945312 138.488281 29.945312 C 125.566406 29.945312 118.351562 35.886719 114.507812 43.683594 C 112.125 48.507812 111.035156 54.042969 110.6875 59.324219 C 106.832031 57.75 101.441406 60.242188 101.441406 66.042969 C 101.441406 72.472656 106.101562 79.222656 111.226562 79.15625 C 112.761719 86.742188 118.261719 92.273438 124.5625 95.601562 C 124.734375 95.691406 124.902344 95.785156 125.070312 95.871094 C 125.230469 101.367188 126.199219 107.84375 132.078125 110.46875 L 144.898438 110.46875 C 150.78125 107.84375 151.746094 101.371094 151.90625 95.871094 C 152.007812 95.820312 152.109375 95.765625 152.210938 95.710938 C 158.597656 92.394531 164.199219 86.824219 165.753906 79.15625 C 170.878906 79.222656 175.539062 72.472656 175.539062 66.042969 C 175.539062 60.242188 170.144531 57.75 166.289062 59.324219 Z M 138.480469 87.972656 C 128.238281 87.972656 126.769531 80.957031 126.769531 80.957031 L 150.207031 80.957031 C 150.207031 80.957031 148.722656 87.972656 138.480469 87.972656 Z M 79.863281 175.636719 L 79.882812 175.644531 C 81.023438 175.746094 81.917969 178.984375 78.878906 179.371094 C 78.058594 179.476562 77.054688 179.535156 75.984375 179.558594 L 75.996094 179.578125 C 75.996094 179.578125 75.996094 182.101562 73.582031 182.414062 C 72.027344 182.613281 66.066406 182.554688 61.007812 182.109375 C 58.203125 181.867188 55.675781 181.5 54.328125 180.996094 C 49.582031 179.21875 47.605469 167.636719 51.113281 160.277344 C 53.546875 155.179688 56.300781 153.441406 57.765625 152.855469 L 57.765625 152.480469 L 61.007812 151.15625 L 61.007812 157.4375 C 63.171875 157.957031 65.726562 158.621094 67.328125 159.199219 C 70.949219 160.515625 77.476562 163.757812 80.457031 166.511719 C 82.3125 168.226562 80.921875 171.035156 75.839844 169.683594 C 75.839844 169.683594 80.28125 171.265625 81.609375 172.359375 C 82.648438 173.214844 82.570312 175.164062 79.863281 175.636719 Z M 222.648438 199.753906 C 221.304688 200.257812 218.78125 200.621094 215.984375 200.867188 C 210.921875 201.3125 204.953125 201.371094 203.398438 201.171875 C 200.980469 200.859375 200.980469 198.335938 200.980469 198.335938 L 200.996094 198.316406 C 199.925781 198.292969 198.921875 198.234375 198.097656 198.128906 C 195.058594 197.742188 195.953125 194.503906 197.09375 194.402344 L 197.117188 194.394531 C 194.410156 193.921875 194.332031 191.972656 195.371094 191.117188 C 196.695312 190.023438 201.140625 188.441406 201.140625 188.441406 C 196.054688 189.792969 194.667969 186.984375 196.519531 185.269531 C 199.503906 182.515625 206.027344 179.273438 209.652344 177.957031 C 211.257812 177.375 213.816406 176.714844 215.984375 176.191406 L 215.984375 169.824219 L 218.898438 171.011719 L 218.898438 171.5 C 220.253906 171.953125 223.246094 173.542969 225.863281 179.035156 C 229.371094 186.394531 227.394531 197.976562 222.648438 199.753906 Z M 222.648438 199.753906 " fill-opacity="1" fill-rule="nonzero"/><g clip-path="url(#5d45dddf2c)"><path fill="#000000" d="M 253.753906 155.980469 C 253.753906 108.023438 224.308594 66.816406 182.546875 49.476562 C 177.71875 38.941406 170.414062 29.796875 159.71875 23.769531 C 141.949219 13.757812 131.933594 24.125 131.933594 24.125 C 131.933594 24.125 122.976562 17.199219 107.644531 33.398438 C 100.917969 40.503906 96.671875 45.316406 93.757812 49.753906 C 52.351562 67.253906 23.226562 108.28125 23.226562 155.980469 C 23.226562 165.265625 24.335938 174.296875 26.417969 182.949219 L 26.402344 182.949219 L 26.539062 183.503906 C 26.597656 183.742188 26.667969 183.972656 26.726562 184.210938 C 27.011719 185.332031 27.304688 186.449219 27.621094 187.558594 C 27.777344 188.109375 27.949219 188.65625 28.113281 189.207031 C 28.335938 189.953125 28.570312 190.695312 28.808594 191.433594 C 29.046875 192.167969 29.292969 192.898438 29.542969 193.628906 C 29.839844 194.476562 30.140625 195.320312 30.453125 196.160156 C 30.664062 196.71875 30.875 197.277344 31.089844 197.832031 C 31.496094 198.867188 31.914062 199.898438 32.347656 200.921875 C 32.5625 201.425781 32.785156 201.921875 33.007812 202.421875 C 33.359375 203.21875 33.71875 204.011719 34.089844 204.796875 C 34.375 205.40625 34.664062 206.015625 34.960938 206.621094 C 35.375 207.457031 35.796875 208.292969 36.226562 209.117188 C 36.492188 209.625 36.753906 210.128906 37.027344 210.628906 C 37.542969 211.585938 38.070312 212.535156 38.613281 213.472656 C 38.9375 214.03125 39.265625 214.578125 39.597656 215.132812 C 39.933594 215.691406 40.277344 216.25 40.625 216.804688 C 41.234375 217.785156 41.859375 218.753906 42.5 219.71875 C 42.726562 220.058594 42.953125 220.398438 43.183594 220.738281 C 49.710938 230.332031 57.664062 238.980469 66.824219 246.261719 C 82.734375 258.914062 101.183594 266.921875 120.910156 269.910156 C 120.980469 269.917969 121.050781 269.929688 121.121094 269.941406 C 122.5625 270.15625 124.003906 270.34375 125.457031 270.507812 C 126.1875 270.589844 126.917969 270.664062 127.648438 270.734375 C 128.1875 270.785156 128.726562 270.835938 129.265625 270.878906 C 130.570312 270.980469 131.878906 271.0625 133.191406 271.121094 C 133.492188 271.132812 133.792969 271.144531 134.089844 271.15625 C 135.550781 271.210938 137.015625 271.246094 138.492188 271.246094 C 139.964844 271.246094 141.429688 271.210938 142.890625 271.15625 C 143.191406 271.144531 143.492188 271.132812 143.789062 271.121094 C 145.105469 271.0625 146.414062 270.980469 147.714844 270.878906 C 148.253906 270.835938 148.792969 270.785156 149.332031 270.734375 C 150.066406 270.664062 150.796875 270.589844 151.523438 270.507812 C 152.976562 270.34375 154.417969 270.15625 155.855469 269.941406 C 155.925781 269.929688 156 269.921875 156.070312 269.910156 C 175.796875 266.921875 194.246094 258.914062 210.15625 246.265625 C 219.304688 238.992188 227.25 230.355469 233.769531 220.777344 C 234.027344 220.402344 234.277344 220.027344 234.527344 219.648438 C 235.136719 218.734375 235.730469 217.8125 236.3125 216.878906 C 236.683594 216.289062 237.050781 215.691406 237.410156 215.09375 C 237.726562 214.5625 238.042969 214.035156 238.351562 213.5 C 238.90625 212.542969 239.445312 211.574219 239.96875 210.601562 C 240.230469 210.121094 240.480469 209.640625 240.734375 209.15625 C 241.1875 208.285156 241.632812 207.40625 242.066406 206.519531 C 242.335938 205.972656 242.597656 205.421875 242.855469 204.871094 C 243.246094 204.042969 243.625 203.210938 243.996094 202.375 C 244.207031 201.898438 244.417969 201.425781 244.621094 200.949219 C 245.0625 199.90625 245.488281 198.855469 245.902344 197.796875 C 246.109375 197.269531 246.3125 196.734375 246.511719 196.203125 C 246.847656 195.300781 247.171875 194.398438 247.484375 193.488281 C 247.710938 192.832031 247.929688 192.167969 248.144531 191.507812 C 248.402344 190.722656 248.648438 189.9375 248.886719 189.144531 C 249.042969 188.625 249.203125 188.105469 249.351562 187.585938 C 249.671875 186.453125 249.976562 185.316406 250.261719 184.171875 C 250.320312 183.949219 250.386719 183.730469 250.441406 183.503906 L 250.578125 182.949219 L 250.5625 182.949219 C 252.644531 174.296875 253.753906 165.265625 253.753906 155.980469 Z M 191.964844 110.019531 L 146.660156 110.019531 C 151.273438 106.976562 152.167969 101.15625 152.34375 96.195312 C 167.113281 98.058594 180.546875 102.871094 191.964844 110.019531 Z M 219.828125 174.855469 C 219.699219 174.882812 218.265625 175.191406 216.433594 175.625 L 216.433594 170.542969 C 218.039062 171.167969 222.6875 173.414062 225.460938 179.230469 C 227.910156 184.367188 227.519531 191.195312 225.867188 195.285156 C 225.011719 197.402344 223.8125 198.839844 222.492188 199.335938 C 218.832031 200.707031 205.800781 201.03125 203.457031 200.726562 C 202.011719 200.539062 201.601562 199.414062 201.484375 198.777344 C 201.835938 198.78125 202.191406 198.785156 202.550781 198.785156 C 204.511719 198.785156 206.523438 198.714844 208 198.664062 L 209.101562 198.625 C 211.617188 198.546875 217.183594 197.101562 217.421875 197.039062 L 217.195312 196.171875 C 217.136719 196.1875 211.488281 197.652344 209.074219 197.726562 L 207.964844 197.765625 C 205.273438 197.859375 200.765625 198.023438 198.15625 197.6875 C 196.675781 197.496094 196.46875 196.609375 196.480469 196.09375 C 196.492188 195.40625 196.878906 194.875 197.136719 194.847656 C 197.515625 194.910156 197.925781 194.953125 198.414062 194.953125 C 198.894531 194.953125 199.429688 194.921875 200.027344 194.84375 C 206.515625 194.023438 217.285156 191.984375 217.390625 191.964844 L 217.226562 191.085938 C 217.117188 191.105469 206.375 193.136719 199.914062 193.957031 C 196.273438 194.417969 195.453125 193.21875 195.289062 192.839844 C 195.085938 192.367188 195.230469 191.8125 195.660156 191.460938 C 196.875 190.460938 201.015625 188.960938 201.265625 188.871094 C 204.324219 188.058594 215.566406 184.800781 215.679688 184.765625 L 215.429688 183.90625 C 215.316406 183.9375 204.046875 187.203125 201.023438 188.007812 C 198.210938 188.753906 196.734375 188.144531 196.320312 187.398438 C 196.023438 186.851562 196.214844 186.164062 196.824219 185.601562 C 199.746094 182.902344 206.238281 179.675781 209.804688 178.382812 C 212.941406 177.242188 219.945312 175.75 220.015625 175.734375 Z M 233.722656 185.59375 C 233.722656 196.210938 226.335938 205.128906 216.433594 207.496094 L 216.433594 201.277344 C 219.109375 201.027344 221.496094 200.667969 222.808594 200.175781 C 224.390625 199.582031 225.738281 198.007812 226.699219 195.625 C 228.425781 191.351562 228.832031 184.214844 226.269531 178.84375 C 223.125 172.246094 217.804688 170.050781 216.433594 169.582031 L 216.433594 163.695312 C 226.335938 166.0625 233.722656 174.980469 233.722656 185.59375 Z M 216.433594 162.777344 L 216.433594 133.128906 C 224.332031 144.453125 229.304688 157.789062 230.535156 172.40625 C 227.261719 167.617188 222.257812 164.109375 216.433594 162.777344 Z M 215.535156 112.710938 L 215.535156 175.839844 C 213.4375 176.347656 211.042969 176.976562 209.5 177.539062 C 206 178.804688 199.359375 182.039062 196.214844 184.941406 C 195.304688 185.785156 195.035156 186.917969 195.539062 187.828125 C 195.96875 188.613281 196.832031 189.074219 197.996094 189.203125 C 196.855469 189.703125 195.6875 190.277344 195.085938 190.769531 C 194.351562 191.375 194.101562 192.351562 194.464844 193.195312 C 194.625 193.566406 195.042969 194.183594 196.070312 194.578125 C 195.78125 194.96875 195.589844 195.503906 195.582031 196.078125 C 195.5625 197.132812 196.199219 198.339844 198.042969 198.578125 C 198.765625 198.667969 199.636719 198.722656 200.5625 198.753906 C 200.703125 199.8125 201.394531 201.363281 203.339844 201.617188 C 203.90625 201.6875 205.039062 201.726562 206.496094 201.726562 C 208.976562 201.726562 212.390625 201.613281 215.535156 201.351562 L 215.535156 208.878906 L 61.457031 208.878906 L 61.457031 182.597656 C 64.597656 182.855469 68.007812 182.96875 70.480469 182.96875 C 71.9375 182.96875 73.070312 182.929688 73.636719 182.859375 C 75.582031 182.605469 76.273438 181.050781 76.414062 179.992188 C 77.339844 179.964844 78.210938 179.910156 78.9375 179.816406 C 80.78125 179.578125 81.417969 178.371094 81.398438 177.320312 C 81.386719 176.742188 81.195312 176.210938 80.90625 175.820312 C 81.933594 175.425781 82.351562 174.808594 82.511719 174.4375 C 82.878906 173.59375 82.628906 172.617188 81.890625 172.011719 C 81.292969 171.519531 80.125 170.945312 78.984375 170.445312 C 80.144531 170.316406 81.007812 169.851562 81.441406 169.070312 C 81.941406 168.160156 81.675781 167.027344 80.761719 166.183594 C 77.617188 163.277344 70.976562 160.046875 67.480469 158.777344 C 65.9375 158.21875 63.550781 157.589844 61.457031 157.082031 L 61.457031 110.917969 L 215.535156 110.917969 Z M 60.5625 145.632812 L 60.5625 150.816406 C 59.21875 151.273438 53.867188 153.457031 50.707031 160.085938 C 48.148438 165.457031 48.554688 172.589844 50.277344 176.863281 C 51.242188 179.246094 52.585938 180.824219 54.171875 181.414062 C 55.484375 181.90625 57.878906 182.269531 60.558594 182.519531 L 60.558594 189.832031 C 50.203125 187.808594 42.363281 178.671875 42.363281 167.734375 C 42.363281 156.792969 50.203125 147.65625 60.5625 145.632812 Z M 49.175781 150.382812 C 51.773438 142.417969 55.609375 135.152344 60.5625 128.699219 L 60.5625 144.722656 C 56.230469 145.535156 52.316406 147.539062 49.175781 150.382812 Z M 54.484375 180.574219 C 53.164062 180.082031 51.964844 178.640625 51.109375 176.527344 C 49.457031 172.4375 49.070312 165.605469 51.515625 160.46875 C 54.300781 154.632812 58.972656 152.394531 60.5625 151.777344 L 60.5625 156.867188 C 58.722656 156.433594 57.28125 156.125 57.152344 156.097656 L 56.964844 156.976562 C 57.035156 156.988281 64.039062 158.484375 67.175781 159.621094 C 70.742188 160.914062 77.234375 164.144531 80.15625 166.84375 C 80.765625 167.40625 80.957031 168.09375 80.65625 168.636719 C 80.246094 169.386719 78.769531 169.996094 75.957031 169.25 C 72.933594 168.445312 61.660156 165.179688 61.546875 165.144531 L 61.296875 166.007812 C 61.410156 166.042969 72.660156 169.300781 75.710938 170.113281 C 75.953125 170.199219 80.105469 171.699219 81.324219 172.703125 C 81.75 173.054688 81.894531 173.609375 81.691406 174.082031 C 81.527344 174.460938 80.710938 175.660156 77.066406 175.199219 C 70.605469 174.378906 59.867188 172.347656 59.757812 172.328125 L 59.589844 173.207031 C 59.699219 173.226562 70.464844 175.265625 76.953125 176.085938 C 77.550781 176.164062 78.085938 176.195312 78.566406 176.195312 C 79.054688 176.195312 79.46875 176.152344 79.847656 176.089844 C 80.105469 176.121094 80.492188 176.648438 80.503906 177.335938 C 80.511719 177.847656 80.304688 178.738281 78.824219 178.925781 C 76.214844 179.261719 71.707031 179.101562 69.011719 179.003906 L 67.90625 178.96875 C 65.488281 178.890625 59.839844 177.425781 59.785156 177.410156 L 59.558594 178.277344 C 59.792969 178.339844 65.359375 179.785156 67.875 179.863281 L 68.976562 179.902344 C 70.453125 179.953125 72.464844 180.027344 74.425781 180.027344 C 74.785156 180.027344 75.140625 180.023438 75.492188 180.015625 C 75.375 180.65625 74.964844 181.78125 73.519531 181.96875 C 71.175781 182.269531 58.144531 181.949219 54.484375 180.574219 Z M 132.1875 110.019531 C 126.847656 107.582031 125.761719 101.820312 125.546875 96.605469 C 130.019531 98.722656 134.71875 99.753906 138.488281 99.753906 C 142.261719 99.753906 146.960938 98.722656 151.433594 96.605469 C 151.214844 101.820312 150.132812 107.582031 144.792969 110.019531 Z M 114.820312 60.390625 C 122.78125 57.683594 130.164062 60.453125 132.554688 60.453125 C 134.832031 60.453125 135.675781 57.6875 132.554688 56.253906 C 127.429688 53.902344 118.34375 54.941406 115.230469 56.808594 C 115.910156 52.285156 117.242188 47.738281 119.445312 43.910156 C 123.734375 36.460938 129.179688 33.640625 131.863281 32.648438 C 134.515625 36.765625 140.351562 44.515625 148.710938 48.296875 C 152.835938 50.164062 156.039062 52.699219 158.394531 55.589844 C 154.285156 54.632812 148.25 54.496094 144.425781 56.253906 C 141.300781 57.6875 142.148438 60.453125 144.425781 60.453125 C 146.722656 60.453125 153.65625 57.890625 161.273438 60.117188 C 163.480469 64.804688 163.816406 69.953125 162.347656 74.589844 C 160.808594 79.464844 160.175781 84.222656 161.039062 88.128906 C 155.230469 95.402344 145.304688 98.859375 138.488281 98.859375 C 131.445312 98.859375 121.078125 95.167969 115.371094 87.382812 C 117.109375 84.253906 117.824219 79.949219 116.296875 75.960938 C 115.027344 72.640625 114.324219 66.738281 114.820312 60.390625 Z M 105.386719 60.011719 C 105.390625 61.234375 105.453125 62.429688 105.5625 63.589844 C 104.867188 64.308594 104.394531 65.347656 104.394531 66.757812 L 105.289062 66.757812 C 105.289062 66.011719 105.457031 65.40625 105.714844 64.90625 C 106.164062 68.257812 107.035156 71.238281 108.214844 73.539062 C 109.15625 75.375 109.863281 77.070312 110.417969 78.644531 C 106.007812 78.039062 101.890625 72.097656 101.890625 66.042969 C 101.890625 63.054688 103.425781 61.007812 105.386719 60.011719 Z M 124.453125 96.066406 C 124.515625 96.097656 124.574219 96.125 124.632812 96.15625 C 124.804688 101.125 125.695312 106.96875 130.320312 110.019531 L 81.472656 110.019531 C 93.484375 102.628906 108.035156 97.808594 124.453125 96.066406 Z M 24.121094 155.980469 C 24.121094 109.117188 52.460938 68.75 92.902344 51.101562 C 90.632812 54.847656 89.25 58.460938 88.042969 63.136719 C 85.195312 74.152344 92.304688 79.378906 92.546875 85.359375 C 92.765625 90.6875 84.097656 91.960938 83.25 107.988281 C 82.125 108.644531 81.015625 109.320312 79.925781 110.019531 L 60.5625 110.019531 L 60.5625 127.542969 C 54.894531 134.753906 50.617188 142.910156 47.894531 151.644531 C 43.914062 155.84375 41.46875 161.507812 41.46875 167.734375 C 41.46875 173.539062 43.597656 178.855469 47.109375 182.949219 L 27.34375 182.949219 C 25.242188 174.300781 24.121094 165.269531 24.121094 155.980469 Z M 138.488281 270.347656 C 85.828125 270.347656 40.289062 234.808594 27.546875 183.847656 L 47.917969 183.847656 C 51.242188 187.34375 55.628906 189.820312 60.5625 190.742188 L 60.5625 211.570312 L 216.433594 211.570312 L 216.433594 208.414062 C 226.832031 206.03125 234.617188 196.707031 234.617188 185.59375 C 234.617188 185.007812 234.589844 184.425781 234.546875 183.847656 L 249.433594 183.847656 C 236.691406 234.808594 191.152344 270.347656 138.488281 270.347656 Z M 249.636719 182.949219 L 234.464844 182.949219 C 234.101562 179.734375 233.082031 176.714844 231.546875 174.027344 C 230.542969 158.488281 225.328125 143.90625 216.433594 131.523438 L 216.433594 110.019531 L 193.808594 110.019531 C 193.035156 109.519531 192.257812 109.03125 191.472656 108.554688 C 192.4375 104.78125 192.488281 99.773438 189.332031 94.214844 C 178.421875 75 192.050781 81.464844 187.335938 63.113281 C 186.234375 58.835938 184.828125 54.660156 183.082031 50.667969 C 224.054688 68.082031 252.859375 108.730469 252.859375 155.980469 C 252.859375 165.269531 251.738281 174.300781 249.636719 182.949219 Z M 185.675781 223.09375 L 183.050781 223.097656 L 130.894531 223.136719 L 124.675781 224.949219 L 124.675781 225.8125 L 124.738281 225.828125 L 124.675781 225.847656 L 124.675781 226.707031 L 130.769531 228.496094 L 130.898438 228.515625 L 144.4375 228.503906 L 144.449219 228.515625 L 185.679688 228.476562 C 186.914062 228.476562 187.917969 227.46875 187.917969 226.234375 C 187.917969 226.082031 187.902344 225.929688 187.875 225.785156 C 187.902344 225.640625 187.917969 225.492188 187.917969 225.335938 C 187.917969 224.101562 186.914062 223.09375 185.675781 223.09375 Z M 130.445312 226.570312 L 126.390625 225.378906 L 130.445312 224.183594 Z M 131.34375 226.722656 L 131.34375 224.03125 L 182.601562 223.996094 L 182.601562 226.683594 Z M 185.679688 226.679688 L 183.5 226.683594 L 183.496094 223.992188 L 185.675781 223.992188 C 186.417969 223.992188 187.023438 224.59375 187.023438 225.335938 C 187.023438 226.078125 186.421875 226.679688 185.679688 226.679688 Z M 117.695312 68.28125 L 116.800781 68.28125 C 116.800781 64.890625 120.304688 62.132812 124.609375 62.132812 C 128.917969 62.132812 132.421875 64.890625 132.421875 68.28125 L 131.523438 68.28125 C 131.523438 66.445312 130.273438 64.824219 128.382812 63.886719 C 128.382812 64.390625 128.382812 65.253906 128.382812 65.449219 C 128.382812 66.265625 128.03125 67.019531 127.476562 67.574219 L 121.855469 67.574219 C 121.289062 67.007812 120.957031 66.257812 120.957031 65.449219 C 120.957031 65.246094 120.957031 64.324219 120.957031 63.828125 C 119.003906 64.757812 117.695312 66.40625 117.695312 68.28125 Z M 145.453125 68.28125 L 144.558594 68.28125 C 144.558594 64.890625 148.0625 62.132812 152.367188 62.132812 C 156.675781 62.132812 160.179688 64.890625 160.179688 68.28125 L 159.28125 68.28125 C 159.28125 66.445312 158.027344 64.824219 156.140625 63.886719 C 156.140625 64.390625 156.140625 65.253906 156.140625 65.449219 C 156.140625 66.265625 155.789062 67.019531 155.234375 67.574219 L 149.613281 67.574219 C 149.046875 67.007812 148.71875 66.257812 148.71875 65.449219 C 148.71875 65.246094 148.71875 64.324219 148.71875 63.832031 C 146.761719 64.757812 145.453125 66.40625 145.453125 68.28125 Z M 126.332031 81.050781 C 126.347656 81.125 127.996094 88.421875 138.480469 88.421875 C 148.964844 88.421875 150.628906 81.125 150.644531 81.050781 L 150.761719 80.511719 L 126.21875 80.511719 Z M 149.605469 81.40625 C 149.027344 83.003906 146.664062 87.523438 138.480469 87.523438 C 130.292969 87.523438 127.945312 83.003906 127.371094 81.40625 Z M 134.367188 73.792969 C 134.367188 70.625 136.871094 69.484375 137.816406 69.167969 L 137.816406 65.648438 L 138.714844 65.648438 L 138.714844 69.867188 L 138.359375 69.941406 C 138.234375 69.96875 135.261719 70.644531 135.261719 73.792969 C 135.261719 76.863281 138.359375 76.914062 138.492188 76.914062 L 138.488281 77.808594 C 137.0625 77.808594 134.367188 76.972656 134.367188 73.792969 Z M 98.601562 156.585938 C 107.367188 156.585938 114.511719 149.570312 114.753906 140.863281 L 182.441406 140.863281 L 182.441406 130.925781 L 111.671875 130.925781 C 108.730469 126.886719 103.976562 124.242188 98.601562 124.242188 C 89.683594 124.242188 82.429688 131.496094 82.429688 140.414062 C 82.429688 149.332031 89.683594 156.585938 98.601562 156.585938 Z M 181.546875 131.824219 L 181.546875 139.964844 L 105.796875 139.964844 L 105.796875 131.824219 Z M 98.601562 125.136719 C 103.441406 125.136719 107.753906 127.40625 110.554688 130.925781 L 104.902344 130.925781 L 104.902344 140.863281 L 113.855469 140.863281 C 113.617188 149.078125 106.875 155.691406 98.601562 155.691406 C 90.179688 155.691406 83.328125 148.835938 83.328125 140.414062 C 83.328125 131.992188 90.179688 125.136719 98.601562 125.136719 Z M 147.222656 188.230469 L 178.878906 188.230469 L 163.050781 160.816406 Z M 177.328125 187.332031 L 148.777344 187.332031 L 163.050781 162.609375 Z M 135.699219 155.496094 L 194.5625 155.496094 L 194.5625 145.558594 L 135.699219 145.558594 Z M 136.597656 146.457031 L 193.664062 146.457031 L 193.664062 154.597656 L 136.597656 154.597656 Z M 108.6875 171.867188 L 96.546875 171.867188 L 96.546875 195.558594 L 120.234375 195.558594 L 120.234375 184.160156 L 132.375 184.160156 L 132.375 160.472656 L 108.6875 160.472656 Z M 119.339844 194.660156 L 97.445312 194.660156 L 97.445312 172.765625 L 119.339844 172.765625 Z M 109.585938 161.371094 L 131.480469 161.371094 L 131.480469 183.265625 L 120.234375 183.265625 L 120.234375 171.867188 L 109.585938 171.867188 Z M 109.585938 161.371094 " fill-opacity="1" fill-rule="nonzero"/></g></svg>