<svg xmlns="http://www.w3.org/2000/svg" xmlns:xlink="http://www.w3.org/1999/xlink" width="370" zoomAndPan="magnify" viewBox="0 0 277.5 284.999983" height="380" preserveAspectRatio="xMidYMid meet" version="1.0"><defs><clipPath id="f872b13cd6"><path d="M 21.742188 27.957031 L 255.320312 27.957031 L 255.320312 268.273438 L 21.742188 268.273438 Z M 21.742188 27.957031 " clip-rule="nonzero"/></clipPath></defs><path fill="#ffffff" d="M 138.496094 267.390625 C 138.203125 267.390625 137.914062 267.382812 137.621094 267.378906 L 136.707031 267.363281 C 136.238281 267.359375 135.765625 267.351562 135.296875 267.339844 C 134.777344 267.324219 134.253906 267.304688 133.738281 267.28125 L 133.460938 267.269531 C 132.972656 267.25 132.488281 267.226562 132.007812 267.203125 C 131.351562 267.164062 130.691406 267.125 130.03125 267.074219 C 129.714844 267.050781 128.890625 266.984375 128.890625 266.984375 C 113.792969 265.75 99.34375 261.675781 85.949219 254.878906 L 85.816406 254.808594 L 52.015625 254.808594 L 51.9375 254.726562 L 51.9375 246.46875 L 51.957031 246.394531 L 59.035156 235.925781 L 58.648438 235.554688 C 51.757812 228.988281 45.667969 221.570312 40.546875 213.507812 L 40.074219 212.65625 C 28.613281 194.292969 22.554688 173.125 22.554688 151.445312 C 22.554688 123.941406 32.394531 97.257812 50.265625 76.308594 C 67.9375 55.59375 92.339844 41.6875 118.980469 37.152344 L 119.167969 37.121094 L 119.308594 36.992188 C 125.101562 31.582031 132.71875 28.601562 140.753906 28.601562 C 146.390625 28.601562 151.90625 30.085938 156.710938 32.898438 L 157.1875 33.175781 L 157.53125 32.742188 C 159.285156 30.527344 161.464844 29.402344 164.007812 29.402344 L 164.113281 29.402344 C 166.820312 29.402344 168.292969 30.542969 168.882812 33.09375 L 169.035156 33.742188 L 169.675781 33.558594 C 171.289062 33.101562 172.921875 32.871094 174.535156 32.871094 C 183.097656 32.871094 191.453125 39.296875 198.707031 51.460938 C 198.960938 51.890625 199.199219 52.320312 199.429688 52.75 L 199.511719 52.902344 L 199.65625 52.992188 C 233.957031 74.375 254.4375 111.183594 254.4375 151.445312 C 254.4375 173.128906 248.378906 194.296875 236.917969 212.65625 L 236.3125 213.628906 L 236.359375 213.628906 C 216.664062 244.578125 184.507812 264.019531 148.078125 266.988281 C 148.078125 266.988281 147.28125 267.054688 146.972656 267.074219 C 146.308594 267.125 145.644531 267.164062 144.976562 267.203125 C 144.496094 267.230469 144.019531 267.25 143.542969 267.269531 L 143.390625 267.277344 C 142.828125 267.300781 142.261719 267.324219 141.695312 267.339844 C 141.226562 267.355469 140.757812 267.359375 140.289062 267.363281 L 139.375 267.378906 C 139.082031 267.382812 138.792969 267.390625 138.496094 267.390625 Z M 138.496094 267.390625 " fill-opacity="1" fill-rule="nonzero"/><path fill="#e88972" d="M 93.625 169.589844 C 96.175781 181.234375 101.421875 193.722656 103.4375 208.140625 C 97.320312 207.847656 90.800781 205.167969 89.039062 199.644531 C 87.089844 193.519531 85.671875 187.6875 84.640625 182.542969 C 83.613281 177.402344 82.972656 172.957031 82.578125 169.589844 Z M 184.628906 177.378906 C 174.957031 166.574219 151.429688 149.304688 142.09375 143.871094 C 136.570312 140.660156 121.59375 133.722656 115.222656 132.316406 C 114.800781 132.226562 114.417969 132.15625 114.078125 132.113281 C 108.578125 131.433594 98.558594 133.699219 94.933594 135.835938 C 91.304688 137.972656 93.902344 140.417969 93.902344 140.417969 C 92.347656 140.976562 91.101562 141.523438 90.417969 141.976562 C 87.699219 143.792969 88.050781 145.414062 91.453125 146.085938 C 89.742188 146.960938 88.730469 147.96875 89.121094 148.9375 C 90.246094 151.707031 96.519531 149.117188 100.328125 149.796875 C 104.132812 150.476562 110.523438 155.492188 110.523438 155.492188 L 111.109375 154.710938 L 111.785156 155.273438 C 111.78125 155.273438 111.308594 155.355469 110.523438 155.492188 C 107.742188 155.976562 101.019531 157.183594 96.996094 158.183594 C 91.53125 159.542969 94.128906 162.207031 98.472656 162.207031 C 103.4375 162.207031 111.910156 162.207031 115.222656 162.207031 C 115.445312 162.207031 115.644531 162.207031 115.820312 162.207031 C 118.570312 162.207031 124.539062 167.671875 132.667969 169.140625 C 140.796875 170.605469 163.378906 206.113281 176.421875 209.425781 C 189.464844 212.742188 194.300781 188.179688 184.628906 177.378906 Z M 110.222656 69.1875 C 110.050781 68.089844 109.90625 67.011719 109.789062 65.960938 C 109.78125 65.898438 109.78125 65.84375 109.769531 65.777344 C 109.632812 64.355469 109.542969 62.976562 109.515625 61.652344 C 109.507812 61.445312 109.5 61.234375 109.5 61.035156 C 109.351562 45.167969 117.6875 36.308594 134.390625 36.308594 C 145.789062 36.308594 152.800781 40.046875 156.984375 45.675781 C 160.566406 50.488281 162.085938 56.691406 162.507812 63.132812 C 165.996094 61.703125 170.710938 63.578125 171.671875 68.183594 C 171.785156 68.726562 171.855469 69.300781 171.855469 69.921875 C 171.855469 76.425781 167.140625 83.253906 161.964844 83.1875 C 161.03125 86.421875 158.613281 89.335938 155.410156 91.855469 C 155.410156 94.496094 155.410156 97.554688 155.410156 100.011719 C 155.410156 102.640625 155.410156 104.582031 155.410156 104.582031 L 132.464844 119.792969 C 132.464844 119.792969 132.464844 110.917969 132.464844 104.582031 C 132.464844 104.378906 132.464844 104.085938 132.464844 103.726562 C 132.464844 103.136719 132.464844 102.359375 132.464844 101.453125 C 130.675781 101.75 129.03125 101.90625 127.625 101.90625 C 120.371094 101.90625 111.457031 93.191406 109.378906 83.40625 C 107.675781 75.363281 111.148438 74.984375 110.222656 69.1875 Z M 119.316406 84.988281 C 122.679688 93.832031 132.015625 91.863281 136.03125 85.054688 Z M 75.007812 148.703125 C 74.9375 148.695312 74.867188 148.691406 74.800781 148.683594 C 74.871094 148.679688 74.9375 148.675781 75.007812 148.671875 C 78.945312 148.378906 83.21875 147.355469 83.605469 145.015625 C 83.929688 143.058594 79.089844 142.214844 75.007812 142.203125 C 74.535156 142.199219 74.074219 142.207031 73.632812 142.226562 C 74.082031 142.121094 74.539062 141.996094 75.007812 141.859375 C 78.574219 140.800781 82.421875 138.914062 82.339844 136.488281 C 82.242188 133.691406 73.324219 135.105469 70.335938 136.65625 C 70.035156 136.816406 69.792969 136.972656 69.625 137.128906 C 68.066406 138.597656 68.234375 142.128906 70.878906 142.558594 C 70.480469 142.652344 70.152344 142.761719 69.925781 142.890625 C 67.816406 144.078125 67.367188 148.046875 70.871094 148.667969 C 70.410156 148.726562 70.03125 148.8125 69.769531 148.933594 C 67.40625 150 66.65625 154.414062 70.996094 154.925781 C 72.183594 155.066406 73.585938 155.148438 75.007812 155.140625 C 78.757812 155.117188 82.652344 154.421875 83.210938 152.253906 C 83.699219 150.351562 79.046875 149.089844 75.007812 148.703125 Z M 75.007812 148.703125 " fill-opacity="1" fill-rule="nonzero"/><path fill="#fef08a" d="M 195.359375 213.445312 C 186.140625 221.433594 172.035156 221.429688 163.816406 213.445312 L 89.402344 213.445312 C 83.234375 208.015625 79.574219 200.230469 81.210938 190.957031 C 81.808594 187.847656 83.003906 185.027344 84.640625 182.542969 C 85.671875 187.6875 87.089844 193.519531 89.039062 199.644531 C 90.796875 205.164062 97.320312 207.847656 103.433594 208.140625 C 101.421875 193.722656 96.175781 181.234375 93.625 169.585938 L 108.699219 169.585938 C 112.300781 169.585938 115.222656 166.667969 115.222656 163.066406 L 115.222656 162.207031 C 115.445312 162.207031 115.644531 162.207031 115.820312 162.207031 C 118.570312 162.207031 124.539062 167.671875 132.667969 169.140625 C 140.800781 170.605469 163.378906 206.113281 176.421875 209.425781 C 189.464844 212.742188 194.300781 188.179688 184.628906 177.378906 C 174.957031 166.574219 151.429688 149.304688 142.09375 143.871094 C 136.570312 140.660156 121.59375 133.722656 115.222656 132.316406 L 115.222656 125.945312 L 105.351562 125.945312 C 109.230469 120.792969 113.242188 116.472656 116.28125 113.367188 C 120.414062 109.144531 126.101562 105.75 132.464844 103.726562 C 132.464844 104.085938 132.464844 104.378906 132.464844 104.582031 C 132.464844 110.921875 132.464844 119.792969 132.464844 119.792969 L 155.410156 104.582031 C 155.410156 104.582031 155.410156 102.640625 155.410156 100.011719 C 194.980469 109.574219 201.859375 156.128906 204.238281 188.628906 C 205.078125 200.117188 201.203125 208.382812 195.359375 213.445312 Z M 154.261719 219.96875 C 153.464844 219.457031 152.546875 219.472656 152.207031 220.003906 L 151.300781 221.410156 L 133.332031 249.34375 L 132.667969 253.535156 L 136.203125 251.195312 L 140.871094 243.9375 L 140.878906 243.945312 L 155.078125 221.855469 C 155.421875 221.324219 155.054688 220.480469 154.261719 219.96875 Z M 154.261719 219.96875 " fill-opacity="1" fill-rule="nonzero"/><path fill="#ff5757" d="M 156.988281 45.675781 L 154.941406 37.382812 C 154.941406 37.382812 155.027344 37.046875 155.21875 36.523438 C 155.980469 34.4375 158.4375 29.21875 164.007812 29.21875 C 170.839844 29.152344 168.722656 36.476562 169.933594 38.894531 C 170.09375 39.21875 170.398438 39.546875 170.792969 39.875 C 173.3125 42.011719 179.78125 44.421875 180.054688 48.859375 C 180.515625 56.414062 174.535156 56.125 175.796875 58.609375 C 178.3125 63.5625 176.722656 66.949219 171.671875 68.183594 C 170.707031 63.578125 165.996094 61.703125 162.507812 63.132812 C 162.085938 56.6875 160.566406 50.488281 156.988281 45.675781 Z M 111.109375 154.710938 L 110.523438 155.492188 C 111.3125 155.355469 111.785156 155.273438 111.785156 155.273438 Z M 52.84375 147.765625 C 52.84375 138.640625 60.265625 131.21875 69.390625 131.21875 L 75.003906 131.21875 L 75.003906 125.945312 L 115.222656 125.945312 L 115.222656 132.316406 C 114.804688 132.226562 114.417969 132.15625 114.078125 132.113281 C 108.582031 131.433594 98.558594 133.699219 94.933594 135.835938 C 91.304688 137.972656 93.90625 140.417969 93.90625 140.417969 C 92.351562 140.976562 91.101562 141.523438 90.417969 141.976562 C 87.699219 143.792969 88.050781 145.414062 91.453125 146.085938 C 89.742188 146.960938 88.730469 147.96875 89.125 148.9375 C 90.246094 151.707031 96.519531 149.117188 100.328125 149.796875 C 104.132812 150.476562 110.523438 155.492188 110.523438 155.492188 C 107.742188 155.976562 101.019531 157.183594 96.996094 158.183594 C 91.53125 159.542969 94.128906 162.207031 98.472656 162.207031 C 103.441406 162.207031 111.910156 162.207031 115.222656 162.207031 L 115.222656 163.066406 C 115.222656 166.667969 112.300781 169.589844 108.699219 169.589844 L 81.527344 169.589844 C 78.351562 169.589844 75.710938 167.320312 75.125 164.316406 L 69.390625 164.316406 C 60.265625 164.3125 52.84375 156.890625 52.84375 147.765625 Z M 58.285156 147.765625 C 58.285156 153.890625 63.265625 158.875 69.390625 158.875 L 75.007812 158.875 L 75.007812 155.140625 C 78.757812 155.117188 82.652344 154.421875 83.210938 152.257812 C 83.699219 150.351562 79.046875 149.089844 75.007812 148.703125 L 75.007812 148.671875 C 78.945312 148.378906 83.21875 147.355469 83.605469 145.015625 C 83.929688 143.058594 79.089844 142.214844 75.007812 142.203125 L 75.007812 141.859375 C 78.574219 140.800781 82.421875 138.914062 82.339844 136.488281 C 82.242188 133.691406 73.324219 135.105469 70.335938 136.65625 L 69.390625 136.65625 C 63.265625 136.65625 58.285156 141.640625 58.285156 147.765625 Z M 236.691406 213.445312 C 236.683594 213.457031 236.675781 213.46875 236.667969 213.480469 C 235.417969 215.460938 234.105469 217.398438 232.738281 219.292969 C 232.65625 219.402344 232.578125 219.511719 232.496094 219.621094 C 231.902344 220.441406 231.296875 221.253906 230.679688 222.058594 C 230.574219 222.191406 230.472656 222.328125 230.367188 222.460938 C 228.960938 224.277344 227.503906 226.054688 225.996094 227.78125 C 225.917969 227.871094 225.839844 227.957031 225.765625 228.042969 C 225.109375 228.792969 224.441406 229.53125 223.765625 230.261719 C 223.601562 230.4375 223.4375 230.613281 223.273438 230.789062 C 222.628906 231.476562 221.972656 232.160156 221.3125 232.835938 C 221.183594 232.964844 221.058594 233.09375 220.933594 233.222656 C 220.128906 234.035156 219.3125 234.835938 218.484375 235.621094 C 218.476562 235.628906 218.46875 235.636719 218.460938 235.644531 C 217.675781 236.390625 216.878906 237.121094 216.074219 237.84375 C 215.867188 238.03125 215.660156 238.214844 215.449219 238.398438 C 214.816406 238.960938 214.179688 239.511719 213.535156 240.058594 C 213.308594 240.25 213.082031 240.445312 212.851562 240.636719 C 212.09375 241.269531 211.328125 241.894531 210.550781 242.507812 C 210.464844 242.578125 210.378906 242.648438 210.292969 242.71875 C 209.429688 243.394531 208.558594 244.058594 207.675781 244.714844 C 207.4375 244.890625 207.199219 245.0625 206.957031 245.238281 C 206.3125 245.710938 205.660156 246.179688 205.003906 246.640625 C 204.703125 246.851562 204.402344 247.058594 204.097656 247.265625 C 203.453125 247.710938 202.800781 248.144531 202.144531 248.574219 C 201.875 248.753906 201.605469 248.933594 201.332031 249.109375 C 200.4375 249.6875 199.535156 250.253906 198.621094 250.808594 C 198.390625 250.949219 198.15625 251.082031 197.925781 251.21875 C 197.222656 251.636719 196.519531 252.050781 195.808594 252.457031 C 195.449219 252.660156 195.085938 252.859375 194.726562 253.0625 C 194.117188 253.398438 193.507812 253.730469 192.894531 254.054688 C 192.519531 254.253906 192.148438 254.453125 191.773438 254.648438 C 191.058594 255.015625 190.339844 255.375 189.621094 255.730469 C 189.347656 255.863281 189.074219 256.003906 188.800781 256.136719 C 187.878906 256.578125 186.949219 257.007812 186.015625 257.429688 C 185.613281 257.609375 185.210938 257.78125 184.808594 257.957031 C 184.207031 258.21875 183.601562 258.476562 182.992188 258.730469 C 182.554688 258.910156 182.113281 259.09375 181.667969 259.269531 C 181.0625 259.511719 180.453125 259.75 179.839844 259.980469 C 179.417969 260.140625 179 260.308594 178.578125 260.460938 C 177.621094 260.8125 176.660156 261.15625 175.691406 261.480469 C 175.265625 261.625 174.839844 261.757812 174.414062 261.894531 C 173.796875 262.097656 173.175781 262.296875 172.554688 262.488281 C 172.0625 262.636719 171.570312 262.78125 171.074219 262.925781 C 170.5 263.09375 169.925781 263.257812 169.347656 263.414062 C 168.847656 263.554688 168.347656 263.691406 167.847656 263.820312 C 167.195312 263.992188 166.542969 264.152344 165.886719 264.308594 C 165.179688 264.480469 164.46875 264.644531 163.757812 264.804688 C 163.054688 264.960938 162.351562 265.113281 161.640625 265.257812 C 161.117188 265.363281 160.589844 265.460938 160.0625 265.558594 C 159.492188 265.667969 158.921875 265.769531 158.347656 265.871094 C 157.800781 265.964844 157.253906 266.054688 156.707031 266.140625 C 156.125 266.234375 155.539062 266.316406 154.953125 266.402344 C 154.425781 266.476562 153.898438 266.554688 153.367188 266.621094 C 152.359375 266.75 151.34375 266.867188 150.324219 266.972656 C 149.792969 267.023438 149.253906 267.066406 148.722656 267.113281 C 148.125 267.164062 147.53125 267.214844 146.933594 267.257812 C 146.367188 267.300781 145.796875 267.335938 145.226562 267.367188 C 144.648438 267.402344 144.066406 267.429688 143.480469 267.453125 C 142.917969 267.476562 142.355469 267.5 141.789062 267.515625 C 141.109375 267.535156 140.425781 267.542969 139.746094 267.550781 C 139.328125 267.554688 138.914062 267.570312 138.496094 267.570312 C 138.082031 267.570312 137.675781 267.554688 137.261719 267.550781 C 136.574219 267.542969 135.886719 267.535156 135.203125 267.515625 C 134.640625 267.5 134.085938 267.476562 133.527344 267.453125 C 132.933594 267.429688 132.339844 267.398438 131.75 267.367188 C 131.191406 267.332031 130.632812 267.300781 130.074219 267.257812 C 129.457031 267.214844 128.84375 267.164062 128.226562 267.109375 C 127.714844 267.0625 127.195312 267.023438 126.683594 266.972656 C 125.652344 266.867188 124.628906 266.75 123.605469 266.617188 C 123.105469 266.554688 122.609375 266.480469 122.109375 266.410156 C 121.488281 266.320312 120.871094 266.230469 120.253906 266.136719 C 119.730469 266.050781 119.207031 265.964844 118.6875 265.875 C 118.078125 265.769531 117.472656 265.660156 116.867188 265.546875 C 116.371094 265.453125 115.875 265.363281 115.382812 265.261719 C 114.582031 265.101562 113.785156 264.925781 112.992188 264.75 C 112.425781 264.621094 111.863281 264.492188 111.300781 264.355469 C 110.566406 264.179688 109.832031 264 109.105469 263.808594 C 108.644531 263.6875 108.183594 263.5625 107.726562 263.4375 C 107.097656 263.265625 106.472656 263.085938 105.847656 262.90625 C 105.394531 262.773438 104.941406 262.640625 104.492188 262.5 C 103.796875 262.289062 103.109375 262.066406 102.417969 261.84375 C 102.0625 261.726562 101.699219 261.613281 101.34375 261.492188 C 100.34375 261.15625 99.355469 260.804688 98.371094 260.441406 C 98.007812 260.308594 97.648438 260.167969 97.289062 260.03125 C 96.609375 259.773438 95.933594 259.511719 95.257812 259.242188 C 94.863281 259.082031 94.46875 258.921875 94.074219 258.757812 C 93.398438 258.476562 92.730469 258.191406 92.0625 257.902344 C 91.71875 257.75 91.375 257.601562 91.03125 257.449219 C 90.050781 257.007812 89.078125 256.558594 88.113281 256.09375 C 87.945312 256.015625 87.785156 255.929688 87.617188 255.847656 C 86.792969 255.445312 85.972656 255.035156 85.160156 254.613281 C 84.835938 254.445312 84.515625 254.273438 84.195312 254.101562 C 83.621094 253.796875 83.050781 253.488281 82.480469 253.171875 C 95.796875 253.171875 108.710938 253.171875 110.160156 253.171875 C 113.257812 253.171875 114.816406 253.171875 114.816406 253.171875 L 132.675781 226.753906 L 132.675781 219.949219 L 69.613281 219.949219 L 58.824219 235.914062 C 58.730469 235.828125 58.636719 235.742188 58.546875 235.65625 C 58.53125 235.644531 58.515625 235.628906 58.503906 235.617188 C 57.679688 234.835938 56.871094 234.039062 56.074219 233.234375 C 55.925781 233.085938 55.78125 232.933594 55.636719 232.785156 C 55 232.140625 54.375 231.488281 53.753906 230.824219 C 53.5625 230.621094 53.371094 230.417969 53.183594 230.210938 C 52.558594 229.535156 51.941406 228.851562 51.332031 228.160156 C 51.207031 228.015625 51.078125 227.875 50.953125 227.734375 C 50.207031 226.878906 49.472656 226.015625 48.753906 225.136719 C 48.707031 225.082031 48.664062 225.023438 48.617188 224.96875 C 47.96875 224.175781 47.328125 223.371094 46.699219 222.5625 C 46.527344 222.339844 46.359375 222.117188 46.1875 221.894531 C 45.667969 221.214844 45.152344 220.523438 44.648438 219.832031 C 44.484375 219.605469 44.320312 219.382812 44.15625 219.160156 C 43.523438 218.277344 42.894531 217.386719 42.285156 216.484375 C 42.277344 216.476562 42.273438 216.464844 42.265625 216.457031 C 41.640625 215.53125 41.03125 214.597656 40.429688 213.65625 C 40.386719 213.585938 40.339844 213.515625 40.292969 213.445312 L 163.8125 213.445312 C 172.03125 221.425781 186.140625 221.429688 195.359375 213.445312 Z M 154.261719 219.96875 C 153.464844 219.457031 152.546875 219.472656 152.207031 220.003906 L 151.300781 221.410156 L 133.332031 249.34375 L 132.667969 253.535156 L 136.203125 251.195312 L 140.871094 243.9375 L 140.878906 243.945312 L 155.078125 221.855469 C 155.421875 221.324219 155.054688 220.480469 154.261719 219.96875 Z M 154.261719 219.96875 " fill-opacity="1" fill-rule="nonzero"/><g clip-path="url(#f872b13cd6)"><path fill="#000000" d="M 255.074219 151.445312 C 255.074219 109.71875 233.035156 73.050781 199.992188 52.449219 C 199.753906 52.011719 199.511719 51.570312 199.25 51.132812 C 190.253906 36.046875 179.777344 30.03125 169.503906 32.949219 C 168.988281 30.734375 167.722656 28.769531 164.113281 28.769531 C 164.078125 28.769531 164.042969 28.769531 164.011719 28.769531 C 160.757812 28.769531 158.523438 30.46875 157.035156 32.347656 C 152.28125 29.566406 146.710938 27.964844 140.753906 27.964844 C 132.257812 27.964844 124.550781 31.230469 118.875 36.527344 C 63.902344 45.882812 21.917969 93.847656 21.917969 151.445312 C 21.917969 174.023438 28.378906 195.117188 39.535156 212.992188 L 39.46875 212.992188 L 39.910156 213.691406 C 45.15625 221.980469 51.316406 229.449219 58.210938 236.015625 L 51.378906 246.121094 L 51.300781 246.375 L 51.300781 254.988281 L 51.753906 255.441406 L 85.664062 255.441406 C 98.957031 262.195312 113.578125 266.371094 128.839844 267.617188 C 129.222656 267.648438 129.605469 267.679688 129.988281 267.710938 C 130.648438 267.757812 131.308594 267.800781 131.972656 267.835938 C 132.460938 267.863281 132.949219 267.882812 133.433594 267.90625 C 134.050781 267.929688 134.664062 267.957031 135.277344 267.976562 C 135.863281 267.992188 136.449219 267.996094 137.03125 268.003906 C 137.519531 268.007812 138.007812 268.027344 138.496094 268.027344 C 138.988281 268.027344 139.476562 268.007812 139.96875 268.003906 C 140.550781 267.996094 141.132812 267.992188 141.710938 267.976562 C 142.332031 267.957031 142.949219 267.929688 143.566406 267.90625 C 144.050781 267.882812 144.53125 267.863281 145.011719 267.835938 C 145.679688 267.800781 146.351562 267.757812 147.019531 267.707031 C 147.390625 267.683594 147.757812 267.652344 148.128906 267.621094 C 184.53125 264.652344 217.285156 244.976562 237.074219 213.691406 L 237.515625 212.992188 L 237.457031 212.992188 C 248.613281 195.117188 255.074219 174.023438 255.074219 151.445312 Z M 164.015625 29.675781 C 168.523438 29.59375 168.757812 33.023438 168.980469 36.015625 C 169.070312 37.261719 169.148438 38.339844 169.527344 39.097656 C 170.03125 40.101562 171.523438 41.019531 173.25 42.085938 C 176 43.773438 179.417969 45.878906 179.601562 48.886719 C 179.863281 53.1875 177.976562 54.773438 176.59375 55.933594 C 175.632812 56.738281 174.722656 57.5 175.390625 58.816406 C 176.589844 61.175781 176.839844 63.152344 176.125 64.683594 C 175.492188 66.050781 174.101562 67.03125 172.007812 67.625 C 171.851562 67.054688 171.644531 66.527344 171.386719 66.046875 C 172 63.667969 172.328125 61.175781 172.328125 58.613281 C 172.328125 47.78125 166.539062 38.273438 157.800781 32.824219 C 159.15625 31.152344 161.15625 29.675781 164.015625 29.675781 Z M 111.785156 155.273438 L 111.710938 154.828125 C 111.699219 154.828125 111.558594 154.851562 111.324219 154.894531 C 111.210938 154.910156 111.078125 154.933594 110.917969 154.960938 C 110.832031 154.976562 110.738281 154.992188 110.640625 155.011719 C 109.621094 154.226562 103.996094 149.992188 100.40625 149.351562 C 98.871094 149.074219 97.007812 149.304688 95.203125 149.523438 C 92.578125 149.84375 90.101562 150.148438 89.542969 148.765625 C 89.472656 148.59375 89.417969 148.3125 89.761719 147.871094 C 91.445312 145.6875 99.269531 143.636719 103.714844 144.21875 C 108.996094 144.90625 115.519531 148.785156 115.585938 148.824219 L 116.050781 148.046875 C 115.777344 147.882812 109.304688 144.03125 103.832031 143.320312 C 100.234375 142.847656 94.714844 143.988281 91.414062 145.613281 C 90.035156 145.324219 89.179688 144.859375 89.074219 144.328125 C 88.972656 143.816406 89.554688 143.097656 90.671875 142.355469 C 93.257812 140.628906 104.886719 137.328125 109.042969 137.78125 C 113.101562 138.214844 119.59375 142.03125 119.65625 142.066406 L 120.121094 141.285156 C 119.847656 141.125 113.394531 137.335938 109.140625 136.878906 C 105.929688 136.535156 98.75 138.238281 94.042969 139.890625 C 93.796875 139.589844 93.382812 138.964844 93.46875 138.246094 C 93.550781 137.519531 94.121094 136.839844 95.164062 136.226562 C 98.757812 134.109375 108.738281 131.914062 114.023438 132.5625 C 119.386719 133.226562 135.769531 140.71875 141.863281 144.265625 C 151.035156 149.597656 174.699219 166.964844 184.289062 177.679688 C 190.511719 184.628906 190.503906 197.511719 186.335938 204.390625 C 183.9375 208.351562 180.457031 209.984375 176.535156 208.988281 C 169.511719 207.203125 159.476562 195.683594 150.628906 185.519531 C 143.085938 176.859375 136.574219 169.382812 132.75 168.691406 C 128.066406 167.847656 124.171875 165.6875 121.046875 163.953125 C 118.742188 162.675781 117.078125 161.753906 115.820312 161.753906 L 98.476562 161.753906 C 95.945312 161.753906 94.4375 160.863281 94.363281 160.246094 C 94.3125 159.828125 95 159.148438 97.105469 158.625 C 102.195312 157.355469 111.765625 155.738281 111.859375 155.71875 Z M 114.769531 131.765625 C 114.546875 131.722656 114.332031 131.6875 114.132812 131.664062 C 108.597656 130.984375 98.488281 133.214844 94.703125 135.445312 C 93.398438 136.214844 92.679688 137.125 92.566406 138.152344 C 92.46875 139.019531 92.832031 139.75 93.15625 140.214844 C 91.832031 140.714844 90.777344 141.195312 90.167969 141.601562 C 88.667969 142.601562 88 143.578125 88.1875 144.507812 C 88.335938 145.269531 89.046875 145.855469 90.289062 146.253906 C 89.757812 146.597656 89.324219 146.953125 89.042969 147.316406 C 88.464844 148.0625 88.539062 148.703125 88.703125 149.109375 C 89.523438 151.128906 92.335938 150.789062 95.3125 150.421875 C 97.046875 150.210938 98.84375 149.992188 100.246094 150.242188 C 103.113281 150.753906 107.589844 153.878906 109.414062 155.226562 C 106.234375 155.789062 100.464844 156.851562 96.886719 157.742188 C 93.882812 158.492188 93.363281 159.578125 93.460938 160.359375 C 93.621094 161.671875 95.777344 162.660156 98.472656 162.660156 L 114.769531 162.660156 L 114.769531 163.066406 C 114.769531 166.414062 112.046875 169.136719 108.703125 169.136719 L 81.527344 169.136719 C 78.628906 169.136719 76.125 167.070312 75.574219 164.230469 L 75.5 163.863281 L 69.390625 163.863281 C 60.515625 163.863281 53.296875 156.640625 53.296875 147.765625 C 53.296875 138.890625 60.515625 131.671875 69.390625 131.671875 L 75.457031 131.671875 L 75.457031 126.398438 L 114.769531 126.398438 Z M 93.273438 170.042969 C 94.269531 174.511719 95.636719 179.085938 97.0625 183.816406 C 99.253906 191.089844 101.644531 199.039062 102.902344 207.652344 C 97.148438 207.242188 91.121094 204.679688 89.472656 199.507812 C 85.695312 187.660156 83.917969 176.824219 83.097656 170.042969 Z M 88.605469 199.78125 C 90.402344 205.417969 96.898438 208.179688 103.027344 208.570312 C 103.226562 210.027344 103.390625 211.5 103.515625 212.992188 L 89.578125 212.992188 C 89.25 212.703125 88.917969 212.414062 88.605469 212.109375 C 82.738281 206.371094 80.269531 198.890625 81.65625 191.042969 C 82.152344 188.457031 83.097656 185.996094 84.429688 183.746094 C 85.441406 188.640625 86.792969 194.09375 88.605469 199.78125 Z M 97.929688 183.554688 C 96.53125 178.910156 95.191406 174.417969 94.203125 170.042969 L 108.703125 170.042969 C 112.546875 170.042969 115.675781 166.910156 115.675781 163.066406 L 115.675781 162.660156 L 115.820312 162.660156 C 116.84375 162.660156 118.503906 163.582031 120.605469 164.75 C 123.621094 166.421875 127.753906 168.714844 132.589844 169.585938 C 136.097656 170.21875 142.820312 177.941406 149.941406 186.117188 C 151.546875 187.957031 153.1875 189.84375 154.84375 191.707031 C 155.960938 197.566406 157.183594 202.683594 158.476562 206.074219 C 159.484375 208.71875 160.945312 211.042969 162.746094 212.996094 L 104.425781 212.996094 C 103.53125 202.183594 100.585938 192.375 97.929688 183.554688 Z M 159.320312 205.75 C 158.15625 202.691406 157.046875 198.199219 156.019531 193.023438 C 163.234375 201.058594 170.628906 208.421875 176.308594 209.867188 C 177.152344 210.082031 177.972656 210.1875 178.769531 210.1875 C 182.089844 210.1875 184.996094 208.351562 187.113281 204.859375 C 191.449219 197.699219 191.636719 184.527344 184.964844 177.074219 C 177.09375 168.28125 160.847656 155.820312 149.871094 148.332031 C 149.632812 145.976562 149.503906 144.5625 149.496094 144.484375 L 148.59375 144.566406 C 148.597656 144.636719 148.703125 145.765625 148.894531 147.671875 C 146.300781 145.921875 144.042969 144.480469 142.320312 143.480469 C 136.667969 140.195312 122.222656 133.542969 115.675781 131.960938 L 115.675781 125.488281 L 106.289062 125.488281 C 109.25 121.628906 112.683594 117.695312 116.605469 113.683594 C 120.617188 109.585938 126.011719 106.351562 132.011719 104.371094 L 132.011719 120.636719 L 155.863281 104.828125 L 155.863281 100.585938 C 193.121094 109.925781 201.109375 152.160156 203.785156 188.664062 C 205.140625 207.15625 194.238281 216.242188 184.492188 218.40625 C 175.453125 220.414062 163.722656 217.308594 159.320312 205.75 Z M 133.445312 118.597656 L 154.132812 93.410156 C 154.414062 93.214844 154.6875 93.019531 154.957031 92.816406 L 154.957031 104.339844 Z M 126.308594 42.542969 C 132.886719 53.691406 150.183594 56.40625 153.429688 64.457031 C 156.789062 72.804688 155.550781 76.222656 158.304688 76.007812 C 160.113281 75.867188 161.4375 71.269531 162.078125 67.53125 C 162.429688 67.359375 163.0625 67.109375 163.808594 67.109375 C 165.425781 67.109375 167.054688 68.203125 167.054688 70.648438 L 167.960938 70.648438 C 167.960938 67.59375 165.808594 66.203125 163.808594 66.203125 C 163.207031 66.203125 162.671875 66.332031 162.246094 66.484375 C 162.414062 65.3125 162.507812 64.292969 162.515625 63.617188 L 162.679688 63.550781 C 163.386719 63.261719 164.148438 63.113281 164.945312 63.113281 C 168.074219 63.113281 171.402344 65.5 171.402344 69.921875 C 171.402344 76.386719 166.761719 82.734375 161.96875 82.734375 L 161.625 82.730469 L 161.527344 83.0625 C 158.414062 93.867188 137.683594 101.453125 127.640625 101.453125 L 127.640625 101.90625 L 127.625 101.453125 C 120.453125 101.453125 111.800781 92.636719 109.824219 83.3125 C 108.902344 78.96875 109.519531 76.953125 110.121094 75.003906 C 110.539062 73.632812 110.933594 72.316406 110.804688 70.363281 C 114.285156 68.894531 118.441406 69.296875 120.539062 72.777344 C 120.582031 72.851562 120.632812 72.898438 120.691406 72.933594 C 119.882812 74.414062 119.25 76.027344 119.25 77.460938 C 119.25 80.753906 123.550781 81.335938 124.96875 81.527344 L 125.089844 80.628906 C 121.722656 80.171875 120.152344 79.164062 120.152344 77.460938 C 120.152344 73.886719 124.808594 68.6875 124.855469 68.632812 L 124.183594 68.027344 C 124.070312 68.152344 122.507812 69.898438 121.171875 72.101562 C 118.828125 68.472656 114.488281 67.964844 110.710938 69.433594 C 110.695312 69.324219 110.6875 69.230469 110.671875 69.117188 C 110.5 68.039062 110.355469 66.957031 110.230469 65.839844 L 110.222656 65.757812 C 113.296875 65.601562 117.1875 65.628906 120.898438 66.296875 C 123.953125 66.847656 124.160156 62.570312 121.902344 61.796875 C 117.449219 60.363281 113.042969 60.8125 109.964844 61.550781 C 109.960938 61.375 109.953125 61.203125 109.953125 61.035156 C 109.925781 58.269531 110.175781 55.738281 110.667969 53.425781 C 115.664062 42.59375 126.308594 42.542969 126.308594 42.542969 Z M 22.824219 151.445312 C 22.824219 94.75 63.828125 47.453125 117.734375 37.644531 C 112.757812 42.789062 109.589844 49.597656 109.21875 57.121094 C 109.105469 58.378906 109.035156 59.671875 109.046875 61.035156 C 109.046875 61.234375 109.054688 61.4375 109.0625 61.664062 C 109.089844 62.929688 109.175781 64.292969 109.328125 65.90625 L 109.339844 66.011719 C 109.457031 67.074219 109.605469 68.164062 109.777344 69.261719 C 109.820312 69.542969 109.851562 69.804688 109.875 70.0625 C 109.878906 70.082031 109.878906 70.097656 109.882812 70.117188 C 110.0625 72.09375 109.667969 73.382812 109.253906 74.738281 C 108.652344 76.703125 107.96875 78.929688 108.9375 83.5 C 111.03125 93.371094 119.9375 102.359375 127.625 102.359375 L 127.640625 102.359375 C 128.933594 102.359375 130.410156 102.234375 132.011719 101.996094 L 132.011719 103.433594 C 125.757812 105.449219 120.128906 108.792969 115.957031 113.050781 C 111.824219 117.273438 108.21875 121.421875 105.136719 125.488281 L 74.550781 125.488281 L 74.550781 130.765625 L 69.390625 130.765625 C 60.015625 130.765625 52.390625 138.390625 52.390625 147.765625 C 52.390625 157.140625 60.015625 164.769531 69.390625 164.769531 L 74.765625 164.769531 C 75.535156 167.84375 78.320312 170.042969 81.527344 170.042969 L 82.183594 170.042969 C 82.578125 173.335938 83.199219 177.589844 84.167969 182.460938 C 82.511719 185.019531 81.34375 187.863281 80.761719 190.878906 C 79.324219 199.035156 81.886719 206.804688 87.972656 212.753906 C 88.054688 212.835938 88.144531 212.914062 88.230469 212.992188 L 40.605469 212.992188 C 29.347656 195.15625 22.824219 174.050781 22.824219 151.445312 Z M 69.855469 220.40625 L 131.824219 220.40625 L 114.574219 245.917969 L 52.609375 245.917969 Z M 132.222656 221.433594 L 132.222656 226.617188 L 115.269531 251.695312 L 115.269531 246.511719 Z M 52.207031 252.722656 L 52.207031 246.824219 L 114.363281 246.824219 L 114.363281 252.722656 Z M 138.496094 267.117188 C 120.535156 267.117188 103.253906 263.019531 87.722656 255.441406 L 114.816406 255.441406 L 115.191406 255.242188 L 133.050781 228.824219 L 133.128906 228.570312 L 133.128906 219.953125 L 132.675781 219.5 L 69.613281 219.5 L 69.238281 219.699219 L 58.726562 235.25 C 52.125 228.941406 46.199219 221.804688 41.121094 213.902344 L 163.648438 213.902344 C 167.660156 217.746094 173.117188 219.917969 179.082031 219.917969 C 180.914062 219.917969 182.792969 219.714844 184.6875 219.292969 C 188.355469 218.480469 192.175781 216.71875 195.492188 213.902344 L 235.863281 213.902344 C 214.449219 247.242188 178.113281 267.117188 138.496094 267.117188 Z M 236.386719 212.992188 L 196.507812 212.992188 C 201.800781 207.976562 205.527344 200.027344 204.6875 188.597656 C 203.476562 172.027344 201.058594 150.726562 193.070312 132.949219 C 192.367188 131.378906 191.625 129.867188 190.851562 128.402344 C 203.890625 126.535156 216.082031 118.242188 223.734375 107.808594 C 191.101562 102.144531 211.488281 76.867188 200.769531 54.007812 C 232.859375 74.585938 254.164062 110.574219 254.164062 151.445312 C 254.164062 174.050781 247.640625 195.15625 236.386719 212.992188 Z M 154.507812 219.585938 C 153.53125 218.957031 152.289062 219.035156 151.824219 219.757812 L 150.921875 221.164062 L 150.917969 221.164062 L 132.949219 249.097656 L 132.222656 253.460938 L 132.496094 253.636719 L 132.222656 255.277344 L 132.917969 255.726562 L 136.453125 253.386719 L 136.585938 253.253906 L 141.007812 246.378906 L 141.015625 246.382812 L 155.460938 223.914062 C 155.769531 223.433594 155.707031 222.8125 155.359375 222.253906 L 155.460938 222.097656 C 155.945312 221.347656 155.523438 220.242188 154.507812 219.585938 Z M 133.277344 252.585938 L 133.671875 250.085938 L 135.386719 251.191406 Z M 136.074219 250.558594 L 133.964844 249.195312 L 151.433594 222.039062 L 153.546875 223.398438 Z M 154.699219 221.609375 L 154.039062 222.632812 L 151.925781 221.273438 L 152.585938 220.25 C 152.769531 219.964844 153.472656 220 154.015625 220.347656 C 154.621094 220.738281 154.875 221.335938 154.699219 221.609375 Z M 118.890625 85.148438 C 120.394531 89.101562 123.292969 91.367188 126.84375 91.367188 C 130.484375 91.367188 134.242188 88.980469 136.421875 85.285156 L 136.824219 84.605469 L 118.65625 84.53125 Z M 135.210938 85.503906 C 133.15625 88.539062 129.945312 90.460938 126.847656 90.460938 L 126.84375 90.460938 C 123.832031 90.460938 121.417969 88.683594 119.992188 85.445312 Z M 146.175781 71.542969 C 146.617188 71.929688 145.972656 72.566406 145.535156 72.183594 C 141.914062 69.023438 135.691406 68.105469 132.875 72.78125 C 132.570312 73.277344 131.789062 72.824219 132.089844 72.320312 C 135.234375 67.105469 142.105469 67.992188 146.175781 71.542969 Z M 131.507812 61.796875 C 138.449219 59.5625 145.277344 61.898438 147.132812 62.746094 C 149.046875 63.617188 149.046875 66.332031 149.046875 66.332031 C 149.046875 66.332031 140.375 64.886719 132.511719 66.296875 C 129.460938 66.84375 129.25 62.566406 131.507812 61.796875 Z M 69.390625 136.203125 C 63.015625 136.203125 57.828125 141.390625 57.828125 147.765625 C 57.828125 154.140625 63.015625 159.328125 69.390625 159.328125 L 75.457031 159.328125 L 75.457031 155.589844 C 78.492188 155.527344 82.980469 154.980469 83.648438 152.371094 C 83.773438 151.878906 83.660156 151.390625 83.320312 150.949219 C 82.519531 149.917969 80.472656 149.183594 78.21875 148.71875 C 81.257812 148.136719 83.738281 147 84.054688 145.085938 C 84.128906 144.621094 83.996094 144.167969 83.664062 143.777344 C 82.609375 142.53125 79.515625 141.957031 76.640625 141.792969 C 79.785156 140.664062 82.871094 138.867188 82.789062 136.46875 C 82.757812 135.542969 82.023438 134.4375 78.707031 134.4375 C 75.878906 134.4375 72.144531 135.257812 70.238281 136.203125 Z M 74.550781 158.421875 L 69.390625 158.421875 C 63.515625 158.421875 58.738281 153.640625 58.738281 147.765625 C 58.738281 142.015625 63.320312 137.328125 69.023438 137.128906 C 68.183594 138.179688 67.925781 139.804688 68.441406 141.109375 C 68.691406 141.738281 69.09375 142.226562 69.609375 142.558594 C 68.292969 143.363281 67.558594 145.140625 67.933594 146.667969 C 68.144531 147.527344 68.664062 148.183594 69.410156 148.617188 C 68.074219 149.328125 67.21875 150.996094 67.453125 152.523438 C 67.699219 154.101562 68.96875 155.144531 70.941406 155.375 C 72.09375 155.511719 73.339844 155.582031 74.554688 155.589844 L 74.554688 158.421875 Z M 82.605469 151.503906 C 82.828125 151.792969 82.808594 152.007812 82.773438 152.140625 C 82.363281 153.738281 79.382812 154.691406 74.800781 154.691406 C 73.542969 154.691406 72.246094 154.617188 71.046875 154.472656 C 69.488281 154.289062 68.53125 153.546875 68.351562 152.382812 C 68.167969 151.191406 68.886719 149.828125 69.957031 149.347656 C 70.160156 149.253906 70.480469 149.183594 70.875 149.128906 C 71.125 149.167969 71.386719 149.195312 71.660156 149.207031 C 71.945312 149.214844 72.242188 149.21875 72.550781 149.21875 C 73.292969 149.21875 74.058594 149.191406 74.828125 149.140625 C 78.179688 149.441406 81.714844 150.355469 82.605469 151.503906 Z M 82.972656 144.363281 C 83.132812 144.554688 83.195312 144.738281 83.160156 144.941406 C 82.777344 147.257812 77.394531 148.3125 72.550781 148.3125 C 72.253906 148.3125 71.964844 148.308594 71.6875 148.296875 C 70.117188 148.253906 69.097656 147.597656 68.816406 146.453125 C 68.527344 145.28125 69.125 143.859375 70.148438 143.285156 C 70.828125 142.898438 72.703125 142.652344 74.914062 142.652344 C 78.804688 142.652344 82.117188 143.355469 82.972656 144.363281 Z M 78.707031 135.34375 C 79.648438 135.34375 81.847656 135.453125 81.882812 136.5 C 81.96875 138.910156 77.273438 140.867188 73.558594 141.777344 C 72.503906 141.828125 71.585938 141.9375 70.875 142.097656 C 69.945312 141.917969 69.496094 141.304688 69.285156 140.773438 C 68.847656 139.671875 69.132812 138.214844 69.9375 137.460938 C 70.917969 136.535156 75.347656 135.34375 78.707031 135.34375 Z M 121.652344 227.011719 L 71.710938 227.011719 L 71.710938 226.101562 L 121.652344 226.101562 Z M 117.1875 233.613281 L 67.246094 233.613281 L 67.246094 232.707031 L 117.1875 232.707031 Z M 62.78125 239.3125 L 112.722656 239.3125 L 112.722656 240.21875 L 62.78125 240.21875 Z M 62.78125 239.3125 " fill-opacity="1" fill-rule="nonzero"/></g></svg>