<svg xmlns="http://www.w3.org/2000/svg" xmlns:xlink="http://www.w3.org/1999/xlink" width="370" zoomAndPan="magnify" viewBox="0 0 277.5 284.999983" height="380" preserveAspectRatio="xMidYMid meet" version="1.0"><defs><clipPath id="3145610439"><path d="M 7 26.46875 L 270.589844 26.46875 L 270.589844 257 L 7 257 Z M 7 26.46875 " clip-rule="nonzero"/></clipPath><clipPath id="ae03afe2d3"><path d="M 7 26.46875 L 270.589844 26.46875 L 270.589844 257.050781 L 7 257.050781 Z M 7 26.46875 " clip-rule="nonzero"/></clipPath></defs><g clip-path="url(#3145610439)"><path fill="#ffffff" d="M 7.621094 145.296875 C 7.894531 146.140625 9.65625 148.0625 18.371094 151.4375 L 19.117188 151.726562 L 18.414062 152.105469 C 17.984375 152.339844 17.660156 152.714844 17.503906 153.160156 C 17.148438 154.175781 17.625 155.355469 18.808594 156.390625 L 19.277344 156.804688 L 18.691406 157.015625 C 18.078125 157.234375 17.617188 157.722656 17.425781 158.351562 C 17.152344 159.246094 17.398438 160.613281 18.917969 161.777344 L 19.382812 162.128906 L 18.863281 162.398438 C 18.605469 162.53125 18.351562 162.738281 18.136719 163 C 17.539062 163.714844 17.3125 164.652344 17.527344 165.503906 C 17.832031 166.703125 19.601562 167.882812 20.683594 168.167969 L 21 168.253906 C 21.4375 168.378906 22.03125 168.546875 22.605469 168.546875 C 22.761719 168.546875 22.929688 168.53125 23.097656 168.496094 L 23.675781 168.375 L 23.59375 168.691406 C 33.617188 171.242188 36.449219 171.933594 40.15625 172.304688 C 41.273438 172.417969 44.664062 173.667969 49.359375 175.402344 L 49.414062 175.421875 C 51.316406 176.125 53.378906 176.886719 55.539062 177.664062 L 55.703125 177.722656 L 55.761719 177.886719 C 56.078125 178.769531 56.34375 179.257812 56.355469 179.277344 L 64.867188 181.980469 L 64.996094 182.214844 C 67 185.820312 78.898438 192.394531 85.601562 194.78125 L 85.765625 194.835938 L 85.824219 194.996094 C 90.316406 206.949219 97.039062 217.6875 105.796875 226.921875 L 105.988281 227.125 L 98.605469 239.449219 L 98.582031 239.542969 L 98.582031 251.015625 L 142.523438 251.015625 L 142.585938 251.039062 C 152.132812 254.488281 162.183594 256.375 172.453125 256.640625 L 172.519531 256.640625 C 173.363281 256.664062 174.167969 256.675781 174.976562 256.675781 C 175.78125 256.675781 176.585938 256.664062 177.390625 256.644531 L 177.496094 256.640625 C 196.359375 256.152344 214.457031 250.15625 229.835938 239.304688 C 245.585938 228.1875 257.464844 212.8125 264.191406 194.835938 L 264.355469 194.335938 C 268.238281 183.816406 270.207031 172.757812 270.207031 161.46875 C 270.207031 139.832031 262.722656 118.640625 249.125 101.792969 C 235.734375 85.191406 216.992188 73.433594 196.359375 68.679688 L 195.371094 68.453125 L 196.273438 67.992188 C 198.84375 66.679688 200.441406 64.082031 200.441406 61.207031 C 200.441406 59.382812 199.78125 57.617188 198.585938 56.234375 L 198.34375 55.949219 L 198.628906 55.710938 C 200.371094 54.253906 201.371094 52.125 201.371094 49.859375 C 201.371094 45.65625 197.949219 42.238281 193.746094 42.238281 C 193.59375 42.238281 193.445312 42.246094 193.300781 42.257812 L 192.636719 42.304688 L 192.847656 41.761719 C 193.199219 40.867188 193.375 39.9375 193.375 38.992188 C 193.375 34.789062 189.957031 31.371094 185.75 31.371094 C 184.460938 31.371094 183.183594 31.703125 182.054688 32.328125 L 181.664062 32.542969 L 181.527344 32.117188 C 180.5 28.976562 177.585938 26.863281 174.28125 26.863281 C 171.671875 26.863281 169.269531 28.179688 167.859375 30.386719 L 167.617188 30.765625 L 167.292969 30.457031 C 165.867188 29.097656 164 28.351562 162.039062 28.351562 C 159.121094 28.351562 156.5 29.984375 155.203125 32.613281 L 155.089844 32.84375 L 154.835938 32.816406 C 154.574219 32.792969 154.308594 32.777344 154.046875 32.777344 C 149.84375 32.777344 146.421875 36.199219 146.421875 40.402344 C 146.421875 41.351562 146.601562 42.289062 146.957031 43.191406 L 147.078125 43.503906 L 146.777344 43.65625 C 144.175781 44.957031 142.554688 47.570312 142.554688 50.46875 C 142.554688 52.488281 143.339844 54.394531 144.761719 55.832031 L 144.898438 55.96875 L 144.863281 56.15625 C 144.601562 57.601562 144.46875 59.121094 144.464844 60.675781 C 144.457031 62.214844 144.914062 66.449219 145.058594 67.359375 C 145.277344 68.714844 145.335938 69.753906 145.257812 70.722656 L 145.238281 70.96875 L 145.007812 71.042969 C 130.875 75.710938 118.300781 83.484375 107.636719 94.144531 C 92.679688 109.097656 83.324219 128.003906 80.578125 148.820312 L 80.539062 149.113281 L 80.242188 149.136719 C 76.679688 149.417969 73.902344 150.035156 71.984375 150.976562 C 71.433594 151.25 70.875 151.566406 70.328125 151.925781 L 70.191406 152.011719 L 62.761719 150.082031 C 62.730469 150.101562 62.003906 150.574219 60.976562 151.742188 L 60.835938 151.902344 L 60.628906 151.863281 C 58.859375 151.519531 57.1875 151.203125 55.675781 150.914062 C 51.160156 150.058594 48.574219 149.558594 47.980469 149.3125 C 45.816406 148.410156 39.449219 143.660156 37.253906 137.796875 C 36.640625 136.160156 35.441406 135.058594 34.265625 135.058594 C 34.179688 135.058594 34.09375 135.0625 34.011719 135.074219 C 33.457031 135.152344 32.148438 135.644531 31.917969 138.53125 C 31.714844 141.101562 32.722656 143.792969 33.535156 145.953125 C 34.277344 147.929688 34.675781 149.070312 34.25 149.582031 L 34.203125 149.640625 L 34.132812 149.675781 C 34.027344 149.726562 33.898438 149.75 33.730469 149.75 C 32.589844 149.75 28.914062 148.589844 25.355469 147.46875 C 19.089844 145.492188 13.230469 143.726562 10.03125 143.726562 C 8.867188 143.726562 8.101562 143.957031 7.757812 144.414062 C 7.5625 144.679688 7.515625 144.976562 7.621094 145.296875 Z M 7.621094 145.296875 " fill-opacity="1" fill-rule="nonzero"/></g><path fill="#959bff" d="M 55.527344 163.015625 C 57.050781 157.191406 59.269531 153.757812 60.847656 151.910156 C 61.964844 150.597656 62.765625 150.082031 62.765625 150.082031 L 70.1875 152.015625 C 70.757812 151.636719 71.355469 151.289062 71.984375 150.980469 C 74.109375 149.9375 77.105469 149.367188 80.539062 149.125 C 94.085938 148.164062 114.402344 152.261719 114.402344 152.261719 C 114.402344 152.261719 118.257812 111.664062 148.898438 96.894531 C 148.984375 94.632812 149.429688 92.464844 150.179688 90.441406 C 152.484375 92.347656 155.515625 93.714844 159.332031 94.179688 C 159.660156 94.21875 159.992188 94.25 160.328125 94.273438 C 160.328125 97.34375 160.328125 99.65625 160.328125 100.179688 C 160.328125 105.375 164.539062 109.585938 169.734375 109.585938 C 174.933594 109.585938 179.144531 105.375 179.144531 100.179688 C 179.144531 99.367188 179.144531 94.308594 179.144531 88.742188 C 181.460938 87.21875 183.484375 85.445312 185 83.507812 C 187.359375 86.035156 189.09375 89.152344 189.964844 92.613281 C 202.492188 95.773438 219.132812 103.765625 234.464844 123.308594 C 261.210938 157.398438 257.621094 185.058594 244.976562 194.835938 C 243.558594 195.929688 242.027344 196.804688 240.414062 197.4375 C 230.144531 201.441406 207.191406 199.226562 190.371094 194.835938 L 85.761719 194.835938 C 79.035156 192.480469 67.03125 185.878906 64.996094 182.214844 C 64.953125 182.136719 64.914062 182.054688 64.871094 181.976562 L 56.355469 179.277344 C 56.355469 179.277344 56.0625 178.734375 55.710938 177.722656 C 54.867188 175.277344 53.6875 170.0625 55.527344 163.015625 Z M 130.519531 154.058594 C 128.445312 153.945312 127.035156 156.722656 130.441406 159.085938 C 128.324219 159.042969 126.777344 162.019531 130.582031 164.417969 L 130.578125 164.425781 C 127.679688 164.238281 126.164062 169.253906 136.402344 171.859375 C 146.636719 174.460938 147.371094 174.121094 151.144531 174.5 C 152.359375 174.621094 156.328125 176.113281 161.558594 178.042969 C 160.78125 175.320312 160.050781 170.523438 161.675781 164.300781 C 163.203125 158.464844 165.429688 155.027344 167.007812 153.179688 C 162.699219 152.363281 159.609375 151.777344 158.972656 151.511719 C 156.878906 150.640625 150.449219 145.882812 148.242188 139.992188 C 146.960938 136.570312 143.300781 135.878906 142.914062 140.726562 C 142.542969 145.40625 146.234375 150.59375 145.246094 151.777344 C 144.085938 153.171875 121.25 143.273438 118.753906 146.613281 C 117.292969 148.566406 124.382812 151.75 130.519531 154.058594 Z M 106 227.105469 L 98.582031 239.492188 L 154.726562 239.492188 L 154.726562 249.523438 L 174.917969 215.808594 L 174.917969 205.773438 L 118.773438 205.773438 Z M 106 227.105469 " fill-opacity="1" fill-rule="nonzero"/><path fill="#bc5331" d="M 19.527344 151.859375 C 17.453125 151.746094 16.042969 154.523438 19.449219 156.890625 C 17.332031 156.847656 15.785156 159.824219 19.589844 162.222656 L 19.585938 162.226562 C 16.691406 162.039062 15.808594 168.351562 23.234375 168.601562 C 33.472656 171.203125 36.378906 171.925781 40.152344 172.304688 C 41.742188 172.464844 48.042969 174.964844 55.710938 177.726562 C 54.863281 175.277344 53.683594 170.0625 55.527344 163.019531 C 57.050781 157.191406 59.269531 153.757812 60.847656 151.910156 C 54.125 150.605469 48.835938 149.675781 47.980469 149.316406 C 45.886719 148.445312 39.457031 143.6875 37.25 137.796875 C 35.96875 134.375 32.308594 133.683594 31.921875 138.53125 C 31.550781 143.207031 35.242188 148.398438 34.253906 149.582031 C 33.09375 150.976562 10.257812 141.078125 7.761719 144.417969 C 6.300781 146.371094 13.390625 149.554688 19.527344 151.859375 Z M 145.246094 151.78125 C 146.234375 150.59375 142.542969 145.40625 142.914062 140.726562 C 143.300781 135.878906 146.960938 136.570312 148.242188 139.996094 C 150.449219 145.882812 156.878906 150.640625 158.972656 151.511719 C 159.609375 151.777344 162.699219 152.363281 167.007812 153.179688 C 165.429688 155.027344 163.203125 158.464844 161.675781 164.300781 C 160.050781 170.523438 160.78125 175.320312 161.558594 178.042969 C 156.328125 176.117188 152.359375 174.621094 151.144531 174.5 C 147.371094 174.121094 146.636719 174.460938 136.402344 171.859375 C 126.167969 169.253906 127.679688 164.238281 130.578125 164.425781 L 130.582031 164.421875 C 126.777344 162.023438 128.324219 159.046875 130.441406 159.089844 C 127.035156 156.722656 128.445312 153.945312 130.519531 154.058594 C 124.382812 151.75 117.292969 148.566406 118.753906 146.613281 C 121.25 143.273438 144.085938 153.171875 145.246094 151.78125 Z M 169.734375 109.589844 C 174.929688 109.589844 179.144531 105.378906 179.144531 100.183594 C 179.144531 99.371094 179.144531 94.3125 179.144531 88.746094 C 181.460938 87.21875 183.484375 85.445312 185 83.507812 C 186.15625 82.03125 187.023438 80.464844 187.492188 78.835938 C 191.59375 78.886719 195.339844 73.664062 195.589844 68.503906 C 195.597656 68.324219 195.605469 68.140625 195.605469 67.960938 C 195.605469 63.148438 191.136719 61.082031 187.9375 62.390625 C 187.1875 50.9375 182.226562 40.402344 164.878906 40.402344 C 151.183594 40.402344 144.5 49.75 144.464844 60.675781 C 144.460938 62.21875 144.921875 66.457031 145.0625 67.359375 C 145.324219 69.015625 145.335938 70.074219 145.234375 71.003906 C 145.046875 72.738281 144.480469 74.019531 144.480469 77.886719 C 144.480469 82.460938 146.292969 87.222656 150.179688 90.441406 C 152.484375 92.347656 155.515625 93.714844 159.332031 94.179688 C 159.660156 94.21875 159.992188 94.25 160.328125 94.273438 C 160.328125 97.347656 160.328125 99.65625 160.328125 100.183594 C 160.328125 105.378906 164.539062 109.589844 169.734375 109.589844 Z M 150.910156 79.734375 L 167.835938 79.800781 C 165.796875 85.746094 154.316406 88.710938 150.910156 79.734375 Z M 150.910156 79.734375 " fill-opacity="1" fill-rule="nonzero"/><path fill="#f4b331" d="M 85.761719 194.835938 L 190.371094 194.835938 C 207.191406 199.226562 230.144531 201.441406 240.410156 197.4375 C 242.027344 196.808594 243.558594 195.929688 244.976562 194.835938 L 264.183594 194.835938 C 264.117188 195.015625 264.046875 195.191406 263.976562 195.371094 C 263.730469 196.023438 263.472656 196.671875 263.210938 197.3125 C 263.085938 197.628906 262.957031 197.945312 262.828125 198.257812 C 262.695312 198.574219 262.558594 198.886719 262.421875 199.203125 C 262.277344 199.535156 262.132812 199.871094 261.984375 200.199219 C 261.851562 200.496094 261.71875 200.789062 261.585938 201.082031 C 261.414062 201.457031 261.238281 201.828125 261.0625 202.203125 C 260.945312 202.449219 260.828125 202.699219 260.710938 202.945312 C 260.417969 203.546875 260.121094 204.148438 259.816406 204.742188 C 259.75 204.871094 259.683594 204.992188 259.621094 205.121094 C 259.359375 205.621094 259.097656 206.121094 258.828125 206.621094 C 258.726562 206.808594 258.621094 207 258.515625 207.191406 C 258.265625 207.644531 258.015625 208.09375 257.757812 208.546875 C 257.664062 208.710938 257.570312 208.878906 257.472656 209.042969 C 257.128906 209.636719 256.785156 210.226562 256.429688 210.808594 C 256.421875 210.820312 256.417969 210.828125 256.414062 210.835938 C 256.03125 211.46875 255.636719 212.09375 255.242188 212.714844 C 255.191406 212.789062 255.140625 212.867188 255.09375 212.941406 C 254.75 213.476562 254.398438 214.007812 254.046875 214.53125 C 253.972656 214.636719 253.902344 214.742188 253.832031 214.847656 C 253.453125 215.40625 253.070312 215.957031 252.683594 216.507812 C 252.660156 216.539062 252.636719 216.570312 252.613281 216.601562 C 251.75 217.820312 250.855469 219.015625 249.933594 220.191406 C 249.898438 220.234375 249.863281 220.277344 249.828125 220.320312 C 249.390625 220.875 248.949219 221.425781 248.5 221.96875 C 248.476562 221.996094 248.453125 222.027344 248.429688 222.054688 C 246.988281 223.800781 245.488281 225.488281 243.929688 227.125 C 243.914062 227.140625 243.898438 227.15625 243.882812 227.171875 C 236.53125 234.875 227.902344 241.347656 218.332031 246.25 C 218.328125 246.25 218.324219 246.253906 218.320312 246.253906 C 216.273438 247.304688 214.183594 248.277344 212.054688 249.179688 C 212.042969 249.183594 212.03125 249.191406 212.019531 249.195312 C 209.199219 250.386719 206.308594 251.445312 203.355469 252.367188 C 203.316406 252.378906 203.277344 252.390625 203.234375 252.40625 C 201.039062 253.085938 198.808594 253.691406 196.546875 254.214844 C 196.496094 254.226562 196.441406 254.238281 196.390625 254.25 C 195.667969 254.414062 194.945312 254.574219 194.21875 254.722656 C 194.191406 254.726562 194.164062 254.734375 194.136719 254.738281 C 192.605469 255.050781 191.058594 255.328125 189.503906 255.566406 C 189.476562 255.570312 189.445312 255.574219 189.417969 255.578125 C 188.6875 255.691406 187.957031 255.792969 187.222656 255.886719 C 187.148438 255.894531 187.074219 255.90625 187.003906 255.914062 C 184.6875 256.207031 182.347656 256.414062 179.984375 256.539062 C 179.902344 256.542969 179.816406 256.546875 179.734375 256.550781 C 179.003906 256.585938 178.265625 256.613281 177.53125 256.632812 C 177.480469 256.636719 177.429688 256.636719 177.382812 256.636719 C 176.582031 256.65625 175.777344 256.671875 174.972656 256.671875 C 174.167969 256.671875 173.367188 256.65625 172.566406 256.636719 C 172.515625 256.636719 172.464844 256.632812 172.414062 256.632812 C 171.679688 256.613281 170.945312 256.585938 170.210938 256.550781 C 170.128906 256.546875 170.046875 256.542969 169.964844 256.539062 C 167.601562 256.414062 165.257812 256.207031 162.945312 255.914062 C 162.871094 255.90625 162.796875 255.894531 162.722656 255.886719 C 161.988281 255.792969 161.257812 255.691406 160.527344 255.578125 C 160.5 255.574219 160.472656 255.570312 160.445312 255.566406 C 158.886719 255.328125 157.34375 255.050781 155.8125 254.738281 C 155.78125 254.734375 155.753906 254.726562 155.726562 254.722656 C 155 254.574219 154.277344 254.414062 153.558594 254.25 C 153.503906 254.238281 153.453125 254.226562 153.402344 254.214844 C 151.136719 253.691406 148.90625 253.085938 146.710938 252.40625 C 146.671875 252.390625 146.632812 252.378906 146.59375 252.367188 C 143.914062 251.53125 141.28125 250.582031 138.707031 249.523438 L 154.726562 249.523438 L 174.917969 215.804688 L 174.917969 205.773438 L 118.773438 205.773438 L 106 227.105469 C 104.449219 225.476562 102.953125 223.792969 101.519531 222.058594 C 101.496094 222.027344 101.46875 222 101.445312 221.96875 C 101 221.425781 100.554688 220.875 100.121094 220.324219 C 100.085938 220.277344 100.050781 220.234375 100.015625 220.191406 C 99.09375 219.015625 98.199219 217.820312 97.332031 216.605469 C 97.308594 216.574219 97.289062 216.539062 97.265625 216.507812 C 96.875 215.960938 96.492188 215.40625 96.117188 214.851562 C 96.046875 214.746094 95.972656 214.640625 95.902344 214.535156 C 95.546875 214.007812 95.199219 213.476562 94.855469 212.941406 C 94.804688 212.867188 94.757812 212.792969 94.707031 212.714844 C 94.308594 212.09375 93.917969 211.46875 93.535156 210.839844 C 93.527344 210.828125 93.523438 210.820312 93.519531 210.8125 C 93.164062 210.226562 92.816406 209.636719 92.476562 209.046875 C 92.378906 208.878906 92.285156 208.714844 92.191406 208.546875 C 91.933594 208.097656 91.679688 207.644531 91.433594 207.191406 C 91.328125 207 91.222656 206.8125 91.121094 206.621094 C 90.851562 206.125 90.585938 205.625 90.328125 205.121094 C 90.261719 204.996094 90.195312 204.871094 90.132812 204.746094 C 89.828125 204.148438 89.527344 203.546875 89.238281 202.945312 C 89.117188 202.699219 89 202.449219 88.882812 202.203125 C 88.707031 201.832031 88.535156 201.457031 88.363281 201.082031 C 88.226562 200.789062 88.09375 200.496094 87.964844 200.203125 C 87.816406 199.871094 87.671875 199.539062 87.527344 199.203125 C 87.390625 198.890625 87.253906 198.578125 87.121094 198.257812 C 86.988281 197.945312 86.863281 197.632812 86.734375 197.316406 C 86.472656 196.671875 86.21875 196.023438 85.96875 195.375 C 85.902344 195.191406 85.828125 195.015625 85.761719 194.835938 Z M 179.171875 238.355469 L 198.007812 206.882812 C 198.546875 205.984375 198.253906 204.824219 197.355469 204.285156 C 197.050781 204.101562 196.714844 204.015625 196.386719 204.015625 C 195.742188 204.015625 195.113281 204.34375 194.757812 204.9375 L 175.925781 236.410156 L 175.21875 241.25 Z M 179.171875 238.355469 " fill-opacity="1" fill-rule="nonzero"/><g clip-path="url(#ae03afe2d3)"><path fill="#000000" d="M 7.464844 144.191406 C 9.011719 142.125 16.199219 144.191406 25.433594 147.105469 C 29.167969 148.285156 33.40625 149.621094 33.96875 149.34375 C 34.277344 148.976562 33.722656 147.503906 33.191406 146.082031 C 32.367188 143.886719 31.339844 141.152344 31.550781 138.503906 C 31.804688 135.351562 33.320312 134.800781 33.960938 134.710938 C 35.390625 134.511719 36.875 135.726562 37.601562 137.667969 C 39.757812 143.425781 46 148.085938 48.121094 148.972656 C 48.707031 149.214844 51.8125 149.804688 55.746094 150.550781 C 57.257812 150.839844 58.929688 151.15625 60.699219 151.5 C 61.738281 150.320312 62.488281 149.820312 62.5625 149.769531 L 62.699219 149.683594 L 70.125 151.613281 C 70.671875 151.257812 71.238281 150.933594 71.820312 150.644531 C 73.929688 149.609375 76.863281 149.03125 80.210938 148.769531 C 82.945312 128.054688 92.347656 108.90625 107.375 93.882812 C 118.089844 83.167969 130.90625 75.3125 144.890625 70.695312 C 144.960938 69.851562 144.929688 68.878906 144.695312 67.414062 C 144.550781 66.496094 144.089844 62.222656 144.09375 60.671875 C 144.097656 59.070312 144.238281 57.539062 144.5 56.089844 C 143.070312 54.644531 142.1875 52.660156 142.1875 50.46875 C 142.1875 47.339844 143.992188 44.636719 146.613281 43.324219 C 146.257812 42.417969 146.054688 41.433594 146.054688 40.398438 C 146.054688 35.988281 149.632812 32.40625 154.046875 32.40625 C 154.328125 32.40625 154.601562 32.421875 154.875 32.449219 C 156.175781 29.804688 158.894531 27.980469 162.042969 27.980469 C 164.179688 27.980469 166.117188 28.824219 167.550781 30.1875 C 168.96875 27.96875 171.449219 26.492188 174.28125 26.492188 C 177.828125 26.492188 180.832031 28.804688 181.878906 32.003906 C 183.027344 31.367188 184.347656 31 185.75 31 C 190.167969 31 193.746094 34.578125 193.746094 38.992188 C 193.746094 40.015625 193.546875 40.992188 193.195312 41.894531 C 193.378906 41.882812 193.558594 41.867188 193.746094 41.867188 C 198.160156 41.867188 201.738281 45.445312 201.738281 49.859375 C 201.738281 52.324219 200.621094 54.523438 198.867188 55.992188 C 200.074219 57.390625 200.808594 59.210938 200.808594 61.203125 C 200.808594 64.3125 199.03125 66.996094 196.441406 68.320312 C 238.855469 78.085938 270.574219 116.140625 270.574219 161.464844 C 270.574219 173.054688 268.5 184.171875 264.699219 194.460938 L 264.722656 194.460938 L 264.535156 194.964844 C 257.785156 213.007812 245.859375 228.441406 230.046875 239.601562 C 214.570312 250.527344 196.453125 256.515625 177.503906 257.003906 C 177.46875 257.007812 177.433594 257.007812 177.398438 257.007812 C 176.589844 257.027344 175.785156 257.042969 174.976562 257.042969 C 174.164062 257.042969 173.359375 257.027344 172.550781 257.007812 C 172.515625 257.007812 172.480469 257.007812 172.445312 257.003906 C 162.105469 256.738281 152.011719 254.835938 142.460938 251.382812 L 98.210938 251.382812 L 98.210938 239.492188 L 98.265625 239.300781 L 105.527344 227.171875 C 96.804688 217.976562 89.992188 207.132812 85.476562 195.125 C 78.65625 192.699219 66.734375 186.101562 64.671875 182.394531 C 64.652344 182.355469 64.636719 182.320312 64.613281 182.28125 L 56.101562 179.582031 L 56.03125 179.453125 C 55.992188 179.382812 55.730469 178.882812 55.414062 178.007812 C 53.246094 177.226562 51.175781 176.460938 49.265625 175.757812 C 44.753906 174.09375 41.191406 172.777344 40.117188 172.667969 C 36.347656 172.289062 33.488281 171.585938 23.148438 168.957031 L 23.175781 168.851562 C 22.988281 168.890625 22.796875 168.914062 22.609375 168.914062 C 21.984375 168.914062 21.363281 168.738281 20.902344 168.605469 L 20.59375 168.519531 C 19.394531 168.207031 17.511719 166.941406 17.171875 165.59375 C 16.929688 164.625 17.183594 163.566406 17.855469 162.757812 C 18.105469 162.457031 18.394531 162.21875 18.695312 162.066406 C 17.042969 160.800781 16.761719 159.257812 17.074219 158.242188 C 17.308594 157.476562 17.863281 156.917969 18.566406 156.667969 C 17.273438 155.535156 16.746094 154.214844 17.15625 153.035156 C 17.351562 152.480469 17.746094 152.046875 18.242188 151.777344 C 13.191406 149.824219 7.90625 147.355469 7.269531 145.410156 C 7.128906 144.976562 7.195312 144.554688 7.464844 144.191406 Z M 107.898438 94.410156 C 93.027344 109.277344 83.707031 128.21875 80.96875 148.714844 C 93.433594 147.925781 111.082031 151.234375 114.078125 151.816406 C 114.355469 149.480469 116.019531 137.480469 122.035156 124.902344 C 126.726562 115.089844 134.875 103.390625 148.53125 96.691406 C 148.632812 94.542969 149.054688 92.484375 149.75 90.550781 C 145.90625 87.246094 144.109375 82.445312 144.109375 77.886719 C 144.109375 75.167969 144.390625 73.679688 144.617188 72.484375 C 144.683594 72.148438 144.742188 71.832031 144.792969 71.515625 C 131.046875 76.109375 118.449219 83.863281 107.898438 94.410156 Z M 169.734375 109.960938 C 164.339844 109.960938 159.953125 105.574219 159.953125 100.183594 L 159.953125 94.609375 C 159.730469 94.589844 159.503906 94.574219 159.285156 94.550781 C 155.621094 94.101562 152.664062 92.832031 150.367188 91.050781 C 149.644531 93.140625 149.246094 95.378906 149.246094 97.710938 C 149.246094 109.003906 158.4375 118.191406 169.734375 118.191406 C 181.03125 118.191406 190.222656 109.003906 190.222656 97.710938 C 190.222656 92.484375 188.25 87.710938 185.015625 84.085938 C 183.542969 85.878906 181.652344 87.511719 179.515625 88.933594 L 179.515625 100.183594 C 179.515625 105.574219 175.128906 109.960938 169.734375 109.960938 Z M 178.773438 100.179688 L 178.773438 89.414062 C 177.84375 89.996094 176.875 90.539062 175.875 91.039062 L 163.253906 106.460938 C 164.894531 108.15625 167.191406 109.214844 169.734375 109.214844 C 174.71875 109.214844 178.773438 105.164062 178.773438 100.179688 Z M 194.601562 65.21875 C 194.027344 65.835938 193.332031 66.335938 192.542969 66.664062 C 192.953125 67.183594 193.1875 67.824219 193.1875 68.523438 L 192.445312 68.523438 C 192.445312 67.902344 192.199219 67.339844 191.769531 66.917969 C 191.289062 67.042969 190.789062 67.117188 190.269531 67.117188 C 189.914062 67.117188 189.570312 67.082031 189.230469 67.019531 L 188.484375 70.535156 L 188.152344 70.535156 L 187.761719 75.082031 L 187.019531 75.015625 L 187.40625 70.535156 L 182.660156 70.535156 L 182.042969 62.742188 C 177.878906 62.621094 174.523438 59.324219 174.304688 55.1875 C 174.222656 55.113281 174.144531 55.042969 174.066406 54.964844 C 169.75 54.847656 166.289062 51.324219 166.289062 46.984375 C 166.289062 46.007812 166.472656 45.070312 166.796875 44.207031 C 166.78125 44.203125 166.769531 44.203125 166.757812 44.203125 C 165.289062 45.902344 163.125 46.984375 160.703125 46.984375 C 157.902344 46.984375 155.441406 45.542969 154.015625 43.363281 C 148.367188 46.574219 145.667969 52.304688 145.003906 57.921875 C 147.519531 57.101562 151.066406 56.640625 154.640625 58.269531 C 156.492188 59.164062 156.320312 64.125 153.8125 63.480469 C 150.730469 62.699219 147.496094 62.675781 144.957031 62.863281 C 145.085938 64.421875 145.28125 66.210938 145.390625 67.023438 C 145.976562 66.242188 147.132812 65.035156 148.890625 64.695312 C 151.761719 64.140625 154.300781 66.027344 155.167969 66.769531 C 155.199219 66.601562 155.226562 66.433594 155.234375 66.257812 L 155.976562 66.308594 C 155.851562 68.242188 154.660156 69.71875 153.605469 71.019531 C 152.625 72.226562 151.777344 73.273438 151.914062 74.425781 C 152.007812 75.238281 152.363281 75.867188 152.96875 76.296875 C 153.902344 76.957031 155.453125 77.125 157.117188 76.742188 L 157.285156 77.46875 C 156.632812 77.617188 156.003906 77.691406 155.40625 77.691406 C 154.273438 77.691406 153.277344 77.421875 152.539062 76.902344 C 151.753906 76.347656 151.292969 75.542969 151.175781 74.511719 C 151.003906 73.046875 151.988281 71.835938 153.027344 70.550781 C 153.777344 69.625 154.542969 68.671875 154.949219 67.570312 C 154.84375 67.46875 153.730469 66.425781 152.160156 65.800781 C 152.292969 66.183594 152.367188 66.601562 152.367188 67.035156 C 152.367188 68.96875 150.945312 70.535156 149.191406 70.535156 C 147.554688 70.535156 146.207031 69.167969 146.035156 67.414062 C 145.753906 67.777344 145.605469 68.046875 145.601562 68.054688 L 145.535156 68.019531 C 145.8125 70.191406 145.605469 71.28125 145.351562 72.625 C 145.117188 73.851562 144.855469 75.238281 144.855469 77.886719 C 144.855469 84.933594 149.34375 92.589844 159.378906 93.8125 C 160.117188 93.902344 160.902344 93.945312 161.710938 93.945312 C 171.4375 93.945312 184.664062 87.300781 187.136719 78.734375 L 187.269531 78.464844 L 187.550781 78.464844 C 191.429688 78.464844 195.234375 73.261719 195.234375 67.960938 C 195.234375 66.902344 194.996094 65.988281 194.601562 65.21875 Z M 269.832031 161.464844 C 269.832031 116.375 238.1875 78.535156 195.933594 68.972656 C 195.488281 74.15625 191.726562 78.976562 187.769531 79.199219 C 187.300781 80.699219 186.507812 82.136719 185.484375 83.492188 C 187.742188 85.992188 189.417969 89.03125 190.289062 92.386719 C 202.894531 95.628906 219.535156 103.679688 234.757812 123.078125 C 251.226562 144.070312 258.125 165.425781 253.683594 181.664062 C 252.226562 186.992188 249.539062 191.417969 246.007812 194.464844 L 263.902344 194.464844 C 267.734375 184.179688 269.832031 173.066406 269.832031 161.464844 Z M 98.953125 249.152344 L 154.355469 249.152344 L 154.355469 239.863281 L 98.953125 239.863281 Z M 99.238281 239.121094 L 154.515625 239.121094 L 174.261719 206.148438 L 118.984375 206.148438 Z M 155.097656 239.59375 L 155.097656 248.179688 L 174.546875 215.703125 L 174.546875 207.117188 Z M 105.960938 226.449219 L 118.453125 205.582031 L 118.773438 205.402344 L 174.917969 205.402344 L 175.289062 205.773438 L 175.289062 217.398438 L 154.9375 251.382812 L 144.972656 251.382812 C 154.496094 254.585938 164.609375 256.300781 174.972656 256.300781 C 214.164062 256.300781 249.730469 231.769531 263.648438 195.207031 L 245.089844 195.207031 C 243.683594 196.28125 242.167969 197.152344 240.546875 197.785156 C 236.746094 199.269531 231.210938 199.910156 224.886719 199.910156 C 214.042969 199.910156 200.886719 198.015625 190.183594 195.207031 L 86.300781 195.207031 C 90.796875 207.019531 97.554688 217.570312 105.960938 226.449219 Z M 145.53125 152.015625 C 144.964844 152.695312 142.65625 152.046875 136.199219 150.007812 C 129.910156 148.023438 120.402344 145.027344 119.050781 146.832031 C 118.925781 147 118.898438 147.167969 118.96875 147.378906 C 119.863281 150.128906 133.621094 154.917969 138.84375 156.527344 L 138.625 157.238281 C 137.804688 156.984375 134.296875 155.886719 130.417969 154.429688 C 129.570312 154.421875 128.882812 154.984375 128.773438 155.808594 C 128.542969 157.589844 130.96875 159.921875 136.921875 161.101562 L 136.777344 161.828125 C 133.800781 161.238281 131.710938 160.394531 130.320312 159.460938 C 129.464844 159.492188 128.757812 160.113281 128.648438 160.964844 C 128.433594 162.589844 130.382812 164.929688 136.578125 166.15625 L 136.433594 166.886719 C 133.773438 166.359375 131.851562 165.621094 130.5 164.792969 C 129.621094 164.761719 128.941406 165.269531 128.820312 166.050781 C 128.554688 167.722656 130.824219 170.054688 136.492188 171.496094 C 144.855469 173.625 146.84375 173.777344 149.359375 173.972656 C 149.917969 174.015625 150.5 174.058594 151.183594 174.128906 C 152.351562 174.246094 155.777344 175.507812 160.515625 177.257812 C 160.675781 177.316406 160.839844 177.378906 161.003906 177.4375 C 160.292969 174.59375 159.796875 170.027344 161.320312 164.207031 C 162.738281 158.769531 164.75 155.394531 166.316406 153.421875 C 162.191406 152.640625 159.472656 152.121094 158.828125 151.851562 C 156.625 150.933594 150.132812 146.09375 147.898438 140.121094 C 147.300781 138.535156 146.113281 137.492188 145.054688 137.640625 C 144.078125 137.78125 143.429688 138.914062 143.285156 140.753906 C 143.089844 143.242188 144.082031 145.890625 144.878906 148.015625 C 145.625 150.003906 146.117188 151.316406 145.53125 152.015625 Z M 162.039062 164.394531 C 159.707031 173.304688 162.3125 179.308594 162.765625 180.253906 L 168.578125 182.09375 C 167.140625 177.894531 167.0625 172.398438 168.542969 166.605469 C 169.941406 161.117188 172.433594 156.511719 175.480469 153.460938 L 168.988281 151.769531 C 168.238281 152.332031 164.335938 155.613281 162.039062 164.394531 Z M 162.25 180.867188 L 162.175781 180.738281 C 162.125 180.644531 161.683594 179.804688 161.242188 178.320312 C 160.910156 178.199219 160.582031 178.078125 160.257812 177.957031 C 155.746094 176.292969 152.183594 174.976562 151.109375 174.867188 C 150.433594 174.800781 149.855469 174.757812 149.300781 174.714844 C 146.75 174.515625 144.734375 174.359375 136.308594 172.214844 C 134.363281 171.71875 132.824219 171.132812 131.625 170.503906 L 129.976562 194.464844 L 187.484375 194.464844 C 180.582031 192.472656 174.972656 190.105469 172.128906 187.660156 C 170.757812 186.484375 169.675781 184.882812 168.902344 182.976562 Z M 65.320312 182.035156 C 67.28125 185.558594 79.28125 192.15625 85.828125 194.464844 L 129.230469 194.464844 L 130.90625 170.101562 C 128.640625 168.71875 127.886719 167.179688 128.082031 165.9375 C 128.21875 165.085938 128.816406 164.445312 129.613281 164.179688 C 128.25 163.085938 127.773438 161.898438 127.910156 160.867188 C 128.035156 159.925781 128.6875 159.175781 129.542969 158.867188 C 128.335938 157.8125 127.90625 156.691406 128.035156 155.710938 C 128.136719 154.945312 128.59375 154.324219 129.226562 153.976562 C 124.175781 152.019531 118.894531 149.554688 118.261719 147.609375 C 118.117188 147.171875 118.1875 146.75 118.457031 146.390625 C 119.769531 144.632812 125.164062 145.863281 132.421875 148.058594 L 133.554688 131.621094 L 134.296875 131.671875 L 133.152344 148.28125 C 134.210938 148.605469 135.300781 148.945312 136.421875 149.300781 C 140.160156 150.480469 144.394531 151.816406 144.960938 151.539062 C 145.265625 151.171875 144.714844 149.703125 144.179688 148.277344 C 143.359375 146.082031 142.332031 143.347656 142.542969 140.699219 C 142.792969 137.546875 144.3125 136.996094 144.949219 136.90625 C 146.371094 136.703125 147.863281 137.925781 148.589844 139.863281 C 150.75 145.621094 156.992188 150.285156 159.113281 151.167969 C 159.699219 151.414062 162.804688 152.003906 166.738281 152.75 C 166.777344 152.757812 166.820312 152.765625 166.859375 152.773438 C 167.890625 151.597656 168.636719 151.101562 168.710938 151.054688 L 168.851562 150.964844 L 176.113281 152.855469 C 177.921875 151.210938 179.90625 150.101562 181.960938 149.664062 C 187.441406 148.492188 196.667969 149.765625 205.386719 151.597656 L 200.28125 131.742188 L 201 131.554688 L 206.199219 151.769531 C 216.972656 154.078125 226.777344 157.152344 227.511719 157.382812 L 227.285156 158.09375 C 226.960938 157.988281 194.371094 147.777344 182.117188 150.390625 C 176.546875 151.582031 171.5 158.015625 169.261719 166.789062 C 167.046875 175.476562 168.363281 183.445312 172.613281 187.097656 C 182.140625 195.28125 225.550781 202.835938 240.277344 197.089844 C 246.265625 194.753906 250.890625 189.058594 252.96875 181.46875 C 257.34375 165.457031 250.492188 144.34375 234.171875 123.539062 C 219.21875 104.480469 202.902344 96.472656 190.476562 93.203125 C 190.792969 94.65625 190.964844 96.164062 190.964844 97.710938 C 190.964844 109.414062 181.441406 118.9375 169.734375 118.9375 C 158.027344 118.9375 148.503906 109.414062 148.503906 97.710938 C 148.503906 97.652344 148.507812 97.589844 148.507812 97.53125 C 135.253906 104.167969 127.308594 115.601562 122.714844 125.203125 C 116.359375 138.484375 114.898438 151.109375 114.78125 152.210938 L 121.945312 176.542969 L 121.230469 176.753906 L 114.117188 152.585938 C 111.339844 152.042969 81.972656 146.488281 72.148438 151.3125 C 67.992188 153.355469 64.835938 157.242188 63.269531 162.25 C 61.25 168.703125 62.019531 176.097656 65.320312 182.035156 Z M 56.617188 178.96875 L 64.125 181.351562 C 61.195312 175.433594 60.601562 168.300781 62.5625 162.027344 C 63.863281 157.875 66.21875 154.46875 69.324219 152.175781 L 62.839844 150.488281 C 62.089844 151.054688 58.175781 154.359375 55.890625 163.109375 C 53.558594 172.023438 56.164062 178.027344 56.617188 178.96875 Z M 18.421875 163.238281 C 18.023438 163.71875 17.671875 164.546875 17.890625 165.414062 C 18.136719 166.382812 19.671875 167.511719 20.777344 167.804688 L 21.105469 167.894531 C 22.558594 168.304688 23.707031 168.488281 24.1875 166.824219 C 24.761719 164.847656 22.816406 164.023438 22.683594 163.96875 C 21.382812 163.558594 20.214844 163.003906 19.507812 162.605469 C 19.179688 162.605469 18.757812 162.839844 18.421875 163.238281 Z M 17.78125 158.460938 C 17.496094 159.394531 17.871094 160.789062 19.777344 161.902344 C 20.445312 162.292969 21.632812 162.867188 22.945312 163.277344 L 22.945312 163.273438 C 22.953125 163.277344 22.964844 163.28125 22.972656 163.285156 C 23.996094 163.601562 25.09375 163.820312 26.074219 163.765625 C 26.992188 163.714844 27.761719 163.019531 27.898438 162.109375 C 28.050781 161.09375 27.363281 160.195312 26.050781 159.707031 C 25.949219 159.679688 25.847656 159.65625 25.746094 159.625 C 25.246094 159.464844 24.75 159.3125 24.265625 159.164062 C 22.3125 158.566406 20.472656 158.003906 19.34375 157.261719 C 18.605469 157.28125 18.003906 157.738281 17.78125 158.460938 Z M 17.859375 153.285156 C 17.5 154.316406 18.171875 155.550781 19.664062 156.585938 C 20.683594 157.292969 22.527344 157.855469 24.484375 158.453125 C 24.972656 158.605469 25.472656 158.753906 25.972656 158.914062 C 27.984375 159.550781 29.4375 158.804688 29.78125 157.78125 C 30.058594 156.972656 29.652344 155.765625 27.617188 155.039062 L 27.617188 155.035156 C 26.769531 154.777344 23.28125 153.679688 19.421875 152.230469 C 18.699219 152.230469 18.085938 152.636719 17.859375 153.285156 Z M 7.976562 145.179688 C 8.871094 147.933594 22.628906 152.71875 27.851562 154.332031 L 27.742188 154.6875 L 27.867188 154.335938 C 30.246094 155.1875 30.898438 156.800781 30.488281 158.019531 C 30.167969 158.972656 29.171875 159.753906 27.757812 159.871094 C 28.535156 160.59375 28.746094 161.484375 28.632812 162.222656 C 28.445312 163.480469 27.382812 164.441406 26.113281 164.507812 C 26.003906 164.515625 25.894531 164.519531 25.78125 164.519531 C 25.34375 164.519531 24.894531 164.472656 24.4375 164.398438 C 24.929688 165.035156 25.226562 165.910156 24.902344 167.027344 C 24.710938 167.695312 24.414062 168.132812 24.066406 168.425781 C 33.761719 170.890625 36.5625 171.566406 40.191406 171.929688 C 41.359375 172.046875 44.785156 173.3125 49.523438 175.0625 C 51.226562 175.691406 53.113281 176.386719 55.113281 177.109375 C 54.292969 174.390625 53.464844 169.445312 55.167969 162.921875 C 56.585938 157.496094 58.59375 154.121094 60.15625 152.152344 C 58.535156 151.835938 57.003906 151.546875 55.605469 151.28125 C 51.324219 150.46875 48.496094 149.929688 47.835938 149.65625 C 45.632812 148.734375 39.140625 143.894531 36.90625 137.925781 C 36.3125 136.339844 35.109375 135.292969 34.066406 135.445312 C 33.085938 135.582031 32.441406 136.714844 32.292969 138.558594 C 32.097656 141.042969 33.089844 143.691406 33.886719 145.820312 C 34.632812 147.804688 35.125 149.117188 34.539062 149.820312 C 34.234375 150.183594 33.425781 150.164062 31.753906 149.753906 C 31.644531 151.679688 31.476562 159.628906 35.863281 163 L 35.410156 163.589844 C 30.5625 159.863281 30.890625 151.328125 31.015625 149.566406 C 29.617188 149.191406 27.734375 148.609375 25.210938 147.8125 C 18.917969 145.828125 9.410156 142.832031 8.058594 144.636719 C 7.933594 144.804688 7.910156 144.972656 7.976562 145.179688 Z M 168.183594 79.921875 C 167.039062 83.265625 163.039062 85.785156 158.878906 85.785156 C 155.019531 85.785156 151.988281 83.628906 150.5625 79.863281 L 150.371094 79.359375 L 168.355469 79.433594 Z M 151.464844 80.105469 C 152.847656 83.253906 155.519531 85.042969 158.878906 85.042969 C 162.527344 85.042969 166.035156 82.980469 167.289062 80.171875 Z M 167.558594 70.535156 C 169.492188 70.535156 171.058594 68.96875 171.058594 67.035156 C 171.058594 66.589844 170.972656 66.164062 170.816406 65.769531 C 172.6875 66.417969 174.015625 67.578125 174.035156 67.597656 L 174.53125 67.042969 C 174.390625 66.921875 171.109375 64.035156 167.316406 64.695312 C 164.472656 65.191406 163.050781 67.59375 162.992188 67.695312 L 163.636719 68.070312 C 163.640625 68.0625 163.792969 67.808594 164.085938 67.460938 C 164.296875 69.191406 165.769531 70.535156 167.558594 70.535156 Z M 176.898438 63.527344 C 176.898438 63.527344 176.898438 60.382812 175.328125 59.371094 C 173.804688 58.390625 168.207031 55.679688 162.515625 58.273438 C 160.664062 59.160156 160.835938 64.117188 163.339844 63.484375 C 169.789062 61.851562 176.898438 63.527344 176.898438 63.527344 Z M 102.007812 243.207031 L 151.300781 243.207031 L 151.300781 242.464844 L 102.007812 242.464844 Z M 102.007812 246.550781 L 151.300781 246.550781 L 151.300781 245.808594 L 102.007812 245.808594 Z M 196.386719 203.644531 C 196.792969 203.644531 197.195312 203.753906 197.546875 203.964844 C 198.488281 204.53125 198.871094 205.671875 198.515625 206.667969 C 198.722656 207.277344 198.683594 207.964844 198.328125 208.558594 L 179.492188 240.03125 L 175.4375 243.039062 L 175.207031 242.898438 L 175.203125 243.109375 L 175.203125 242.894531 L 174.851562 242.683594 L 175.050781 241.316406 L 174.851562 241.199219 L 175.554688 236.355469 L 175.605469 236.21875 L 194.4375 204.746094 C 194.847656 204.066406 195.589844 203.644531 196.386719 203.644531 Z M 175.714844 240.425781 L 178.734375 238.214844 C 178.222656 236.835938 176.816406 236.617188 176.273438 236.585938 Z M 179.234375 237.527344 L 197.691406 206.691406 C 198.121094 205.972656 197.886719 205.035156 197.167969 204.605469 C 196.464844 204.1875 195.492188 204.4375 195.078125 205.128906 L 176.675781 235.878906 C 177.535156 236.003906 178.636719 236.445312 179.234375 237.527344 Z M 179.234375 237.527344 " fill-opacity="1" fill-rule="nonzero"/></g></svg>