<svg xmlns="http://www.w3.org/2000/svg" xmlns:xlink="http://www.w3.org/1999/xlink" width="370" zoomAndPan="magnify" viewBox="0 0 277.5 284.999983" height="380" preserveAspectRatio="xMidYMid meet" version="1.0"><defs><clipPath id="db8138ce23"><path d="M 46 6 L 231 6 L 231 279.792969 L 46 279.792969 Z M 46 6 " clip-rule="nonzero"/></clipPath><clipPath id="cc353d5723"><path d="M 48 209 L 229 209 L 229 279.792969 L 48 279.792969 Z M 48 209 " clip-rule="nonzero"/></clipPath><clipPath id="7b66d58b48"><path d="M 45.527344 5.039062 L 231.191406 5.039062 L 231.191406 279.792969 L 45.527344 279.792969 Z M 45.527344 5.039062 " clip-rule="nonzero"/></clipPath></defs><g clip-path="url(#db8138ce23)"><path fill="#ffffff" d="M 228.109375 208.640625 L 227.996094 209.113281 L 228.003906 209.113281 C 223.175781 228.824219 211.726562 246.671875 195.761719 259.375 C 181.253906 270.917969 163.867188 277.746094 145.484375 279.125 C 144.777344 279.179688 144.097656 279.222656 143.417969 279.257812 L 142.863281 279.285156 C 142.347656 279.3125 141.832031 279.328125 141.316406 279.34375 C 141.316406 279.34375 140.742188 279.363281 140.539062 279.367188 C 140.023438 279.378906 139.503906 279.386719 138.980469 279.386719 C 138.980469 279.386719 138.496094 279.398438 138.382812 279.398438 C 138.269531 279.398438 137.785156 279.386719 137.785156 279.386719 C 137.261719 279.386719 136.742188 279.378906 136.226562 279.367188 C 136.023438 279.363281 135.453125 279.34375 135.453125 279.34375 C 134.933594 279.328125 134.417969 279.3125 133.902344 279.285156 L 133.347656 279.257812 C 132.667969 279.222656 131.988281 279.179688 131.3125 279.128906 C 112.898438 277.746094 95.511719 270.917969 81.003906 259.375 C 65.03125 246.667969 53.578125 228.808594 48.753906 209.085938 L 48.65625 208.640625 C 46.957031 201.582031 46.097656 194.3125 46.097656 187.03125 C 46.097656 163.417969 55.035156 140.929688 71.265625 123.703125 L 71.386719 123.578125 L 71.367188 123.402344 C 70.921875 119.019531 71 115.832031 71.597656 113.929688 C 72.984375 109.503906 78.125 105.542969 81.148438 104.496094 C 81.855469 104.25 82.90625 104.121094 84.1875 104.121094 C 87.554688 104.121094 91.652344 105 93.515625 106.117188 L 93.707031 106.230469 L 93.902344 106.125 C 99.582031 102.980469 105.613281 100.441406 111.820312 98.570312 L 112.085938 98.488281 L 112.089844 98.210938 C 112.113281 97.371094 112.167969 96.515625 112.261719 95.675781 C 112.324219 94.867188 112.425781 94.070312 112.5625 93.296875 L 112.597656 93.097656 L 112.453125 92.957031 C 111.097656 91.617188 106.699219 86.574219 105.941406 77.066406 L 110.308594 79.027344 L 109.9375 78.136719 C 109.921875 78.097656 108.429688 74.417969 109.582031 70.054688 C 110.949219 70.960938 115.269531 73.480469 121.0625 73.480469 C 121.476562 73.480469 121.898438 73.464844 122.3125 73.4375 C 124.898438 73.273438 127.976562 73.101562 131.191406 73.101562 C 134.195312 73.101562 136.921875 73.253906 139.300781 73.554688 C 140.703125 73.683594 142.109375 73.9375 143.484375 74.304688 C 145.910156 74.902344 147.90625 75.722656 149.4375 76.75 L 149.449219 76.761719 L 149.492188 76.785156 C 156.9375 81.074219 161.582031 88.949219 161.617188 97.339844 L 161.621094 97.632812 L 161.902344 97.707031 C 164.640625 98.429688 167.355469 99.28125 169.96875 100.238281 L 170.300781 100.359375 L 170.449219 100.039062 C 171.933594 96.804688 172.707031 94.605469 172.800781 94.339844 L 175.214844 95.90625 L 175.386719 95.472656 C 177.023438 91.402344 178.421875 88.085938 179.539062 85.621094 C 182.164062 79.824219 196.394531 38.292969 198.007812 33.574219 L 198.058594 33.433594 L 197.996094 33.296875 C 195.949219 28.6875 198.136719 24.898438 199.171875 23.484375 L 199.492188 23.046875 L 198.972656 22.890625 C 197.453125 22.433594 196.636719 21.847656 196.5 21.46875 C 196.429688 21.285156 196.359375 20.820312 196.355469 20.054688 L 196.355469 19.894531 L 196.238281 19.78125 C 195.523438 19.097656 195.007812 18.476562 194.894531 18.15625 C 194.867188 18.085938 194.824219 17.902344 194.820312 17.492188 L 194.820312 17.253906 L 194.609375 17.148438 C 194.242188 16.96875 193.988281 16.683594 193.832031 16.28125 C 193.210938 14.667969 194.285156 11.472656 195.628906 9.019531 C 196.496094 7.445312 201.957031 6.175781 205.90625 6.175781 C 207.1875 6.175781 208.238281 6.304688 208.945312 6.550781 C 211.96875 7.597656 217.109375 11.558594 218.5 15.984375 C 219.496094 19.164062 219.0625 25.632812 217.171875 35.761719 C 216.921875 37.105469 216.679688 39.296875 216.34375 42.335938 C 215.1875 52.804688 213.03125 72.296875 206.34375 93.847656 C 204.773438 98.917969 202.839844 105.039062 200.597656 112.039062 L 200.511719 112.320312 L 206.308594 116.082031 C 205.691406 117.988281 204.980469 119.914062 204.144531 121.96875 L 204.050781 122.203125 L 204.226562 122.382812 C 221.277344 139.777344 230.664062 162.734375 230.664062 187.03125 C 230.664062 194.3125 229.804688 201.582031 228.109375 208.640625 Z M 228.109375 208.640625 " fill-opacity="1" fill-rule="nonzero"/></g><path fill="#6bad3d" d="M 206.335938 116.070312 C 205.65625 118.171875 204.902344 120.195312 204.097656 122.15625 C 195.777344 142.464844 181.800781 155.332031 181.800781 161.847656 C 181.800781 165.027344 181.800781 181.84375 181.800781 199.535156 C 173.320312 199.535156 158.960938 199.535156 156.6875 199.535156 C 153.425781 199.535156 151.652344 203.074219 151.652344 203.074219 C 151.652344 203.074219 149.875 199.535156 146.617188 199.535156 C 143.355469 199.535156 115.25 199.535156 115.25 199.535156 L 109.828125 209.089844 L 99.671875 209.089844 L 99.671875 199.085938 C 101.160156 196.730469 101.886719 193.628906 101.429688 189.796875 C 100.132812 178.957031 97.511719 162.84375 95.375 150.28125 C 103.203125 142.875 114.140625 137.238281 129.59375 133.742188 C 129.59375 135.4375 129.59375 136.628906 129.59375 136.984375 C 129.59375 142.027344 133.675781 146.113281 138.714844 146.113281 C 143.753906 146.113281 147.835938 142.027344 147.835938 136.984375 C 147.835938 135.910156 147.835938 131.808594 147.835938 128.175781 C 159.363281 121.253906 166.769531 108.039062 170.316406 100.320312 C 171.972656 96.710938 172.789062 94.304688 172.789062 94.304688 L 175.203125 95.871094 L 200.539062 112.3125 Z M 155.308594 245.058594 L 153.195312 245.0625 L 111.265625 245.089844 L 106.371094 246.535156 L 111.269531 247.976562 L 122.160156 247.96875 L 122.160156 247.976562 L 155.308594 247.945312 C 156.105469 247.945312 156.75 247.296875 156.75 246.5 C 156.75 245.703125 156.105469 245.058594 155.308594 245.058594 Z M 155.308594 245.058594 " fill-opacity="1" fill-rule="nonzero"/><path fill="#e88972" d="M 217.195312 35.769531 C 216.082031 41.753906 214.96875 66.132812 206.367188 93.855469 C 204.503906 99.867188 202.386719 106.539062 200.539062 112.3125 L 175.203125 95.871094 C 176.691406 92.160156 178.214844 88.484375 179.515625 85.613281 C 182.292969 79.492188 198.035156 33.433594 198.035156 33.433594 C 195.355469 27.613281 199.46875 23.066406 199.472656 23.0625 C 198.046875 22.703125 196.695312 22.078125 196.476562 21.476562 C 196.378906 21.210938 196.324219 20.632812 196.332031 19.902344 C 196.332031 19.898438 195.078125 18.734375 194.871094 18.164062 C 194.808594 17.996094 194.789062 17.679688 194.800781 17.265625 C 192.492188 16.472656 194.042969 11.878906 195.613281 9.011719 C 196.738281 6.953125 205.699219 5.402344 208.953125 6.527344 C 212.0625 7.605469 217.175781 11.6875 218.523438 15.976562 C 219.867188 20.269531 218.3125 29.785156 217.195312 35.769531 Z M 161.628906 106.4375 C 161.628906 111.609375 157.882812 117.042969 153.765625 116.992188 C 152.957031 119.800781 150.738281 122.3125 147.835938 124.4375 C 147.835938 125.488281 147.835938 126.796875 147.835938 128.175781 C 147.835938 131.804688 147.835938 135.90625 147.835938 136.984375 C 147.835938 142.027344 143.753906 146.113281 138.714844 146.113281 C 133.675781 146.113281 129.59375 142.027344 129.59375 136.984375 C 129.59375 136.628906 129.59375 135.4375 129.59375 133.742188 C 129.59375 133.105469 129.59375 132.398438 129.59375 131.636719 C 128.453125 131.796875 127.394531 131.882812 126.46875 131.882812 C 120.703125 131.882812 112.074219 123.136719 112.074219 116.070312 C 112.074219 110.304688 113.371094 110.460938 112.636719 105.851562 C 112.5 104.980469 112.382812 104.121094 112.289062 103.285156 C 112.285156 103.234375 112.285156 103.191406 112.277344 103.140625 C 112.167969 102.007812 112.097656 100.910156 112.074219 99.855469 C 112.066406 99.691406 112.058594 99.523438 112.058594 99.367188 C 112.058594 99.058594 112.0625 98.757812 112.066406 98.457031 C 112.273438 86.402344 118.894531 79.691406 131.847656 79.691406 C 146.011719 79.691406 151.65625 86.949219 153.519531 95.882812 C 153.867188 97.554688 154.082031 99.28125 154.199219 101.03125 C 157.296875 99.765625 161.628906 101.769531 161.628906 106.4375 Z M 134.710938 117.929688 L 118.304688 117.863281 C 121.605469 126.574219 130.769531 124.636719 134.710938 117.929688 Z M 95.375 150.28125 C 93.542969 139.53125 92.0625 131.382812 92.0625 131.382812 C 94.738281 125.558594 90.621094 121.011719 90.621094 121.011719 C 92.050781 120.652344 93.402344 120.023438 93.621094 119.421875 C 93.714844 119.160156 93.769531 118.578125 93.761719 117.847656 C 93.765625 117.84375 95.019531 116.679688 95.222656 116.113281 C 95.285156 115.945312 95.308594 115.625 95.292969 115.214844 C 97.605469 114.417969 96.054688 109.824219 94.484375 106.957031 C 94.335938 106.691406 94.054688 106.433594 93.675781 106.1875 C 91.125 104.542969 83.972656 103.496094 81.140625 104.476562 C 78.03125 105.550781 72.917969 109.632812 71.574219 113.925781 C 70.878906 116.136719 70.957031 119.734375 71.347656 123.519531 C 71.714844 127.082031 72.355469 130.8125 72.898438 133.714844 C 74.015625 139.699219 67.785156 176.417969 71.539062 190.59375 C 75.632812 206.039062 93.730469 208.46875 99.667969 199.085938 C 101.160156 196.730469 101.886719 193.628906 101.429688 189.796875 C 100.132812 178.957031 97.515625 162.84375 95.375 150.28125 Z M 95.375 150.28125 " fill-opacity="1" fill-rule="nonzero"/><g clip-path="url(#cc353d5723)"><path fill="#959bff" d="M 228.03125 209.089844 L 193.476562 209.089844 L 204.589844 228.675781 L 204.535156 236.355469 L 98.765625 236.355469 L 98.710938 228.675781 L 109.828125 209.089844 L 48.730469 209.089844 C 48.742188 209.132812 48.753906 209.171875 48.761719 209.214844 C 48.898438 209.769531 49.039062 210.320312 49.1875 210.871094 C 49.210938 210.96875 49.238281 211.066406 49.265625 211.164062 C 49.414062 211.722656 49.570312 212.277344 49.730469 212.832031 C 49.738281 212.855469 49.742188 212.878906 49.75 212.898438 C 50.269531 214.679688 50.839844 216.4375 51.457031 218.171875 C 51.484375 218.242188 51.507812 218.316406 51.535156 218.390625 C 51.703125 218.859375 51.882812 219.328125 52.058594 219.796875 C 52.125 219.976562 52.195312 220.15625 52.261719 220.335938 C 52.429688 220.769531 52.601562 221.203125 52.777344 221.632812 C 52.859375 221.84375 52.945312 222.050781 53.03125 222.261719 C 53.203125 222.675781 53.378906 223.089844 53.554688 223.503906 C 53.644531 223.71875 53.742188 223.929688 53.835938 224.144531 C 54.015625 224.554688 54.195312 224.96875 54.382812 225.375 C 54.464844 225.558594 54.550781 225.738281 54.636719 225.921875 C 55.078125 226.871094 55.53125 227.8125 56 228.742188 C 56.027344 228.789062 56.050781 228.839844 56.074219 228.890625 C 56.261719 229.253906 56.453125 229.617188 56.644531 229.980469 C 56.777344 230.230469 56.90625 230.480469 57.039062 230.730469 C 57.222656 231.070312 57.410156 231.40625 57.59375 231.742188 C 57.746094 232.011719 57.894531 232.28125 58.046875 232.550781 C 58.230469 232.875 58.414062 233.195312 58.601562 233.519531 C 58.765625 233.796875 58.929688 234.074219 59.09375 234.351562 C 59.277344 234.660156 59.464844 234.96875 59.652344 235.277344 C 59.832031 235.570312 60.011719 235.859375 60.195312 236.144531 C 60.378906 236.4375 60.558594 236.730469 60.746094 237.019531 C 60.96875 237.363281 61.195312 237.703125 61.417969 238.046875 C 61.6875 238.445312 61.953125 238.84375 62.226562 239.242188 C 62.480469 239.609375 62.730469 239.976562 62.988281 240.339844 C 63.167969 240.59375 63.347656 240.84375 63.53125 241.09375 C 63.753906 241.402344 63.976562 241.710938 64.203125 242.019531 C 64.394531 242.277344 64.585938 242.53125 64.78125 242.785156 C 65.007812 243.082031 65.234375 243.382812 65.464844 243.675781 C 65.65625 243.925781 65.851562 244.175781 66.046875 244.421875 C 66.289062 244.726562 66.53125 245.023438 66.773438 245.324219 C 66.964844 245.558594 67.15625 245.792969 67.347656 246.027344 C 67.621094 246.351562 67.894531 246.675781 68.171875 247 C 68.339844 247.199219 68.507812 247.398438 68.679688 247.597656 C 69.117188 248.101562 69.5625 248.605469 70.011719 249.101562 C 70.140625 249.242188 70.273438 249.382812 70.402344 249.523438 C 70.738281 249.890625 71.074219 250.253906 71.417969 250.613281 C 71.605469 250.8125 71.796875 251.007812 71.984375 251.203125 C 72.273438 251.503906 72.566406 251.804688 72.859375 252.101562 C 73.066406 252.308594 73.269531 252.511719 73.476562 252.714844 C 73.765625 253 74.054688 253.285156 74.347656 253.566406 C 74.554688 253.765625 74.761719 253.96875 74.972656 254.164062 C 75.277344 254.453125 75.585938 254.742188 75.894531 255.027344 C 76.09375 255.207031 76.292969 255.390625 76.492188 255.574219 C 76.855469 255.902344 77.222656 256.226562 77.589844 256.550781 C 77.738281 256.679688 77.886719 256.8125 78.039062 256.945312 C 78.550781 257.386719 79.066406 257.824219 79.589844 258.257812 C 79.753906 258.390625 79.917969 258.523438 80.082031 258.660156 C 80.453125 258.960938 80.824219 259.261719 81.195312 259.554688 C 81.410156 259.722656 81.625 259.890625 81.839844 260.058594 C 82.171875 260.316406 82.507812 260.570312 82.84375 260.824219 C 83.070312 260.996094 83.300781 261.167969 83.527344 261.339844 C 83.859375 261.585938 84.195312 261.828125 84.527344 262.070312 C 84.761719 262.234375 84.992188 262.402344 85.222656 262.566406 C 85.574219 262.816406 85.929688 263.058594 86.285156 263.304688 C 86.503906 263.453125 86.714844 263.601562 86.933594 263.746094 C 87.386719 264.050781 87.84375 264.351562 88.300781 264.648438 C 88.421875 264.726562 88.542969 264.808594 88.664062 264.886719 C 89.234375 265.25 89.808594 265.609375 90.386719 265.964844 C 90.605469 266.09375 90.820312 266.222656 91.039062 266.351562 C 91.414062 266.578125 91.792969 266.800781 92.171875 267.023438 C 92.421875 267.167969 92.675781 267.3125 92.929688 267.453125 C 93.28125 267.65625 93.636719 267.855469 93.992188 268.050781 C 94.253906 268.195312 94.515625 268.335938 94.78125 268.476562 C 95.136719 268.667969 95.492188 268.855469 95.851562 269.042969 C 96.113281 269.179688 96.375 269.316406 96.636719 269.449219 C 97.019531 269.644531 97.40625 269.835938 97.792969 270.023438 C 98.03125 270.140625 98.269531 270.261719 98.511719 270.378906 C 99.082031 270.652344 99.65625 270.917969 100.234375 271.179688 C 100.441406 271.277344 100.65625 271.371094 100.867188 271.464844 C 101.328125 271.667969 101.792969 271.875 102.257812 272.074219 C 102.527344 272.1875 102.796875 272.296875 103.066406 272.40625 C 103.441406 272.5625 103.816406 272.71875 104.191406 272.871094 C 104.484375 272.984375 104.777344 273.101562 105.070312 273.214844 C 105.433594 273.351562 105.792969 273.492188 106.15625 273.625 C 106.457031 273.738281 106.757812 273.851562 107.058594 273.957031 C 107.425781 274.089844 107.792969 274.21875 108.160156 274.34375 C 108.457031 274.449219 108.753906 274.554688 109.054688 274.652344 C 109.453125 274.785156 109.851562 274.914062 110.25 275.042969 C 110.523438 275.128906 110.792969 275.21875 111.0625 275.304688 C 111.707031 275.5 112.351562 275.695312 113 275.878906 C 113.269531 275.957031 113.542969 276.027344 113.8125 276.101562 C 114.222656 276.214844 114.628906 276.328125 115.042969 276.433594 C 115.359375 276.515625 115.675781 276.59375 115.992188 276.675781 C 116.363281 276.765625 116.734375 276.859375 117.105469 276.945312 C 117.433594 277.023438 117.765625 277.097656 118.09375 277.171875 C 118.460938 277.257812 118.828125 277.335938 119.195312 277.414062 C 119.527344 277.484375 119.859375 277.554688 120.195312 277.621094 C 120.566406 277.695312 120.941406 277.765625 121.316406 277.835938 C 121.644531 277.898438 121.976562 277.960938 122.304688 278.019531 C 122.71875 278.089844 123.132812 278.15625 123.550781 278.222656 C 123.886719 278.277344 124.226562 278.335938 124.5625 278.386719 C 125.1875 278.480469 125.816406 278.570312 126.449219 278.648438 C 126.773438 278.691406 127.101562 278.726562 127.429688 278.765625 C 127.816406 278.8125 128.207031 278.859375 128.597656 278.898438 C 128.945312 278.9375 129.296875 278.96875 129.644531 279.003906 C 130.019531 279.039062 130.390625 279.070312 130.765625 279.101562 C 131.121094 279.132812 131.480469 279.15625 131.835938 279.183594 C 132.210938 279.210938 132.582031 279.234375 132.957031 279.253906 C 133.3125 279.273438 133.671875 279.292969 134.03125 279.3125 C 134.414062 279.328125 134.800781 279.34375 135.1875 279.355469 C 135.535156 279.367188 135.882812 279.382812 136.230469 279.390625 C 136.691406 279.398438 137.152344 279.402344 137.613281 279.40625 C 137.871094 279.410156 138.125 279.414062 138.378906 279.414062 C 138.636719 279.414062 138.890625 279.410156 139.144531 279.40625 C 139.605469 279.402344 140.070312 279.398438 140.527344 279.390625 C 140.878906 279.382812 141.226562 279.367188 141.574219 279.355469 C 141.957031 279.34375 142.34375 279.328125 142.730469 279.3125 C 143.089844 279.296875 143.445312 279.273438 143.804688 279.253906 C 144.175781 279.234375 144.550781 279.207031 144.921875 279.183594 C 145.28125 279.15625 145.636719 279.132812 145.992188 279.101562 C 146.367188 279.070312 146.742188 279.039062 147.113281 279.003906 C 147.464844 278.96875 147.8125 278.9375 148.164062 278.898438 C 148.554688 278.859375 148.941406 278.8125 149.332031 278.765625 C 149.660156 278.726562 149.988281 278.691406 150.3125 278.648438 C 150.941406 278.570312 151.570312 278.480469 152.195312 278.386719 C 152.535156 278.335938 152.871094 278.277344 153.210938 278.226562 C 153.625 278.15625 154.042969 278.089844 154.453125 278.019531 C 154.785156 277.960938 155.113281 277.898438 155.445312 277.835938 C 155.816406 277.765625 156.191406 277.695312 156.566406 277.621094 C 156.898438 277.554688 157.234375 277.484375 157.566406 277.414062 C 157.933594 277.335938 158.300781 277.257812 158.664062 277.171875 C 158.996094 277.101562 159.328125 277.023438 159.65625 276.945312 C 160.027344 276.859375 160.398438 276.769531 160.769531 276.675781 C 161.085938 276.597656 161.402344 276.519531 161.71875 276.433594 C 162.128906 276.328125 162.539062 276.214844 162.945312 276.101562 C 163.21875 276.027344 163.492188 275.957031 163.761719 275.878906 C 164.410156 275.695312 165.054688 275.503906 165.699219 275.304688 C 165.96875 275.21875 166.238281 275.128906 166.511719 275.042969 C 166.910156 274.914062 167.308594 274.785156 167.707031 274.652344 C 168.007812 274.554688 168.304688 274.449219 168.601562 274.34375 C 168.96875 274.21875 169.335938 274.089844 169.703125 273.957031 C 170.003906 273.847656 170.304688 273.738281 170.605469 273.625 C 170.96875 273.492188 171.328125 273.351562 171.691406 273.210938 C 171.984375 273.097656 172.277344 272.984375 172.570312 272.867188 C 172.945312 272.71875 173.320312 272.5625 173.695312 272.40625 C 173.964844 272.296875 174.238281 272.183594 174.503906 272.070312 C 174.96875 271.871094 175.433594 271.667969 175.894531 271.460938 C 176.105469 271.367188 176.320312 271.273438 176.527344 271.179688 C 177.105469 270.917969 177.679688 270.648438 178.25 270.375 C 178.492188 270.257812 178.730469 270.140625 178.972656 270.019531 C 179.355469 269.832031 179.738281 269.640625 180.121094 269.449219 C 180.386719 269.316406 180.648438 269.175781 180.910156 269.039062 C 181.269531 268.855469 181.625 268.667969 181.980469 268.476562 C 182.242188 268.335938 182.507812 268.191406 182.769531 268.046875 C 183.125 267.851562 183.476562 267.652344 183.832031 267.453125 C 184.082031 267.308594 184.335938 267.167969 184.585938 267.019531 C 184.96875 266.800781 185.34375 266.574219 185.71875 266.351562 C 185.9375 266.222656 186.15625 266.09375 186.371094 265.960938 C 186.949219 265.609375 187.523438 265.25 188.09375 264.882812 C 188.21875 264.804688 188.339844 264.722656 188.464844 264.640625 C 188.921875 264.347656 189.375 264.046875 189.824219 263.746094 C 190.042969 263.597656 190.257812 263.449219 190.472656 263.300781 C 190.828125 263.058594 191.183594 262.8125 191.535156 262.566406 C 191.769531 262.398438 192 262.234375 192.230469 262.066406 C 192.566406 261.828125 192.898438 261.582031 193.226562 261.339844 C 193.457031 261.167969 193.6875 260.996094 193.917969 260.824219 C 194.253906 260.570312 194.585938 260.3125 194.917969 260.054688 C 195.132812 259.890625 195.347656 259.722656 195.5625 259.554688 C 195.9375 259.257812 196.308594 258.957031 196.675781 258.65625 C 196.839844 258.523438 197.007812 258.390625 197.171875 258.253906 C 197.691406 257.824219 198.210938 257.386719 198.722656 256.941406 C 198.871094 256.8125 199.019531 256.679688 199.171875 256.546875 C 199.539062 256.222656 199.902344 255.898438 200.265625 255.570312 C 200.46875 255.390625 200.667969 255.207031 200.867188 255.023438 C 201.175781 254.738281 201.480469 254.453125 201.785156 254.164062 C 201.996094 253.964844 202.207031 253.765625 202.414062 253.5625 C 202.703125 253.28125 202.992188 253 203.28125 252.714844 C 203.488281 252.511719 203.695312 252.304688 203.898438 252.097656 C 204.191406 251.804688 204.484375 251.503906 204.773438 251.207031 C 204.960938 251.007812 205.15625 250.8125 205.34375 250.613281 C 205.683594 250.253906 206.015625 249.894531 206.351562 249.53125 C 206.484375 249.386719 206.617188 249.242188 206.75 249.097656 C 207.199219 248.601562 207.640625 248.101562 208.078125 247.597656 C 208.253906 247.398438 208.421875 247.199219 208.589844 246.996094 C 208.867188 246.675781 209.140625 246.351562 209.414062 246.027344 C 209.605469 245.792969 209.796875 245.558594 209.988281 245.320312 C 210.230469 245.023438 210.472656 244.726562 210.710938 244.421875 C 210.90625 244.175781 211.101562 243.925781 211.296875 243.675781 C 211.527344 243.378906 211.753906 243.082031 211.980469 242.785156 C 212.171875 242.53125 212.367188 242.273438 212.554688 242.019531 C 212.78125 241.714844 213.003906 241.40625 213.226562 241.097656 C 213.410156 240.84375 213.59375 240.59375 213.773438 240.339844 C 214.027344 239.976562 214.28125 239.609375 214.53125 239.246094 C 214.804688 238.84375 215.074219 238.445312 215.34375 238.039062 C 215.566406 237.699219 215.792969 237.363281 216.015625 237.019531 C 216.203125 236.730469 216.382812 236.433594 216.570312 236.140625 C 216.75 235.855469 216.929688 235.566406 217.105469 235.277344 C 217.296875 234.96875 217.480469 234.660156 217.667969 234.347656 C 217.832031 234.074219 217.996094 233.796875 218.160156 233.519531 C 218.347656 233.195312 218.53125 232.875 218.714844 232.546875 C 218.867188 232.28125 219.019531 232.011719 219.167969 231.742188 C 219.351562 231.40625 219.539062 231.070312 219.722656 230.730469 C 219.855469 230.480469 219.984375 230.230469 220.117188 229.980469 C 220.308594 229.617188 220.5 229.253906 220.6875 228.890625 C 220.707031 228.851562 220.726562 228.8125 220.746094 228.773438 C 221.222656 227.832031 221.679688 226.878906 222.125 225.921875 C 222.210938 225.738281 222.296875 225.558594 222.378906 225.375 C 222.566406 224.964844 222.746094 224.554688 222.929688 224.140625 C 223.019531 223.929688 223.117188 223.71875 223.207031 223.503906 C 223.382812 223.089844 223.558594 222.675781 223.730469 222.257812 C 223.816406 222.050781 223.902344 221.839844 223.984375 221.632812 C 224.160156 221.203125 224.332031 220.769531 224.5 220.335938 C 224.566406 220.15625 224.636719 219.976562 224.703125 219.796875 C 224.882812 219.328125 225.058594 218.859375 225.226562 218.386719 C 225.253906 218.316406 225.277344 218.246094 225.300781 218.175781 C 225.921875 216.441406 226.492188 214.679688 227.011719 212.898438 C 227.019531 212.875 227.023438 212.851562 227.03125 212.832031 C 227.191406 212.277344 227.347656 211.71875 227.496094 211.160156 C 227.523438 211.0625 227.550781 210.964844 227.574219 210.867188 C 227.722656 210.320312 227.863281 209.765625 228 209.214844 C 228.007812 209.171875 228.019531 209.132812 228.03125 209.089844 Z M 155.3125 247.945312 L 122.160156 247.976562 L 122.160156 247.96875 L 111.269531 247.976562 L 106.371094 246.535156 L 111.265625 245.089844 L 153.195312 245.058594 L 153.195312 245.0625 L 155.308594 245.058594 C 156.105469 245.058594 156.75 245.703125 156.75 246.5 C 156.753906 247.296875 156.105469 247.945312 155.3125 247.945312 Z M 155.3125 247.945312 " fill-opacity="1" fill-rule="nonzero"/></g><g clip-path="url(#7b66d58b48)"><path fill="#000000" d="M 156.800781 208.304688 L 189.648438 208.304688 L 189.648438 209.027344 L 156.800781 209.027344 Z M 157.203125 214.726562 L 192.605469 214.726562 L 192.605469 214.003906 L 157.203125 214.003906 Z M 157.671875 221.382812 L 196.058594 221.382812 L 196.058594 220.660156 L 157.671875 220.660156 Z M 152.519531 136.984375 C 152.519531 144.605469 146.328125 150.804688 138.714844 150.804688 C 131.101562 150.804688 124.910156 144.605469 124.910156 136.984375 L 124.1875 136.984375 C 124.1875 145.003906 130.707031 151.523438 138.714844 151.523438 C 146.722656 151.523438 153.242188 145.003906 153.242188 136.984375 L 153.242188 128.230469 L 152.519531 128.230469 Z M 187.09375 203.375 L 156.457031 203.375 L 156.457031 204.09375 L 187.09375 204.09375 Z M 157.113281 246.5 C 157.113281 246.625 157.097656 246.746094 157.074219 246.863281 C 157.097656 246.980469 157.113281 247.097656 157.113281 247.222656 C 157.113281 248.214844 156.304688 249.027344 155.3125 249.027344 L 122.164062 249.058594 L 122.152344 249.050781 L 111.269531 249.058594 L 111.167969 249.042969 L 106.265625 247.605469 L 106.265625 246.910156 L 106.316406 246.898438 L 106.265625 246.882812 L 106.265625 246.191406 L 111.265625 244.730469 L 153.195312 244.699219 L 155.308594 244.699219 C 156.300781 244.699219 157.109375 245.507812 157.113281 246.5 Z M 110.90625 245.574219 L 107.644531 246.535156 L 110.90625 247.492188 Z M 152.835938 247.585938 L 152.835938 245.421875 L 111.628906 245.449219 L 111.628906 247.617188 Z M 156.390625 246.5 C 156.390625 245.90625 155.90625 245.417969 155.308594 245.417969 L 153.554688 245.421875 L 153.558594 247.585938 L 155.308594 247.585938 C 155.90625 247.585938 156.390625 247.097656 156.390625 246.5 Z M 130.019531 106.179688 C 129.777344 106.582031 130.402344 106.941406 130.640625 106.546875 C 130.773438 106.320312 130.921875 106.117188 131.074219 105.925781 C 131.265625 107.617188 132.699219 108.9375 134.441406 108.9375 C 136.316406 108.9375 137.835938 107.417969 137.835938 105.539062 C 137.835938 105.117188 137.753906 104.714844 137.613281 104.34375 C 138.746094 104.703125 139.824219 105.304688 140.707031 106.074219 C 141.054688 106.378906 141.566406 105.871094 141.214844 105.5625 C 137.980469 102.734375 132.515625 102.03125 130.019531 106.179688 Z M 130.355469 102.109375 C 136.605469 100.988281 143.496094 102.136719 143.496094 102.136719 C 143.496094 102.136719 143.496094 99.980469 141.976562 99.285156 C 140.5 98.609375 135.070312 96.75 129.554688 98.53125 C 127.761719 99.140625 127.925781 102.542969 130.355469 102.109375 Z M 228.480469 208.730469 L 228.492188 208.730469 L 228.382812 209.175781 C 223.539062 228.980469 212.039062 246.914062 196 259.675781 C 181.339844 271.339844 164.007812 278.121094 145.511719 279.507812 C 145.503906 279.507812 145.492188 279.507812 145.480469 279.511719 C 144.800781 279.5625 144.121094 279.605469 143.4375 279.640625 C 143.253906 279.648438 143.066406 279.660156 142.878906 279.667969 C 142.363281 279.691406 141.84375 279.710938 141.324219 279.726562 C 141.066406 279.738281 140.808594 279.746094 140.546875 279.753906 C 140.027344 279.765625 139.503906 279.769531 138.984375 279.773438 C 138.78125 279.773438 138.582031 279.78125 138.382812 279.78125 C 138.179688 279.78125 137.980469 279.773438 137.78125 279.773438 C 137.257812 279.769531 136.738281 279.765625 136.214844 279.753906 C 135.957031 279.746094 135.699219 279.738281 135.4375 279.726562 C 134.921875 279.710938 134.402344 279.691406 133.882812 279.667969 C 133.699219 279.660156 133.511719 279.652344 133.324219 279.640625 C 132.644531 279.605469 131.964844 279.5625 131.285156 279.511719 C 131.273438 279.507812 131.261719 279.507812 131.25 279.507812 C 112.753906 278.121094 95.425781 271.339844 80.765625 259.675781 C 64.726562 246.914062 53.222656 228.980469 48.378906 209.175781 L 48.269531 208.730469 L 48.285156 208.730469 C 46.609375 201.765625 45.714844 194.5 45.714844 187.027344 C 45.714844 162.441406 55.328125 140.058594 70.988281 123.441406 C 70.53125 118.96875 70.613281 115.78125 71.230469 113.816406 C 72.65625 109.269531 77.925781 105.207031 81.023438 104.132812 C 83.820312 103.164062 90.859375 104.074219 93.714844 105.789062 C 99.378906 102.65625 105.402344 100.101562 111.707031 98.199219 C 111.730469 97.3125 111.789062 96.460938 111.878906 95.632812 C 111.941406 94.820312 112.042969 94.019531 112.183594 93.230469 C 110.828125 91.886719 106.128906 86.554688 105.515625 76.453125 L 109.585938 78.28125 C 109.585938 78.28125 107.886719 74.210938 109.359375 69.433594 C 109.359375 69.433594 114.78125 73.535156 122.285156 73.054688 C 126.796875 72.765625 133.371094 72.421875 139.347656 73.171875 C 140.800781 73.308594 142.214844 73.566406 143.582031 73.933594 C 145.898438 74.503906 147.996094 75.3125 149.679688 76.453125 C 149.679688 76.453125 149.679688 76.453125 149.683594 76.453125 C 157.027344 80.683594 161.964844 88.445312 162 97.335938 C 164.75 98.0625 167.453125 98.910156 170.101562 99.875 C 171.640625 96.519531 172.417969 94.273438 172.445312 94.1875 L 172.59375 93.75 L 175.03125 95.328125 C 176.472656 91.746094 177.9375 88.222656 179.1875 85.460938 C 181.847656 79.589844 196.695312 36.222656 197.644531 33.453125 C 195.480469 28.582031 197.914062 24.550781 198.859375 23.257812 C 197.542969 22.859375 196.375 22.25 196.136719 21.601562 C 196.035156 21.324219 195.976562 20.761719 195.972656 20.058594 C 195.613281 19.714844 194.730469 18.835938 194.53125 18.289062 C 194.46875 18.113281 194.4375 17.839844 194.4375 17.492188 C 193.996094 17.273438 193.667969 16.921875 193.472656 16.421875 C 192.761719 14.574219 194.007812 11.183594 195.292969 8.835938 C 196.566406 6.515625 205.773438 5.046875 209.070312 6.1875 C 212.167969 7.261719 217.4375 11.328125 218.863281 15.871094 C 219.878906 19.109375 219.449219 25.640625 217.546875 35.835938 C 217.300781 37.152344 217.058594 39.34375 216.722656 42.378906 C 215.5625 52.863281 213.402344 72.378906 206.707031 93.960938 C 204.878906 99.859375 202.796875 106.429688 200.964844 112.15625 L 206.761719 115.917969 L 206.679688 116.183594 C 206.015625 118.226562 205.28125 120.199219 204.5 122.113281 C 220.910156 138.855469 231.046875 161.777344 231.046875 187.03125 C 231.046875 194.5 230.15625 201.765625 228.480469 208.730469 Z M 175.648438 95.730469 L 200.339844 111.75 C 202.15625 106.070312 204.214844 99.578125 206.023438 93.75 C 212.699219 72.234375 214.851562 52.761719 216.007812 42.296875 C 216.347656 39.25 216.589844 37.046875 216.839844 35.703125 C 217.53125 32 219.632812 20.730469 218.175781 16.085938 C 216.871094 11.929688 211.855469 7.917969 208.835938 6.871094 C 205.636719 5.761719 196.949219 7.320312 195.929688 9.183594 C 194.664062 11.492188 193.566406 14.660156 194.148438 16.160156 C 194.226562 16.367188 194.339844 16.535156 194.480469 16.664062 C 194.621094 15.160156 195.109375 13.050781 195.871094 11.621094 C 196.40625 10.613281 197.03125 10.011719 197.726562 9.839844 C 200.355469 9.191406 206.679688 8.585938 206.949219 8.5625 L 207.015625 9.28125 C 206.949219 9.285156 200.476562 9.902344 197.898438 10.539062 C 197.417969 10.660156 196.9375 11.152344 196.503906 11.960938 C 195.414062 14.015625 194.988281 17.433594 195.210938 18.042969 C 195.289062 18.261719 195.636719 18.675781 196.003906 19.066406 C 196.101562 17.59375 196.417969 15.832031 197.074219 14.597656 C 197.527344 13.746094 198.097656 13.234375 198.765625 13.066406 C 201.605469 12.363281 210.09375 12.546875 210.453125 12.554688 L 210.4375 13.277344 C 210.347656 13.273438 201.683594 13.085938 198.9375 13.765625 C 198.476562 13.882812 198.0625 14.273438 197.710938 14.9375 C 196.609375 17.003906 196.574219 20.695312 196.816406 21.355469 C 197.113281 22.175781 200.945312 23.386719 202.410156 22.902344 C 202.796875 22.773438 202.851562 22.125 202.734375 21.535156 C 202.488281 20.324219 201.410156 18.667969 199.78125 18.808594 L 199.722656 18.085938 C 200.871094 17.996094 201.832031 18.566406 202.5 19.394531 L 206.917969 19.136719 L 206.960938 19.855469 L 202.964844 20.089844 C 203.1875 20.503906 203.351562 20.945312 203.441406 21.390625 C 203.664062 22.507812 203.359375 23.347656 202.636719 23.585938 C 202.371094 23.675781 202.023438 23.714844 201.628906 23.714844 C 201.027344 23.714844 200.320312 23.621094 199.609375 23.457031 C 198.9375 24.28125 196.050781 28.261719 198.359375 33.28125 L 198.421875 33.414062 L 198.375 33.550781 C 198.214844 34.011719 182.59375 79.695312 179.84375 85.761719 C 178.582031 88.546875 177.101562 92.109375 175.648438 95.730469 Z M 148.195312 128.351562 L 148.195312 136.984375 C 148.195312 142.21875 143.941406 146.476562 138.714844 146.476562 C 133.488281 146.476562 129.234375 142.21875 129.234375 136.984375 L 129.234375 134.191406 C 114.769531 137.507812 103.800781 142.816406 95.695312 150.472656 C 98.292969 165.867188 101.53125 185.589844 101.789062 189.769531 C 102.015625 193.40625 101.300781 196.308594 100.03125 198.566406 L 100.03125 208.730469 L 109.617188 208.730469 L 114.9375 199.355469 L 115.25 199.171875 L 146.617188 199.171875 C 149.285156 199.171875 150.984375 201.320312 151.652344 202.359375 C 152.320312 201.320312 154.019531 199.171875 156.6875 199.171875 L 181.4375 199.171875 L 181.4375 139.261719 L 182.160156 139.261719 L 182.160156 158.785156 C 183.300781 155.988281 185.714844 152.492188 188.734375 148.128906 C 194.125 140.332031 201.5 129.675781 205.90625 116.222656 L 172.976562 94.851562 C 171.777344 98.121094 163.671875 118.875 148.195312 128.351562 Z M 203.96875 228.316406 L 187.84375 199.894531 L 156.6875 199.894531 C 153.933594 199.894531 152.28125 202.675781 152.011719 203.164062 L 152.011719 234.527344 C 153.101562 232.195312 155.441406 228.316406 158.972656 228.316406 Z M 158.972656 229.039062 C 155.210938 229.039062 152.820312 234.355469 152.171875 235.996094 L 204.175781 235.996094 L 204.226562 229.039062 Z M 151.289062 234.527344 L 151.289062 203.164062 C 151.023438 202.679688 149.363281 199.894531 146.617188 199.894531 L 115.460938 199.894531 L 99.332031 228.316406 L 144.328125 228.316406 C 147.859375 228.316406 150.203125 232.195312 151.289062 234.527344 Z M 144.328125 229.039062 L 99.078125 229.039062 L 99.125 235.996094 L 151.128906 235.996094 C 150.484375 234.355469 148.089844 229.039062 144.328125 229.039062 Z M 138.714844 145.753906 C 143.542969 145.753906 147.472656 141.820312 147.472656 136.984375 L 147.472656 125.171875 C 147.183594 125.371094 146.886719 125.570312 146.585938 125.765625 L 132.433594 143.082031 C 134.023438 144.726562 136.25 145.753906 138.714844 145.753906 Z M 161.253906 103.355469 C 161.710938 104.210938 161.988281 105.238281 161.988281 106.4375 C 161.988281 111.851562 158.082031 117.167969 154.03125 117.347656 C 153.152344 120.113281 150.992188 122.566406 148.195312 124.652344 L 148.195312 127.511719 C 159.09375 120.664062 166.246094 108.128906 169.796875 100.535156 C 167.246094 99.601562 164.636719 98.785156 161.988281 98.082031 C 161.9375 99.894531 161.691406 101.660156 161.253906 103.355469 Z M 112.429688 98.328125 C 114.871094 97.742188 118.382812 97.386719 121.921875 98.53125 C 123.714844 99.144531 123.550781 102.546875 121.121094 102.109375 C 118.125 101.570312 114.980469 101.554688 112.519531 101.683594 C 112.550781 102.144531 112.589844 102.613281 112.636719 103.105469 L 112.644531 103.183594 C 112.734375 104.003906 112.839844 104.789062 112.960938 105.574219 C 112.964844 105.652344 112.972656 105.726562 112.980469 105.796875 C 115.246094 102.273438 119.824219 102.777344 122.714844 105.359375 C 122.734375 105.214844 122.753906 105.074219 122.765625 104.925781 L 123.484375 104.972656 C 123.363281 106.816406 122.554688 108.023438 121.84375 109.085938 C 121.136719 110.136719 120.53125 111.046875 120.53125 112.433594 C 120.53125 113.789062 121.777344 114.589844 124.453125 114.953125 L 124.355469 115.671875 C 123.234375 115.515625 119.808594 115.050781 119.808594 112.433594 C 119.808594 110.828125 120.539062 109.738281 121.246094 108.683594 C 121.753906 107.929688 122.269531 107.148438 122.554688 106.144531 C 122.515625 106.128906 122.476562 106.105469 122.441406 106.074219 C 121.664062 105.328125 120.726562 104.753906 119.746094 104.398438 C 119.859375 104.757812 119.925781 105.140625 119.925781 105.539062 C 119.925781 107.414062 118.546875 108.9375 116.847656 108.9375 C 115.253906 108.9375 113.941406 107.597656 113.785156 105.886719 C 113.632812 106.089844 113.488281 106.304688 113.359375 106.542969 C 113.300781 106.652344 113.214844 106.703125 113.121094 106.71875 C 113.351562 108.679688 113.15625 109.707031 112.917969 110.964844 C 112.691406 112.152344 112.4375 113.5 112.4375 116.070312 C 112.4375 123.085938 121.054688 131.523438 126.46875 131.523438 L 126.484375 131.882812 L 126.484375 131.523438 C 134.464844 131.523438 150.945312 125.488281 153.421875 116.894531 L 153.496094 116.628906 L 153.769531 116.632812 C 157.582031 116.632812 161.269531 111.582031 161.269531 106.4375 C 161.269531 103.125 158.925781 101.25 156.570312 101.042969 C 156.457031 101.953125 156.332031 102.816406 156.199219 103.617188 C 157.054688 103.867188 157.835938 104.460938 158.242188 105.4375 C 158.429688 105.882812 158.535156 106.40625 158.535156 107.015625 L 157.8125 107.015625 C 157.8125 105.5 157.027344 104.644531 156.074219 104.335938 C 155.558594 107.238281 155.019531 109.125 155.019531 109.125 L 154.726562 109.125 L 154.023438 113.375 L 153.3125 113.257812 L 153.996094 109.125 L 147.890625 109.125 C 147.890625 109.125 149.949219 104.398438 149.964844 101.417969 C 149.980469 97.851562 147.46875 96.929688 145.152344 94.671875 C 142.753906 92.328125 140.75 88.09375 139.644531 84.0625 C 136.449219 85.042969 128.015625 86.933594 121.144531 83.5 C 121.144531 83.5 117.207031 84.640625 114.53125 88.785156 C 113.214844 91.40625 112.507812 94.597656 112.429688 98.328125 Z M 94.355469 106.253906 C 94.546875 106.425781 94.699219 106.601562 94.800781 106.78125 C 96.085938 109.128906 97.332031 112.519531 96.621094 114.367188 C 96.425781 114.863281 96.097656 115.21875 95.65625 115.4375 C 95.65625 115.785156 95.625 116.0625 95.5625 116.234375 C 95.363281 116.777344 94.480469 117.660156 94.121094 118.003906 C 94.121094 118.707031 94.058594 119.265625 93.957031 119.542969 C 93.722656 120.195312 92.554688 120.804688 91.234375 121.203125 C 92.179688 122.496094 94.621094 126.542969 92.433594 131.425781 C 92.609375 132.4375 93.941406 140.113281 95.546875 149.613281 C 103.742188 142.019531 114.765625 136.746094 129.234375 133.449219 L 129.234375 132.050781 C 128.238281 132.175781 127.308594 132.242188 126.480469 132.242188 L 126.46875 132.242188 C 120.640625 132.242188 111.710938 123.570312 111.710938 116.070312 C 111.710938 113.433594 111.984375 111.988281 112.207031 110.828125 C 112.449219 109.554688 112.628906 108.589844 112.382812 106.636719 C 112.359375 106.578125 112.351562 106.519531 112.359375 106.460938 C 112.335938 106.285156 112.3125 106.101562 112.28125 105.910156 C 112.144531 105.039062 112.027344 104.171875 111.929688 103.324219 L 111.921875 103.238281 C 111.800781 101.960938 111.734375 100.878906 111.714844 99.863281 C 111.703125 99.671875 111.699219 99.515625 111.699219 99.367188 C 111.695312 99.226562 111.699219 99.09375 111.699219 98.957031 C 105.632812 100.800781 99.828125 103.257812 94.355469 106.253906 Z M 73.253906 133.648438 C 73.667969 135.878906 73.105469 142.09375 72.390625 149.960938 C 71.175781 163.292969 69.519531 181.554688 71.890625 190.5 C 74.644531 200.898438 83.648438 205.285156 90.722656 204.136719 C 96.101562 203.265625 101.644531 199.042969 101.070312 189.816406 C 100.636719 182.828125 91.792969 131.953125 91.707031 131.441406 L 91.6875 131.328125 L 91.734375 131.226562 C 94.019531 126.257812 91.132812 122.21875 90.480469 121.402344 C 89.773438 121.566406 89.0625 121.660156 88.464844 121.660156 C 88.070312 121.660156 87.726562 121.621094 87.457031 121.53125 C 86.738281 121.296875 86.429688 120.453125 86.65625 119.335938 C 86.746094 118.894531 86.90625 118.453125 87.128906 118.042969 L 83.128906 117.804688 L 83.171875 117.085938 L 87.589844 117.347656 C 88.261719 116.511719 89.226562 115.941406 90.371094 116.035156 L 90.316406 116.753906 C 88.683594 116.621094 87.609375 118.269531 87.363281 119.480469 C 87.246094 120.070312 87.296875 120.71875 87.683594 120.847656 C 89.144531 121.328125 92.980469 120.121094 93.28125 119.296875 C 93.519531 118.640625 93.484375 114.949219 92.382812 112.878906 C 92.03125 112.21875 91.621094 111.828125 91.15625 111.710938 C 88.410156 111.03125 79.746094 111.21875 79.660156 111.21875 L 79.644531 110.5 C 80.003906 110.492188 88.492188 110.308594 91.332031 111.011719 C 92 111.175781 92.570312 111.691406 93.019531 112.539062 C 93.679688 113.773438 93.996094 115.539062 94.089844 117.011719 C 94.453125 116.628906 94.800781 116.214844 94.882812 115.988281 C 95.105469 115.378906 94.683594 111.957031 93.585938 109.90625 C 93.15625 109.097656 92.675781 108.605469 92.195312 108.488281 C 89.617188 107.847656 83.144531 107.234375 83.078125 107.226562 L 83.148438 106.507812 C 83.414062 106.535156 89.738281 107.136719 92.367188 107.785156 C 93.0625 107.957031 93.6875 108.558594 94.222656 109.566406 C 94.984375 110.992188 95.472656 113.101562 95.613281 114.609375 C 95.753906 114.480469 95.867188 114.316406 95.945312 114.109375 C 96.527344 112.605469 95.429688 109.4375 94.164062 107.128906 C 93.144531 105.265625 84.457031 103.707031 81.257812 104.816406 C 78.234375 105.863281 73.222656 109.875 71.914062 114.03125 C 70.460938 118.675781 72.5625 129.945312 73.253906 133.648438 Z M 49.027344 208.730469 L 99.3125 208.730469 L 99.3125 199.695312 C 97.136719 202.734375 93.878906 204.355469 90.839844 204.847656 C 90.074219 204.976562 89.285156 205.039062 88.488281 205.039062 C 81.574219 205.039062 73.757812 200.371094 71.195312 190.6875 C 68.789062 181.613281 70.457031 163.285156 71.671875 149.898438 C 72.355469 142.394531 72.945312 135.914062 72.546875 133.78125 C 71.878906 130.199219 71.394531 127.082031 71.089844 124.390625 C 55.804688 140.828125 46.4375 162.855469 46.4375 187.03125 C 46.4375 194.503906 47.339844 201.769531 49.027344 208.730469 Z M 227.574219 209.453125 L 194.09375 209.453125 L 204.902344 228.5 L 204.949219 228.679688 L 204.945312 229.398438 L 204.949219 229.402344 L 204.945312 230.101562 L 204.949219 230.121094 L 204.894531 237.800781 L 204.535156 238.160156 L 98.769531 238.160156 L 98.40625 237.800781 L 98.355469 230.121094 L 98.359375 230.101562 L 98.355469 229.402344 L 98.359375 229.394531 L 98.355469 228.679688 L 98.402344 228.5 L 109.207031 209.453125 L 49.191406 209.453125 C 59.433594 250.460938 96.046875 279.058594 138.382812 279.058594 C 180.722656 279.058594 217.332031 250.457031 227.574219 209.453125 Z M 230.328125 187.03125 C 230.328125 162.085938 220.355469 139.433594 204.199219 122.839844 C 199.785156 133.40625 193.859375 141.984375 189.324219 148.539062 C 185.320312 154.328125 182.160156 158.898438 182.160156 161.847656 L 182.160156 199.171875 L 188.054688 199.171875 L 188.367188 199.355469 L 193.6875 208.730469 L 227.738281 208.730469 C 229.425781 201.769531 230.328125 194.503906 230.328125 187.03125 Z M 107.246094 221.382812 L 145.632812 221.382812 L 145.632812 220.660156 L 107.246094 220.660156 Z M 117.78125 117.5 L 135.339844 117.570312 L 135.019531 118.113281 C 132.898438 121.722656 129.238281 124.058594 125.695312 124.058594 C 125.695312 124.058594 125.695312 124.058594 125.691406 124.058594 C 122.246094 124.058594 119.429688 121.847656 117.96875 117.988281 Z M 118.839844 118.226562 C 120.246094 121.527344 122.664062 123.335938 125.695312 123.335938 C 128.808594 123.335938 132.035156 121.375 134.0625 118.289062 Z M 110.699219 214.726562 L 146.097656 214.726562 L 146.097656 214.003906 L 110.699219 214.003906 Z M 116.210938 204.09375 L 146.847656 204.09375 L 146.847656 203.375 L 116.210938 203.375 Z M 113.652344 209.027344 L 146.5 209.027344 L 146.5 208.304688 L 113.652344 208.304688 Z M 113.652344 209.027344 " fill-opacity="1" fill-rule="nonzero"/></g></svg>